<svg width="500" height="250" viewBox="0 0 500 250" fill="none" xmlns="http://www.w3.org/2000/svg">
<g clip-path="url(#clip0)">
<path d="M60.9253 19.2568H92.1212V19.2568C92.1212 19.8949 91.6039 20.4122 90.9658 20.4122H62.0807C61.4426 20.4122 60.9253 19.8949 60.9253 19.2568V19.2568Z" fill="#B4B6BD"/>
<path opacity="0.4" d="M131.405 201.811V248.027H291.859C296.752 248.027 301.434 246.035 304.827 242.509L344 201.811H131.405Z" fill="#D4DEE9"/>
<rect x="2" y="3.08109" width="144.426" height="244.946" rx="11" fill="#6279F3"/>
<rect x="6.62207" y="3.08109" width="139.804" height="240.324" rx="12" fill="#7388F5"/>
<rect x="14.5532" y="32.9662" width="328.446" height="170.155" rx="2" fill="white" stroke="#96A6F7" stroke-width="2"/>
<rect x="59.77" y="15.7905" width="33.5068" height="4.62162" rx="2.31081" fill="#C2CCFF"/>
<rect x="65.5474" y="212.209" width="21.9527" height="21.9527" rx="10.9763" fill="#D5D7DE"/>
<rect x="64.3921" y="211.054" width="24.2635" height="24.2635" rx="12.1318" fill="#8597F6"/>
<rect x="65.5474" y="212.209" width="21.9527" height="21.9527" rx="10.9763" fill="#B3BFFF"/>
<path opacity="0.2" d="M219.217 33.1216H118.696L19.3315 202.966H131.984L219.217 33.1216Z" fill="#DCE1FC"/>
<rect opacity="0.6" x="33.6982" y="68.2839" width="87.9662" height="69.4797" rx="3.5" fill="#D4DEE9" stroke="#698BB2"/>
<path d="M101.77 122.08C96.6277 125.113 90.8345 126.239 86.3077 126.602C84.0473 126.784 82.1106 126.775 80.7408 126.72C80.1115 126.695 79.6023 126.661 79.2369 126.631C79.3616 126.312 79.5423 125.87 79.783 125.332C80.307 124.161 81.1142 122.534 82.2451 120.716C84.5098 117.074 88.0564 112.693 93.1987 109.661C98.341 106.628 104.134 105.502 108.661 105.139C110.921 104.957 112.858 104.966 114.228 105.021C114.857 105.046 115.366 105.08 115.732 105.11C115.607 105.429 115.426 105.871 115.186 106.409C114.662 107.58 113.854 109.207 112.724 111.025C110.459 114.667 106.912 119.048 101.77 122.08Z" fill="#768CFF" stroke="#E5EBF2"/>
<path d="M53.5889 122.08C58.7312 125.113 64.5244 126.239 69.0512 126.602C71.3116 126.784 73.2483 126.775 74.6181 126.72C75.2474 126.695 75.7565 126.661 76.1219 126.631C75.9973 126.312 75.8166 125.87 75.5759 125.332C75.0519 124.161 74.2447 122.534 73.1138 120.716C70.8491 117.074 67.3024 112.693 62.1602 109.661C57.0179 106.628 51.2247 105.502 46.6979 105.139C44.4375 104.957 42.5008 104.966 41.131 105.021C40.5017 105.046 39.9925 105.08 39.6271 105.11C39.7518 105.429 39.9325 105.871 40.1732 106.409C40.6972 107.58 41.5044 109.207 42.6353 111.025C44.9 114.667 48.4466 119.048 53.5889 122.08Z" fill="#768CFF" stroke="#E5EBF2"/>
<path d="M98.8699 112.609C95.8225 117.887 91.1909 121.606 87.299 124.011C85.3559 125.211 83.6047 126.08 82.3407 126.647C81.7215 126.925 81.2197 127.131 80.8703 127.268C80.8142 126.897 80.7414 126.359 80.6726 125.684C80.532 124.306 80.4083 122.355 80.4765 120.072C80.6131 115.499 81.5183 109.628 84.5657 104.35C87.6131 99.0718 92.2447 95.3525 96.1365 92.9479C98.0797 91.7473 99.8309 90.8791 101.095 90.3115C101.714 90.0335 102.216 89.8279 102.565 89.691C102.621 90.062 102.694 90.5994 102.763 91.2746C102.904 92.653 103.027 94.6038 102.959 96.8869C102.822 101.46 101.917 107.33 98.8699 112.609Z" fill="#768CFF" stroke="#E5EBF2"/>
<path d="M56.49 112.609C59.5374 117.887 64.169 121.606 68.0608 124.011C70.004 125.211 71.7552 126.08 73.0192 126.647C73.6384 126.925 74.1401 127.131 74.4896 127.268C74.5457 126.897 74.6185 126.359 74.6873 125.684C74.8278 124.306 74.9515 122.355 74.8833 120.072C74.7468 115.499 73.8416 109.628 70.7942 104.35C67.7468 99.0718 63.1152 95.3525 59.2233 92.9479C57.2802 91.7473 55.529 90.8791 54.265 90.3115C53.6457 90.0335 53.144 89.8279 52.7946 89.691C52.7385 90.062 52.6657 90.5994 52.5968 91.2746C52.4563 92.653 52.3326 94.6038 52.4008 96.8869C52.5374 101.46 53.4426 107.33 56.49 112.609Z" fill="#768CFF" stroke="#E5EBF2"/>
<path d="M87.3792 103.693C87.3792 110.295 84.8482 116.295 82.2955 120.662C81.0211 122.843 79.7466 124.607 78.7916 125.826C78.3142 126.435 77.9171 126.907 77.6404 127.226C77.6178 127.251 77.596 127.276 77.5751 127.3C77.5542 127.276 77.5324 127.251 77.5099 127.226C77.2331 126.907 76.836 126.435 76.3586 125.826C75.4036 124.607 74.1291 122.843 72.8547 120.662C70.3021 116.295 67.771 110.295 67.771 103.693C67.771 97.0907 70.3021 91.091 72.8547 86.7236C74.1291 84.5432 75.4036 82.7787 76.3586 81.5602C76.836 80.9512 77.2331 80.4792 77.5099 80.1605C77.5324 80.1345 77.5542 80.1096 77.5751 80.0856C77.596 80.1096 77.6178 80.1345 77.6404 80.1605C77.9171 80.4792 78.3142 80.9512 78.7916 81.5602C79.7466 82.7787 81.0211 84.5432 82.2955 86.7236C84.8482 91.091 87.3792 97.0907 87.3792 103.693Z" fill="#768CFF" stroke="#E5EBF2"/>
<circle opacity="0.4" cx="78.2579" cy="103.601" r="13.8649" fill="#1A1B1D"/>
<path opacity="0.7" d="M85.1899 103.024L75.6578 109.528L75.6579 96.5197L85.1899 103.024Z" fill="#A4A4A4"/>
<rect opacity="0.6" x="133.061" y="68.2838" width="85.6554" height="69.4797" rx="3.5" fill="#D4DEE9" stroke="#698BB2"/>
<path d="M195.644 105.187C195.644 93.0764 187.053 83.259 176.457 83.259C165.86 83.259 157.27 93.0764 157.27 105.187" stroke="#FF779C" stroke-width="3"/>
<path d="M162.478 111.689C162.478 116.107 163.768 122.088 158.009 122.088C152.25 122.088 147.581 117.432 147.581 111.689C147.581 105.946 152.25 101.29 158.009 101.29C163.768 101.29 162.478 107.271 162.478 111.689Z" fill="#FF779C"/>
<path d="M190.454 111.689C190.454 116.107 189.164 122.088 194.923 122.088C200.682 122.088 205.351 117.432 205.351 111.689C205.351 105.946 200.682 101.29 194.923 101.29C189.164 101.29 190.454 107.271 190.454 111.689Z" fill="#FF779C"/>
<rect opacity="0.6" x="230.114" y="68.2838" width="87.9662" height="69.4797" rx="3.5" fill="#D4DEE9" stroke="#698BB2"/>
<path d="M274.676 87.4256L300.239 85.2953C301.405 85.1981 302.406 86.1183 302.406 87.2884V122.633C302.406 123.642 301.654 124.492 300.654 124.618L274.676 127.865V87.4256Z" fill="#EDC90E"/>
<path d="M274.676 87.4256L249.112 85.2953C247.946 85.1981 246.946 86.1183 246.946 87.2884V122.633C246.946 123.642 247.697 124.492 248.698 124.618L274.676 127.865V87.4256Z" fill="#EDC90E"/>
<path d="M274.676 87.2972L297.924 85.3012C299.091 85.2009 300.095 86.1218 300.095 87.2939V120.462C300.095 121.466 299.35 122.314 298.355 122.445L274.676 125.554V87.2972Z" fill="#F8E99F"/>
<path d="M274.676 87.2972L251.428 85.3012C250.26 85.2009 249.257 86.1218 249.257 87.2939V120.462C249.257 121.466 250.001 122.314 250.996 122.445L274.676 125.554V87.2972Z" fill="#F8E99F"/>
<rect width="2.31081" height="38.1284" transform="matrix(-1 0 0 1 275.83 87.4256)" fill="#EDC90E"/>
<rect x="253.283" y="95.2508" width="16.8822" height="1.15541" rx="0.577703" transform="rotate(4.99426 253.283 95.2508)" fill="#EDC90E"/>
<rect x="253.283" y="101.29" width="16.8822" height="1.15541" rx="0.577703" transform="rotate(4.99426 253.283 101.29)" fill="#EDC90E"/>
<rect x="253.283" y="107.33" width="16.8822" height="1.15541" rx="0.577703" transform="rotate(4.99426 253.283 107.33)" fill="#EDC90E"/>
<rect width="16.8822" height="1.15541" rx="0.577703" transform="matrix(-0.996203 0.087056 0.087056 0.996203 296.116 95.5135)" fill="#EDC90E"/>
<rect width="16.8822" height="1.15541" rx="0.577703" transform="matrix(-0.996203 0.087056 0.087056 0.996203 296.115 101.553)" fill="#EDC90E"/>
<rect width="16.8822" height="1.15541" rx="0.577703" transform="matrix(-0.996203 0.087056 0.087056 0.996203 296.115 107.593)" fill="#EDC90E"/>
<path d="M47.4795 155.484H50.9515C52.0249 155.484 52.7995 155.731 53.2755 156.226C53.7609 156.72 54.0035 157.336 54.0035 158.074C54.0035 158.522 53.8775 158.928 53.6255 159.292C53.3735 159.646 53.0189 159.922 52.5615 160.118C53.1309 160.295 53.5695 160.594 53.8775 161.014C54.1949 161.424 54.3535 161.91 54.3535 162.47C54.3535 162.824 54.2975 163.16 54.1855 163.478C54.0735 163.795 53.9009 164.094 53.6675 164.374C53.4342 164.654 53.1029 164.878 52.6735 165.046C52.2442 165.204 51.7449 165.284 51.1755 165.284H47.4795V155.484ZM50.7135 159.642C51.3949 159.642 51.9129 159.506 52.2675 159.236C52.6222 158.956 52.7995 158.573 52.7995 158.088C52.7995 157.089 52.2069 156.59 51.0215 156.59H48.6975V159.642H50.7135ZM51.3155 164.164C51.9782 164.164 52.4495 164.01 52.7295 163.702C53.0095 163.394 53.1495 163.011 53.1495 162.554C53.1495 161.35 52.3889 160.748 50.8675 160.748H48.6975V164.164H51.3155ZM56.457 165.284V158.13H57.675V159.068C58.011 158.33 58.5757 157.962 59.369 157.962C59.817 157.962 60.1857 158.083 60.475 158.326L60.293 159.474C59.9944 159.268 59.6537 159.166 59.271 159.166C58.851 159.166 58.4777 159.329 58.151 159.656C57.8337 159.982 57.675 160.514 57.675 161.252V165.284H56.457ZM64.6565 165.452C63.6858 165.452 62.9111 165.106 62.3325 164.416C61.7631 163.716 61.4785 162.81 61.4785 161.7C61.4785 160.533 61.7678 159.618 62.3465 158.956C62.9251 158.293 63.6951 157.962 64.6565 157.962C65.5151 157.962 66.2198 158.251 66.7705 158.83C67.3305 159.399 67.6105 160.244 67.6105 161.364C67.6105 161.625 67.5965 161.896 67.5685 162.176H62.7245C62.7711 162.829 62.9718 163.356 63.3265 163.758C63.6905 164.15 64.1431 164.346 64.6845 164.346C65.2818 164.346 65.7951 164.131 66.2245 163.702L66.9665 164.528C66.3505 165.144 65.5805 165.452 64.6565 165.452ZM62.7105 161.14H66.3785C66.3691 160.402 66.1918 159.87 65.8465 159.544C65.5105 159.208 65.1138 159.04 64.6565 159.04C64.1058 159.04 63.6531 159.217 63.2985 159.572C62.9438 159.917 62.7478 160.44 62.7105 161.14ZM73.5337 165.284V164.626C72.9457 165.176 72.269 165.452 71.5037 165.452C70.7477 165.452 70.141 165.246 69.6837 164.836C69.2357 164.416 69.0117 163.818 69.0117 163.044C69.0117 162.269 69.2683 161.681 69.7817 161.28C70.295 160.878 70.9297 160.678 71.6857 160.678C72.3763 160.678 72.9923 160.832 73.5337 161.14V160.636C73.5337 160.038 73.3983 159.623 73.1277 159.39C72.8663 159.147 72.4837 159.026 71.9797 159.026C71.261 159.026 70.5657 159.264 69.8937 159.74L69.5437 158.718C70.309 158.214 71.1723 157.962 72.1337 157.962C73.8323 157.962 74.6817 158.82 74.6817 160.538V165.284H73.5337ZM71.6857 164.374C72.3857 164.374 73.0017 164.061 73.5337 163.436V162.204C73.0203 161.886 72.4603 161.728 71.8537 161.728C71.359 161.728 70.953 161.84 70.6357 162.064C70.3183 162.288 70.1597 162.614 70.1597 163.044C70.1597 163.445 70.2903 163.767 70.5517 164.01C70.8223 164.252 71.2003 164.374 71.6857 164.374ZM78.7328 165.452C77.7248 165.452 77.2208 164.882 77.2208 163.744V159.194H76.0588V158.13H77.2208V155.764L78.4388 155.176V158.13H80.2028V159.194H78.4388V163.338C78.4388 163.655 78.4901 163.898 78.5928 164.066C78.6955 164.234 78.8915 164.318 79.1808 164.318C79.4981 164.318 79.8528 164.192 80.2448 163.94L80.1048 165.13C79.6941 165.344 79.2368 165.452 78.7328 165.452ZM82.0371 165.284V155.736L83.2551 155.176V158.872C83.6938 158.265 84.3098 157.962 85.1031 157.962C85.9431 157.962 86.5778 158.218 87.0071 158.732C87.4458 159.236 87.6651 160.048 87.6651 161.168V165.284H86.4471V160.958C86.4471 160.314 86.3071 159.842 86.0271 159.544C85.7565 159.236 85.3831 159.082 84.9071 159.082C83.8058 159.082 83.2551 159.698 83.2551 160.93V165.284H82.0371ZM91.0878 156.618C90.9385 156.758 90.7565 156.828 90.5418 156.828C90.3271 156.828 90.1451 156.753 89.9958 156.604C89.8558 156.454 89.7858 156.277 89.7858 156.072C89.7858 155.857 89.8605 155.675 90.0098 155.526C90.1591 155.367 90.3365 155.288 90.5418 155.288C90.7565 155.288 90.9385 155.367 91.0878 155.526C91.2371 155.675 91.3118 155.857 91.3118 156.072C91.3118 156.286 91.2371 156.468 91.0878 156.618ZM89.9398 165.284V158.13H91.1578V165.284H89.9398ZM97.8905 165.284V160.958C97.8905 160.314 97.7505 159.842 97.4705 159.544C97.1998 159.236 96.8265 159.082 96.3505 159.082C95.2491 159.082 94.6985 159.698 94.6985 160.93V165.284H93.4805V158.13H94.6985V158.858C95.1371 158.26 95.7531 157.962 96.5465 157.962C97.3865 157.962 98.0211 158.218 98.4505 158.732C98.8891 159.236 99.1085 160.048 99.1085 161.168V165.284H97.8905ZM103.567 168.182L102.979 167.23C104.015 167.174 104.729 166.992 105.121 166.684C105.522 166.385 105.723 165.974 105.723 165.452V164.584C105.303 165.162 104.687 165.452 103.875 165.452C103.035 165.452 102.335 165.125 101.775 164.472C101.224 163.818 100.949 162.894 100.949 161.7C100.949 160.542 101.22 159.632 101.761 158.97C102.312 158.298 103.03 157.962 103.917 157.962C104.664 157.962 105.266 158.214 105.723 158.718V158.13H106.941V164.99C106.941 166.082 106.647 166.87 106.059 167.356C105.48 167.841 104.65 168.116 103.567 168.182ZM104.127 164.318C104.426 164.318 104.72 164.229 105.009 164.052C105.308 163.865 105.546 163.618 105.723 163.31V160.034C105.555 159.754 105.317 159.525 105.009 159.348C104.701 159.17 104.407 159.082 104.127 159.082C103.492 159.082 103.007 159.31 102.671 159.768C102.344 160.216 102.181 160.86 102.181 161.7C102.181 162.512 102.358 163.151 102.713 163.618C103.077 164.084 103.548 164.318 104.127 164.318ZM55.1477 179.452C54.177 179.452 53.4023 179.106 52.8237 178.416C52.2543 177.716 51.9697 176.81 51.9697 175.7C51.9697 174.533 52.259 173.618 52.8377 172.956C53.4163 172.293 54.1863 171.962 55.1477 171.962C56.0063 171.962 56.711 172.251 57.2617 172.83C57.8217 173.399 58.1017 174.244 58.1017 175.364C58.1017 175.625 58.0877 175.896 58.0597 176.176H53.2157C53.2623 176.829 53.463 177.356 53.8177 177.758C54.1817 178.15 54.6343 178.346 55.1757 178.346C55.773 178.346 56.2863 178.131 56.7157 177.702L57.4577 178.528C56.8417 179.144 56.0717 179.452 55.1477 179.452ZM53.2017 175.14H56.8697C56.8603 174.402 56.683 173.87 56.3377 173.544C56.0017 173.208 55.605 173.04 55.1477 173.04C54.597 173.04 54.1443 173.217 53.7897 173.572C53.435 173.917 53.239 174.44 53.2017 175.14ZM58.869 179.284L61.263 175.56L59.051 172.13H60.409L61.543 173.866C61.7577 174.211 61.893 174.44 61.949 174.552C62.173 174.178 62.313 173.95 62.369 173.866L63.489 172.13H64.861L62.635 175.56L65.043 179.284H63.671L62.355 177.254C62.2524 177.095 62.117 176.866 61.949 176.568C61.865 176.736 61.7297 176.964 61.543 177.254L60.227 179.284H58.869ZM69.2707 179.452C68.3 179.452 67.5254 179.106 66.9467 178.416C66.3774 177.716 66.0927 176.81 66.0927 175.7C66.0927 174.533 66.382 173.618 66.9607 172.956C67.5394 172.293 68.3094 171.962 69.2707 171.962C70.1294 171.962 70.834 172.251 71.3847 172.83C71.9447 173.399 72.2247 174.244 72.2247 175.364C72.2247 175.625 72.2107 175.896 72.1827 176.176H67.3387C67.3854 176.829 67.586 177.356 67.9407 177.758C68.3047 178.15 68.7574 178.346 69.2987 178.346C69.896 178.346 70.4094 178.131 70.8387 177.702L71.5807 178.528C70.9647 179.144 70.1947 179.452 69.2707 179.452ZM67.3247 175.14H70.9927C70.9834 174.402 70.806 173.87 70.4607 173.544C70.1247 173.208 69.728 173.04 69.2707 173.04C68.72 173.04 68.2674 173.217 67.9127 173.572C67.558 173.917 67.362 174.44 67.3247 175.14ZM74.0459 179.284V172.13H75.2639V173.068C75.5999 172.33 76.1646 171.962 76.9579 171.962C77.4059 171.962 77.7746 172.083 78.0639 172.326L77.8819 173.474C77.5832 173.268 77.2426 173.166 76.8599 173.166C76.4399 173.166 76.0666 173.329 75.7399 173.656C75.4226 173.982 75.2639 174.514 75.2639 175.252V179.284H74.0459ZM82.0353 179.452C81.1207 179.452 80.3973 179.125 79.8653 178.472C79.3333 177.809 79.0673 176.89 79.0673 175.714C79.0673 174.538 79.3333 173.618 79.8653 172.956C80.4067 172.293 81.1487 171.962 82.0913 171.962C83.3607 171.962 84.196 172.517 84.5973 173.628L83.4493 174.048C83.2067 173.413 82.7587 173.096 82.1053 173.096C81.508 173.096 81.06 173.324 80.7613 173.782C80.4627 174.239 80.3133 174.883 80.3133 175.714C80.3133 176.535 80.4627 177.174 80.7613 177.632C81.06 178.08 81.494 178.304 82.0633 178.304C82.81 178.304 83.2953 177.949 83.5193 177.24L84.6533 177.618C84.476 178.206 84.1587 178.658 83.7013 178.976C83.2533 179.293 82.698 179.452 82.0353 179.452ZM87.6493 170.618C87.5 170.758 87.318 170.828 87.1033 170.828C86.8887 170.828 86.7067 170.753 86.5573 170.604C86.4173 170.454 86.3473 170.277 86.3473 170.072C86.3473 169.857 86.422 169.675 86.5713 169.526C86.7207 169.367 86.898 169.288 87.1033 169.288C87.318 169.288 87.5 169.367 87.6493 169.526C87.7987 169.675 87.8733 169.857 87.8733 170.072C87.8733 170.286 87.7987 170.468 87.6493 170.618ZM86.5013 179.284V172.13H87.7193V179.284H86.5013ZM92.156 179.452C91.6427 179.452 91.1527 179.344 90.686 179.13C90.2287 178.906 89.8553 178.612 89.566 178.248L90.434 177.506C90.966 178.075 91.5493 178.36 92.184 178.36C92.5853 178.36 92.9073 178.285 93.15 178.136C93.3927 177.977 93.514 177.748 93.514 177.45C93.514 177.226 93.4253 177.025 93.248 176.848C93.0707 176.661 92.8887 176.526 92.702 176.442C92.5153 176.348 92.24 176.232 91.876 176.092C91.148 175.821 90.5973 175.518 90.224 175.182C89.8507 174.846 89.664 174.402 89.664 173.852C89.664 173.273 89.888 172.816 90.336 172.48C90.7933 172.134 91.372 171.962 92.072 171.962C93.0707 171.962 93.8733 172.321 94.48 173.04L93.64 173.74C93.2013 173.282 92.674 173.054 92.058 173.054C91.694 173.054 91.4047 173.124 91.19 173.264C90.9753 173.404 90.868 173.6 90.868 173.852C90.868 173.992 90.9007 174.122 90.966 174.244C91.0407 174.356 91.1667 174.463 91.344 174.566C91.5307 174.668 91.6753 174.748 91.778 174.804C91.89 174.85 92.0907 174.93 92.38 175.042C93.136 175.312 93.71 175.62 94.102 175.966C94.5033 176.311 94.704 176.796 94.704 177.422C94.704 178.056 94.4753 178.556 94.018 178.92C93.5607 179.274 92.94 179.452 92.156 179.452ZM99.3625 179.452C98.3918 179.452 97.6172 179.106 97.0385 178.416C96.4692 177.716 96.1845 176.81 96.1845 175.7C96.1845 174.533 96.4738 173.618 97.0525 172.956C97.6312 172.293 98.4012 171.962 99.3625 171.962C100.221 171.962 100.926 172.251 101.477 172.83C102.037 173.399 102.317 174.244 102.317 175.364C102.317 175.625 102.303 175.896 102.275 176.176H97.4305C97.4772 176.829 97.6778 177.356 98.0325 177.758C98.3965 178.15 98.8492 178.346 99.3905 178.346C99.9878 178.346 100.501 178.131 100.931 177.702L101.673 178.528C101.057 179.144 100.287 179.452 99.3625 179.452ZM97.4165 175.14H101.085C101.075 174.402 100.898 173.87 100.553 173.544C100.217 173.208 99.8198 173.04 99.3625 173.04C98.8118 173.04 98.3592 173.217 98.0045 173.572C97.6498 173.917 97.4538 174.44 97.4165 175.14Z" fill="#7F9BBD"/>
<path d="M148.365 164.284V154.484H149.583V163.108H154.399V164.284H148.365ZM157.137 155.618C156.988 155.758 156.806 155.828 156.591 155.828C156.376 155.828 156.194 155.753 156.045 155.604C155.905 155.454 155.835 155.277 155.835 155.072C155.835 154.857 155.91 154.675 156.059 154.526C156.208 154.367 156.386 154.288 156.591 154.288C156.806 154.288 156.988 154.367 157.137 154.526C157.286 154.675 157.361 154.857 157.361 155.072C157.361 155.286 157.286 155.468 157.137 155.618ZM155.989 164.284V157.13H157.207V164.284H155.989ZM161.644 164.452C161.13 164.452 160.64 164.344 160.174 164.13C159.716 163.906 159.343 163.612 159.054 163.248L159.922 162.506C160.454 163.075 161.037 163.36 161.672 163.36C162.073 163.36 162.395 163.285 162.638 163.136C162.88 162.977 163.002 162.748 163.002 162.45C163.002 162.226 162.913 162.025 162.736 161.848C162.558 161.661 162.376 161.526 162.19 161.442C162.003 161.348 161.728 161.232 161.364 161.092C160.636 160.821 160.085 160.518 159.712 160.182C159.338 159.846 159.152 159.402 159.152 158.852C159.152 158.273 159.376 157.816 159.824 157.48C160.281 157.134 160.86 156.962 161.56 156.962C162.558 156.962 163.361 157.321 163.968 158.04L163.128 158.74C162.689 158.282 162.162 158.054 161.546 158.054C161.182 158.054 160.892 158.124 160.678 158.264C160.463 158.404 160.356 158.6 160.356 158.852C160.356 158.992 160.388 159.122 160.454 159.244C160.528 159.356 160.654 159.463 160.832 159.566C161.018 159.668 161.163 159.748 161.266 159.804C161.378 159.85 161.578 159.93 161.868 160.042C162.624 160.312 163.198 160.62 163.59 160.966C163.991 161.311 164.192 161.796 164.192 162.422C164.192 163.056 163.963 163.556 163.506 163.92C163.048 164.274 162.428 164.452 161.644 164.452ZM168.024 164.452C167.016 164.452 166.512 163.882 166.512 162.744V158.194H165.35V157.13H166.512V154.764L167.73 154.176V157.13H169.494V158.194H167.73V162.338C167.73 162.655 167.782 162.898 167.884 163.066C167.987 163.234 168.183 163.318 168.472 163.318C168.79 163.318 169.144 163.192 169.536 162.94L169.396 164.13C168.986 164.344 168.528 164.452 168.024 164.452ZM173.95 164.452C172.979 164.452 172.205 164.106 171.626 163.416C171.057 162.716 170.772 161.81 170.772 160.7C170.772 159.533 171.061 158.618 171.64 157.956C172.219 157.293 172.989 156.962 173.95 156.962C174.809 156.962 175.513 157.251 176.064 157.83C176.624 158.399 176.904 159.244 176.904 160.364C176.904 160.625 176.89 160.896 176.862 161.176H172.018C172.065 161.829 172.265 162.356 172.62 162.758C172.984 163.15 173.437 163.346 173.978 163.346C174.575 163.346 175.089 163.131 175.518 162.702L176.26 163.528C175.644 164.144 174.874 164.452 173.95 164.452ZM172.004 160.14H175.672C175.663 159.402 175.485 158.87 175.14 158.544C174.804 158.208 174.407 158.04 173.95 158.04C173.399 158.04 172.947 158.217 172.592 158.572C172.237 158.917 172.041 159.44 172.004 160.14ZM183.135 164.284V159.958C183.135 159.314 182.995 158.842 182.715 158.544C182.444 158.236 182.071 158.082 181.595 158.082C180.494 158.082 179.943 158.698 179.943 159.93V164.284H178.725V157.13H179.943V157.858C180.382 157.26 180.998 156.962 181.791 156.962C182.631 156.962 183.266 157.218 183.695 157.732C184.134 158.236 184.353 159.048 184.353 160.168V164.284H183.135ZM187.776 155.618C187.626 155.758 187.444 155.828 187.23 155.828C187.015 155.828 186.833 155.753 186.684 155.604C186.544 155.454 186.474 155.277 186.474 155.072C186.474 154.857 186.548 154.675 186.698 154.526C186.847 154.367 187.024 154.288 187.23 154.288C187.444 154.288 187.626 154.367 187.776 154.526C187.925 154.675 188 154.857 188 155.072C188 155.286 187.925 155.468 187.776 155.618ZM186.628 164.284V157.13H187.846V164.284H186.628ZM194.578 164.284V159.958C194.578 159.314 194.438 158.842 194.158 158.544C193.888 158.236 193.514 158.082 193.038 158.082C191.937 158.082 191.386 158.698 191.386 159.93V164.284H190.168V157.13H191.386V157.858C191.825 157.26 192.441 156.962 193.234 156.962C194.074 156.962 194.709 157.218 195.138 157.732C195.577 158.236 195.796 159.048 195.796 160.168V164.284H194.578ZM200.255 167.182L199.667 166.23C200.703 166.174 201.417 165.992 201.809 165.684C202.21 165.385 202.411 164.974 202.411 164.452V163.584C201.991 164.162 201.375 164.452 200.563 164.452C199.723 164.452 199.023 164.125 198.463 163.472C197.912 162.818 197.637 161.894 197.637 160.7C197.637 159.542 197.908 158.632 198.449 157.97C199 157.298 199.718 156.962 200.605 156.962C201.352 156.962 201.954 157.214 202.411 157.718V157.13H203.629V163.99C203.629 165.082 203.335 165.87 202.747 166.356C202.168 166.841 201.338 167.116 200.255 167.182ZM200.815 163.318C201.114 163.318 201.408 163.229 201.697 163.052C201.996 162.865 202.234 162.618 202.411 162.31V159.034C202.243 158.754 202.005 158.525 201.697 158.348C201.389 158.17 201.095 158.082 200.815 158.082C200.18 158.082 199.695 158.31 199.359 158.768C199.032 159.216 198.869 159.86 198.869 160.7C198.869 161.512 199.046 162.151 199.401 162.618C199.765 163.084 200.236 163.318 200.815 163.318Z" fill="#7F9BBD"/>
<path d="M251.495 165.284V155.484H257.319V156.632H252.713V159.642H255.751V160.79H252.713V164.122H257.627V165.284H251.495ZM259.036 165.284L261.43 161.56L259.218 158.13H260.576L261.71 159.866C261.925 160.211 262.06 160.44 262.116 160.552C262.34 160.178 262.48 159.95 262.536 159.866L263.656 158.13H265.028L262.802 161.56L265.21 165.284H263.838L262.522 163.254C262.419 163.095 262.284 162.866 262.116 162.568C262.032 162.736 261.897 162.964 261.71 163.254L260.394 165.284H259.036ZM269.937 165.452C269.19 165.452 268.579 165.172 268.103 164.612V167.538L266.885 168.112V158.13H268.103V158.732C268.616 158.218 269.228 157.962 269.937 157.962C270.842 157.962 271.561 158.298 272.093 158.97C272.625 159.642 272.891 160.552 272.891 161.7C272.891 162.866 272.62 163.786 272.079 164.458C271.538 165.12 270.824 165.452 269.937 165.452ZM269.783 164.318C270.38 164.318 270.838 164.094 271.155 163.646C271.482 163.188 271.645 162.54 271.645 161.7C271.645 160.906 271.477 160.272 271.141 159.796C270.814 159.32 270.362 159.082 269.783 159.082C269.027 159.082 268.467 159.404 268.103 160.048V163.352C268.598 163.996 269.158 164.318 269.783 164.318ZM274.857 165.284V155.75L276.075 155.176V165.284H274.857ZM283.505 164.458C282.936 165.12 282.166 165.452 281.195 165.452C280.225 165.452 279.455 165.12 278.885 164.458C278.316 163.795 278.031 162.88 278.031 161.714C278.031 160.547 278.316 159.632 278.885 158.97C279.455 158.298 280.225 157.962 281.195 157.962C282.166 157.962 282.936 158.293 283.505 158.956C284.075 159.618 284.359 160.533 284.359 161.7C284.359 162.866 284.075 163.786 283.505 164.458ZM279.767 163.632C280.113 164.089 280.589 164.318 281.195 164.318C281.802 164.318 282.273 164.089 282.609 163.632C282.955 163.165 283.127 162.521 283.127 161.7C283.127 160.888 282.955 160.248 282.609 159.782C282.273 159.315 281.802 159.082 281.195 159.082C280.589 159.082 280.113 159.315 279.767 159.782C279.431 160.239 279.263 160.883 279.263 161.714C279.263 162.526 279.431 163.165 279.767 163.632ZM286.258 165.284V158.13H287.476V159.068C287.812 158.33 288.377 157.962 289.17 157.962C289.618 157.962 289.987 158.083 290.276 158.326L290.094 159.474C289.795 159.268 289.455 159.166 289.072 159.166C288.652 159.166 288.279 159.329 287.952 159.656C287.635 159.982 287.476 160.514 287.476 161.252V165.284H286.258ZM294.457 165.452C293.487 165.452 292.712 165.106 292.133 164.416C291.564 163.716 291.279 162.81 291.279 161.7C291.279 160.533 291.569 159.618 292.147 158.956C292.726 158.293 293.496 157.962 294.457 157.962C295.316 157.962 296.021 158.251 296.571 158.83C297.131 159.399 297.411 160.244 297.411 161.364C297.411 161.625 297.397 161.896 297.369 162.176H292.525C292.572 162.829 292.773 163.356 293.127 163.758C293.491 164.15 293.944 164.346 294.485 164.346C295.083 164.346 295.596 164.131 296.025 163.702L296.767 164.528C296.151 165.144 295.381 165.452 294.457 165.452ZM292.511 161.14H296.179C296.17 160.402 295.993 159.87 295.647 159.544C295.311 159.208 294.915 159.04 294.457 159.04C293.907 159.04 293.454 159.217 293.099 159.572C292.745 159.917 292.549 160.44 292.511 161.14ZM237.982 179.284V169.736L239.2 169.176V172.872C239.639 172.265 240.255 171.962 241.048 171.962C241.888 171.962 242.523 172.218 242.952 172.732C243.391 173.236 243.61 174.048 243.61 175.168V179.284H242.392V174.958C242.392 174.314 242.252 173.842 241.972 173.544C241.702 173.236 241.328 173.082 240.852 173.082C239.751 173.082 239.2 173.698 239.2 174.93V179.284H237.982ZM248.629 179.452C247.659 179.452 246.884 179.106 246.305 178.416C245.736 177.716 245.451 176.81 245.451 175.7C245.451 174.533 245.741 173.618 246.319 172.956C246.898 172.293 247.668 171.962 248.629 171.962C249.488 171.962 250.193 172.251 250.743 172.83C251.303 173.399 251.583 174.244 251.583 175.364C251.583 175.625 251.569 175.896 251.541 176.176H246.697C246.744 176.829 246.945 177.356 247.299 177.758C247.663 178.15 248.116 178.346 248.657 178.346C249.255 178.346 249.768 178.131 250.197 177.702L250.939 178.528C250.323 179.144 249.553 179.452 248.629 179.452ZM246.683 175.14H250.351C250.342 174.402 250.165 173.87 249.819 173.544C249.483 173.208 249.087 173.04 248.629 173.04C248.079 173.04 247.626 173.217 247.271 173.572C246.917 173.917 246.721 174.44 246.683 175.14ZM257.506 179.284V178.626C256.918 179.176 256.242 179.452 255.476 179.452C254.72 179.452 254.114 179.246 253.656 178.836C253.208 178.416 252.984 177.818 252.984 177.044C252.984 176.269 253.241 175.681 253.754 175.28C254.268 174.878 254.902 174.678 255.658 174.678C256.349 174.678 256.965 174.832 257.506 175.14V174.636C257.506 174.038 257.371 173.623 257.1 173.39C256.839 173.147 256.456 173.026 255.952 173.026C255.234 173.026 254.538 173.264 253.866 173.74L253.516 172.718C254.282 172.214 255.145 171.962 256.106 171.962C257.805 171.962 258.654 172.82 258.654 174.538V179.284H257.506ZM255.658 178.374C256.358 178.374 256.974 178.061 257.506 177.436V176.204C256.993 175.886 256.433 175.728 255.826 175.728C255.332 175.728 254.926 175.84 254.608 176.064C254.291 176.288 254.132 176.614 254.132 177.044C254.132 177.445 254.263 177.767 254.524 178.01C254.795 178.252 255.173 178.374 255.658 178.374ZM260.844 179.284V169.75L262.062 169.176V179.284H260.844ZM266.37 179.452C265.362 179.452 264.858 178.882 264.858 177.744V173.194H263.696V172.13H264.858V169.764L266.076 169.176V172.13H267.84V173.194H266.076V177.338C266.076 177.655 266.127 177.898 266.23 178.066C266.332 178.234 266.528 178.318 266.818 178.318C267.135 178.318 267.49 178.192 267.882 177.94L267.742 179.13C267.331 179.344 266.874 179.452 266.37 179.452ZM269.674 179.284V169.736L270.892 169.176V172.872C271.331 172.265 271.947 171.962 272.74 171.962C273.58 171.962 274.215 172.218 274.644 172.732C275.083 173.236 275.302 174.048 275.302 175.168V179.284H274.084V174.958C274.084 174.314 273.944 173.842 273.664 173.544C273.393 173.236 273.02 173.082 272.544 173.082C271.443 173.082 270.892 173.698 270.892 174.93V179.284H269.674ZM278.211 182L279.303 179.102L276.657 172.13H277.875L279.653 177.002C279.719 177.16 279.793 177.389 279.877 177.688C279.961 177.389 280.036 177.16 280.101 177.002L281.907 172.13H283.153L279.443 182H278.211ZM289.28 179.284L287.446 172.13H288.65L289.742 176.932C289.752 176.988 289.775 177.104 289.812 177.282C289.85 177.459 289.878 177.594 289.896 177.688C289.915 177.557 289.976 177.305 290.078 176.932L291.422 172.13H292.43L293.774 176.932L293.97 177.716C293.989 177.632 294.012 177.501 294.04 177.324C294.078 177.146 294.106 177.016 294.124 176.932L295.202 172.13H296.406L294.572 179.284H293.48L292.178 175.042C292.048 174.622 291.959 174.309 291.912 174.104C291.819 174.496 291.735 174.808 291.66 175.042L290.372 179.284H289.28ZM302.049 179.284V178.626C301.461 179.176 300.785 179.452 300.019 179.452C299.263 179.452 298.657 179.246 298.199 178.836C297.751 178.416 297.527 177.818 297.527 177.044C297.527 176.269 297.784 175.681 298.297 175.28C298.811 174.878 299.445 174.678 300.201 174.678C300.892 174.678 301.508 174.832 302.049 175.14V174.636C302.049 174.038 301.914 173.623 301.643 173.39C301.382 173.147 300.999 173.026 300.495 173.026C299.777 173.026 299.081 173.264 298.409 173.74L298.059 172.718C298.825 172.214 299.688 171.962 300.649 171.962C302.348 171.962 303.197 172.82 303.197 174.538V179.284H302.049ZM300.201 178.374C300.901 178.374 301.517 178.061 302.049 177.436V176.204C301.536 175.886 300.976 175.728 300.369 175.728C299.875 175.728 299.469 175.84 299.151 176.064C298.834 176.288 298.675 176.614 298.675 177.044C298.675 177.445 298.806 177.767 299.067 178.01C299.338 178.252 299.716 178.374 300.201 178.374ZM305.965 182L307.057 179.102L304.411 172.13H305.629L307.407 177.002C307.473 177.16 307.547 177.389 307.631 177.688C307.715 177.389 307.79 177.16 307.855 177.002L309.661 172.13H310.907L307.197 182H305.965Z" fill="#7F9BBD"/>
</g>
<defs>
<clipPath id="clip0">
<rect width="500" height="250" fill="white"/>
</clipPath>
</defs>
</svg>
