<?xml version="1.0" encoding="UTF-8" standalone="no"?>
<!DOCTYPE svg PUBLIC "-//W3C//DTD SVG 1.1//EN" "http://www.w3.org/Graphics/SVG/1.1/DTD/svg11.dtd">
<svg width="100%" height="100%" viewBox="0 0 415 94" version="1.1" xmlns="http://www.w3.org/2000/svg" xmlns:xlink="http://www.w3.org/1999/xlink" xml:space="preserve" xmlns:serif="http://www.serif.com/" style="fill-rule:evenodd;clip-rule:evenodd;stroke-linejoin:round;stroke-miterlimit:2;">
    <g transform="matrix(1,0,0,1,-508.838,-2344.54)">
        <g id="Artboard4" transform="matrix(0.877797,0,0,0.542275,1108.99,1095.19)">
            <rect x="-683.699" y="2303.9" width="472.608" height="172.831" style="fill:none;"/>
            <g id="blue-black-outlined" serif:id="blue black outlined" transform="matrix(10.3766,0,0,16.7969,-9110.39,-48378.9)">
                <g transform="matrix(12,0,0,12,824.374,3027.38)">
                    <path d="M0.215,-0.621L0.197,-0.4L0.483,-0.4C0.498,-0.4 0.509,-0.397 0.517,-0.39C0.524,-0.383 0.528,-0.373 0.528,-0.361C0.528,-0.331 0.511,-0.316 0.478,-0.316L0.191,-0.316L0.169,-0.045C0.168,-0.03 0.162,-0.018 0.153,-0.009C0.143,0 0.13,0.005 0.115,0.005C0.1,0.005 0.087,0 0.079,-0.009C0.07,-0.018 0.065,-0.031 0.066,-0.047L0.115,-0.656C0.116,-0.672 0.121,-0.684 0.13,-0.693C0.139,-0.701 0.152,-0.705 0.168,-0.705L0.527,-0.705C0.542,-0.705 0.553,-0.701 0.561,-0.694C0.568,-0.687 0.572,-0.677 0.572,-0.664C0.572,-0.635 0.555,-0.621 0.522,-0.621L0.215,-0.621Z" style="fill:rgb(0,3,21);fill-rule:nonzero;"/>
                </g>
                <g transform="matrix(12,0,0,12,831.586,3027.38)">
                    <path d="M0.101,0.005C0.086,0.005 0.075,0.001 0.066,-0.007C0.057,-0.015 0.053,-0.027 0.054,-0.043L0.087,-0.451C0.088,-0.466 0.093,-0.478 0.104,-0.486C0.115,-0.494 0.127,-0.498 0.141,-0.498C0.156,-0.498 0.167,-0.494 0.176,-0.486C0.185,-0.478 0.189,-0.466 0.188,-0.451L0.155,-0.043C0.154,-0.026 0.148,-0.014 0.138,-0.007C0.128,0.001 0.116,0.005 0.101,0.005ZM0.154,-0.59C0.135,-0.59 0.119,-0.595 0.108,-0.606C0.097,-0.617 0.091,-0.631 0.091,-0.648C0.091,-0.665 0.097,-0.679 0.108,-0.69C0.119,-0.7 0.135,-0.705 0.154,-0.705C0.173,-0.705 0.188,-0.7 0.2,-0.69C0.211,-0.679 0.217,-0.665 0.217,-0.648C0.217,-0.631 0.211,-0.617 0.2,-0.606C0.189,-0.595 0.173,-0.59 0.154,-0.59Z" style="fill:rgb(0,3,21);fill-rule:nonzero;"/>
                </g>
                <g transform="matrix(12,0,0,12,834.658,3027.38)">
                    <path d="M0.197,-0.181C0.196,-0.177 0.196,-0.171 0.196,-0.163C0.196,-0.133 0.203,-0.11 0.217,-0.095C0.23,-0.079 0.249,-0.071 0.274,-0.071C0.282,-0.071 0.29,-0.071 0.298,-0.073C0.306,-0.074 0.312,-0.074 0.317,-0.074C0.325,-0.074 0.331,-0.071 0.336,-0.065C0.341,-0.058 0.343,-0.049 0.343,-0.038C0.343,-0.021 0.337,-0.01 0.324,-0.003C0.311,0.004 0.288,0.007 0.255,0.007C0.204,0.007 0.165,-0.007 0.137,-0.035C0.109,-0.063 0.095,-0.102 0.095,-0.153C0.095,-0.164 0.095,-0.172 0.096,-0.178L0.114,-0.41L0.055,-0.41C0.042,-0.41 0.031,-0.413 0.024,-0.42C0.017,-0.427 0.013,-0.436 0.013,-0.448C0.013,-0.461 0.017,-0.47 0.025,-0.477C0.033,-0.485 0.045,-0.488 0.06,-0.488L0.12,-0.488L0.128,-0.592C0.129,-0.606 0.135,-0.617 0.145,-0.626C0.155,-0.635 0.167,-0.639 0.182,-0.639C0.197,-0.639 0.209,-0.635 0.218,-0.626C0.227,-0.617 0.23,-0.606 0.229,-0.591L0.221,-0.488L0.32,-0.488C0.333,-0.488 0.343,-0.485 0.35,-0.478C0.357,-0.471 0.361,-0.462 0.361,-0.451C0.361,-0.424 0.346,-0.41 0.315,-0.41L0.215,-0.41L0.197,-0.181Z" style="fill:rgb(0,3,21);fill-rule:nonzero;"/>
                </g>
                <g transform="matrix(12,0,0,12,838.894,3027.38)">
                    <path d="M0.277,0.007C0.23,0.007 0.188,-0.003 0.153,-0.022C0.118,-0.041 0.09,-0.069 0.071,-0.105C0.052,-0.14 0.042,-0.182 0.042,-0.229C0.042,-0.284 0.052,-0.331 0.073,-0.372C0.094,-0.413 0.123,-0.444 0.162,-0.467C0.201,-0.489 0.246,-0.5 0.298,-0.5C0.33,-0.5 0.36,-0.496 0.389,-0.487C0.417,-0.478 0.44,-0.467 0.458,-0.453C0.471,-0.444 0.477,-0.432 0.477,-0.416C0.477,-0.405 0.473,-0.395 0.467,-0.386C0.46,-0.377 0.451,-0.373 0.441,-0.373C0.435,-0.373 0.429,-0.375 0.422,-0.379C0.383,-0.406 0.342,-0.419 0.301,-0.419C0.252,-0.419 0.214,-0.402 0.187,-0.369C0.16,-0.336 0.147,-0.289 0.147,-0.229C0.147,-0.18 0.159,-0.142 0.183,-0.115C0.207,-0.088 0.241,-0.074 0.286,-0.074C0.308,-0.074 0.328,-0.077 0.346,-0.084C0.365,-0.09 0.383,-0.1 0.401,-0.113C0.409,-0.117 0.416,-0.119 0.422,-0.119C0.431,-0.119 0.439,-0.115 0.445,-0.108C0.451,-0.101 0.454,-0.092 0.454,-0.082C0.454,-0.066 0.448,-0.054 0.436,-0.046C0.417,-0.029 0.394,-0.016 0.366,-0.007C0.337,0.002 0.308,0.007 0.277,0.007Z" style="fill:rgb(0,3,21);fill-rule:nonzero;"/>
                </g>
                <g transform="matrix(12,0,0,12,844.69,3027.38)">
                    <path d="M0.277,0.007C0.23,0.007 0.188,-0.003 0.153,-0.022C0.118,-0.041 0.09,-0.069 0.071,-0.105C0.052,-0.141 0.042,-0.183 0.042,-0.23C0.042,-0.285 0.052,-0.332 0.073,-0.373C0.093,-0.414 0.122,-0.445 0.159,-0.467C0.196,-0.489 0.238,-0.5 0.287,-0.5C0.335,-0.5 0.377,-0.49 0.412,-0.47C0.447,-0.451 0.475,-0.423 0.494,-0.388C0.513,-0.352 0.523,-0.31 0.523,-0.262C0.523,-0.207 0.513,-0.16 0.493,-0.119C0.472,-0.079 0.444,-0.048 0.406,-0.026C0.37,-0.004 0.326,0.007 0.277,0.007ZM0.278,-0.073C0.324,-0.073 0.359,-0.09 0.384,-0.125C0.409,-0.16 0.421,-0.206 0.421,-0.265C0.421,-0.315 0.409,-0.353 0.387,-0.38C0.364,-0.406 0.331,-0.419 0.288,-0.419C0.241,-0.419 0.206,-0.402 0.181,-0.367C0.156,-0.332 0.144,-0.286 0.144,-0.227C0.144,-0.176 0.156,-0.138 0.179,-0.112C0.202,-0.086 0.235,-0.073 0.278,-0.073Z" style="fill:rgb(0,3,21);fill-rule:nonzero;"/>
                </g>
                <g transform="matrix(12,0,0,12,851.458,3027.38)">
                    <path d="M0.35,-0.498C0.363,-0.499 0.373,-0.497 0.381,-0.49C0.388,-0.483 0.392,-0.474 0.392,-0.461C0.392,-0.43 0.375,-0.414 0.342,-0.411L0.315,-0.408C0.269,-0.403 0.235,-0.39 0.213,-0.368C0.19,-0.346 0.177,-0.314 0.174,-0.271L0.155,-0.043C0.154,-0.026 0.148,-0.014 0.138,-0.007C0.128,0.001 0.116,0.005 0.101,0.005C0.086,0.005 0.075,0.001 0.066,-0.007C0.057,-0.015 0.053,-0.027 0.054,-0.043L0.087,-0.452C0.088,-0.467 0.093,-0.478 0.104,-0.486C0.115,-0.494 0.127,-0.498 0.141,-0.498C0.154,-0.498 0.165,-0.494 0.173,-0.487C0.181,-0.479 0.185,-0.468 0.184,-0.453L0.181,-0.412C0.214,-0.463 0.267,-0.492 0.339,-0.497L0.35,-0.498Z" style="fill:rgb(0,3,21);fill-rule:nonzero;"/>
                </g>
            </g>
            <g transform="matrix(1.75648,0,-0.167188,2.84327,-3858.39,-4444.19)">
                <g transform="matrix(-1.87506,2.19472,1.92782,1.64704,-1748.28,-2129.56)">
                    <path d="M342.817,2300.88C342.817,2300.88 342.817,2300.88 342.817,2300.88C340.735,2304.58 336.617,2305.8 333.299,2303.72C333.123,2303.6 332.945,2303.49 332.768,2303.38C331.083,2302.32 329.052,2302.38 327.416,2303.54C325.78,2304.7 324.779,2306.79 324.779,2309.05C324.779,2309.07 324.779,2309.1 324.779,2309.12C324.779,2312.67 327.213,2315.55 330.215,2315.55C333.27,2315.55 336.979,2315.55 339.579,2315.55C340.438,2315.55 341.262,2315.14 341.869,2314.42C342.476,2313.71 342.817,2312.73 342.817,2311.72C342.817,2307.37 342.817,2300.88 342.817,2300.88Z" style="fill:rgb(255,100,141);"/>
                </g>
                <g transform="matrix(1.62263,1.38629,-1.33549,1.56316,1958.11,-4023.41)">
                    <path d="M2005.18,2351.84C2004.56,2352.41 2003.75,2352.72 2002.91,2352.72C1999.27,2352.72 1993.37,2352.72 1988.6,2352.72C1984.38,2352.72 1980.96,2349.3 1980.96,2345.09C1980.96,2344.85 1980.96,2344.62 1980.96,2344.39C1980.96,2341.84 1982.3,2339.47 1984.49,2338.16C1986.67,2336.85 1989.39,2336.78 1991.64,2337.98C1991.64,2337.98 1991.64,2337.98 1991.64,2337.98C1991.94,2338.14 1992.24,2338.28 1992.54,2338.4C1992.57,2338.46 1992.6,2338.52 1992.63,2338.58C1992.76,2338.83 1992.9,2339.08 1993.03,2339.33C1995.51,2343.98 1994.05,2349.77 1989.65,2352.69C1989.65,2352.69 1989.65,2352.69 1989.65,2352.69C1989.65,2352.69 1997.37,2352.69 2002.54,2352.69C2003.49,2352.69 2004.41,2352.39 2005.18,2351.84Z" style="fill:rgb(255,61,113);"/>
                </g>
            </g>
            <g transform="matrix(-3.66044,6.24018,3.11083,4.68299,-6573.19,-10499.1)">
                <path d="M342.817,2300.88C342.817,2300.88 342.817,2300.88 342.817,2300.88C340.735,2304.58 336.617,2305.8 333.299,2303.72C333.123,2303.6 332.945,2303.49 332.768,2303.38C331.083,2302.32 329.052,2302.38 327.416,2303.54C325.78,2304.7 324.779,2306.79 324.779,2309.05C324.779,2309.07 324.779,2309.1 324.779,2309.12C324.779,2312.67 327.213,2315.55 330.215,2315.55C333.27,2315.55 336.979,2315.55 339.579,2315.55C340.438,2315.55 341.262,2315.14 341.869,2314.42C342.476,2313.71 342.817,2312.73 342.817,2311.72C342.817,2307.37 342.817,2300.88 342.817,2300.88Z" style="fill:rgb(255,100,141);"/>
            </g>
            <g transform="matrix(2.61835,3.94161,-2.6071,4.44448,253.664,-15883.9)">
                <path d="M2005.18,2351.84C2004.56,2352.41 2003.75,2352.72 2002.91,2352.72C1999.27,2352.72 1993.37,2352.72 1988.6,2352.72C1984.38,2352.72 1980.96,2349.3 1980.96,2345.09C1980.96,2344.85 1980.96,2344.62 1980.96,2344.39C1980.96,2341.84 1982.3,2339.47 1984.49,2338.16C1986.67,2336.85 1989.39,2336.78 1991.64,2337.98C1991.64,2337.98 1991.64,2337.98 1991.64,2337.98C1991.94,2338.14 1992.24,2338.28 1992.54,2338.4C1992.57,2338.46 1992.6,2338.52 1992.63,2338.58C1992.76,2338.83 1992.9,2339.08 1993.03,2339.33C1995.51,2343.98 1994.05,2349.77 1989.65,2352.69C1989.65,2352.69 1989.65,2352.69 1989.65,2352.69C1989.65,2352.69 1997.37,2352.69 2002.54,2352.69C2003.49,2352.69 2004.41,2352.39 2005.18,2351.84Z" style="fill:rgb(255,61,113);"/>
            </g>
            <g transform="matrix(2.04181,0,-0.194346,3.30513,-4374.63,-5567.13)">
                <g opacity="0">
                    <g transform="matrix(-1.87506,2.19472,1.92782,1.64704,-1748.28,-2129.56)">
                        <path d="M342.817,2300.88C342.817,2300.88 342.817,2300.88 342.817,2300.88C340.735,2304.58 336.617,2305.8 333.299,2303.72C333.123,2303.6 332.945,2303.49 332.768,2303.38C331.083,2302.32 329.052,2302.38 327.416,2303.54C325.78,2304.7 324.779,2306.79 324.779,2309.05C324.779,2309.07 324.779,2309.1 324.779,2309.12C324.779,2312.67 327.213,2315.55 330.215,2315.55C333.27,2315.55 336.979,2315.55 339.579,2315.55C340.438,2315.55 341.262,2315.14 341.869,2314.42C342.476,2313.71 342.817,2312.73 342.817,2311.72C342.817,2307.37 342.817,2300.88 342.817,2300.88Z" style="fill:rgb(255,100,141);"/>
                    </g>
                    <g transform="matrix(1.62263,1.38629,-1.33549,1.56316,1958.11,-4023.41)">
                        <path d="M2005.18,2351.84C2004.56,2352.41 2003.75,2352.72 2002.91,2352.72C1999.27,2352.72 1993.37,2352.72 1988.6,2352.72C1984.38,2352.72 1980.96,2349.3 1980.96,2345.09C1980.96,2344.85 1980.96,2344.62 1980.96,2344.39C1980.96,2341.84 1982.3,2339.47 1984.49,2338.16C1986.67,2336.85 1989.39,2336.78 1991.64,2337.98C1991.64,2337.98 1991.64,2337.98 1991.64,2337.98C1991.94,2338.14 1992.24,2338.28 1992.54,2338.4C1992.57,2338.46 1992.6,2338.52 1992.63,2338.58C1992.76,2338.83 1992.9,2339.08 1993.03,2339.33C1995.51,2343.98 1994.05,2349.77 1989.65,2352.69C1989.65,2352.69 1989.65,2352.69 1989.65,2352.69C1989.65,2352.69 1997.37,2352.69 2002.54,2352.69C2003.49,2352.69 2004.41,2352.39 2005.18,2351.84Z" style="fill:rgb(255,61,113);"/>
                    </g>
                </g>
            </g>
        </g>
        <g id="blue-black-outlined1" serif:id="blue black outlined">
        </g>
    </g>
</svg>
