<svg width="460" height="310" viewBox="0 0 460 310" fill="none" xmlns="http://www.w3.org/2000/svg">
<path d="M74.2266 23.1825H112.993V23.1825C112.993 23.9754 112.351 24.6183 111.558 24.6183H75.6624C74.8694 24.6183 74.2266 23.9754 74.2266 23.1825V23.1825Z" fill="#B4B6BD"/>
<path opacity="0.4" d="M161.811 250.041V307.473H363.063C367.956 307.473 372.639 305.481 376.032 301.956L426 250.041H161.811Z" fill="#D4DEE9"/>
<rect x="1" y="3.08109" width="179.476" height="304.392" rx="11" fill="#6279F3"/>
<rect x="6.74316" y="3.08109" width="173.733" height="298.649" rx="12" fill="#7388F5"/>
<rect x="16.3574" y="39.9763" width="408.642" height="211.936" rx="2" fill="white" stroke="#96A6F7" stroke-width="2"/>
<rect x="72.79" y="18.875" width="41.6385" height="5.74325" rx="2.87162" fill="#C2CCFF"/>
<rect x="79.9697" y="262.963" width="27.2804" height="27.2804" rx="13.6402" fill="#D5D7DE"/>
<rect x="78.5342" y="261.527" width="30.152" height="30.152" rx="15.076" fill="#8597F6"/>
<rect x="79.9697" y="262.963" width="27.2804" height="27.2804" rx="13.6402" fill="#B3BFFF"/>
<path opacity="0.2" d="M270.934 40.4122H146.018L22.5381 251.477H162.53L270.934 40.4122Z" fill="#DCE1FC"/>
<rect opacity="0.6" x="40.2686" y="83.9867" width="109.557" height="86.5845" rx="3.5" fill="#D4DEE9" stroke="#698BB2"/>
<path d="M125.052 151.06C118.64 154.842 111.419 156.244 105.783 156.697C102.968 156.923 100.556 156.912 98.8489 156.844C97.9958 156.81 97.3197 156.762 96.8582 156.722C96.8409 156.721 96.824 156.719 96.8073 156.718C96.8129 156.703 96.8186 156.689 96.8245 156.674C96.9804 156.27 97.2183 155.683 97.5446 154.954C98.1973 153.495 99.2028 151.468 100.611 149.203C103.431 144.669 107.85 139.208 114.263 135.427C120.675 131.645 127.896 130.243 133.532 129.79C136.348 129.564 138.76 129.576 140.466 129.643C141.319 129.677 141.996 129.725 142.457 129.765C142.474 129.766 142.491 129.768 142.508 129.769C142.502 129.784 142.497 129.798 142.491 129.814C142.335 130.217 142.097 130.804 141.771 131.533C141.118 132.993 140.112 135.019 138.704 137.284C135.884 141.818 131.465 147.279 125.052 151.06Z" fill="#768CFF" stroke="#E5EBF2"/>
<path d="M65.0405 151.06C71.453 154.842 78.6734 156.244 84.3099 156.697C87.1251 156.923 89.5373 156.912 91.2438 156.844C92.0969 156.81 92.7731 156.762 93.2346 156.722C93.2518 156.721 93.2688 156.719 93.2854 156.718C93.2798 156.703 93.2741 156.689 93.2683 156.674C93.1124 156.27 92.8744 155.683 92.5482 154.954C91.8954 153.495 90.89 151.468 89.4815 149.203C86.6617 144.669 82.2423 139.208 75.8298 135.427C69.4174 131.645 62.1969 130.243 56.5605 129.79C53.7452 129.564 51.3331 129.576 49.6265 129.643C48.7735 129.677 48.0973 129.725 47.6358 129.765C47.6186 129.766 47.6016 129.768 47.5849 129.769C47.5905 129.784 47.5963 129.798 47.6021 129.814C47.758 130.217 47.9959 130.804 48.3222 131.533C48.975 132.993 49.9804 135.019 51.3889 137.284C54.2087 141.818 58.6281 147.279 65.0405 151.06Z" fill="#768CFF" stroke="#E5EBF2"/>
<path d="M121.484 139.251C117.683 145.834 111.91 150.469 107.064 153.463C104.644 154.958 102.463 156.039 100.888 156.746C100.101 157.1 99.4659 157.359 99.0291 157.53C98.9891 157.546 98.9508 157.561 98.9142 157.575C98.9081 157.536 98.9019 157.495 98.8954 157.453C98.8249 156.989 98.7322 156.309 98.6447 155.451C98.4696 153.734 98.3156 151.304 98.4005 148.461C98.5705 142.767 99.6976 135.45 103.498 128.867C107.299 122.283 113.073 117.649 117.919 114.655C120.339 113.159 122.52 112.078 124.094 111.371C124.881 111.017 125.516 110.758 125.953 110.587C125.993 110.572 126.032 110.557 126.068 110.542C126.074 110.581 126.081 110.622 126.087 110.664C126.158 111.128 126.25 111.808 126.338 112.666C126.513 114.383 126.667 116.813 126.582 119.656C126.412 125.35 125.285 132.668 121.484 139.251Z" fill="#768CFF" stroke="#E5EBF2"/>
<path d="M68.6096 139.251C72.4103 145.834 78.1842 150.469 83.0299 153.463C85.45 154.958 87.6311 156.039 89.2057 156.746C89.9928 157.1 90.6278 157.359 91.0647 157.53C91.1046 157.546 91.1429 157.561 91.1796 157.575C91.1856 157.536 91.1919 157.495 91.1983 157.453C91.2689 156.989 91.3616 156.309 91.4491 155.451C91.6241 153.734 91.7782 151.304 91.6932 148.461C91.5232 142.767 90.3962 135.45 86.5955 128.867C82.7947 122.283 77.0209 117.649 72.1752 114.655C69.7551 113.159 67.574 112.078 65.9994 111.371C65.2123 111.017 64.5773 110.758 64.1404 110.587C64.1004 110.572 64.0621 110.557 64.0255 110.542C64.0194 110.581 64.0132 110.622 64.0067 110.664C63.9362 111.128 63.8435 111.808 63.756 112.666C63.581 114.383 63.4269 116.813 63.5118 119.656C63.6819 125.35 64.8089 132.668 68.6096 139.251Z" fill="#768CFF" stroke="#E5EBF2"/>
<path d="M107.222 128.111C107.222 136.345 104.066 143.822 100.888 149.26C99.3009 151.975 97.7138 154.172 96.5244 155.69C95.9298 156.448 95.435 157.036 95.0898 157.434C95.0272 157.506 94.9696 157.572 94.9171 157.631C94.8647 157.572 94.807 157.506 94.7444 157.434C94.3993 157.036 93.9045 156.448 93.3099 155.69C92.1204 154.172 90.5333 151.975 88.9464 149.26C85.7685 143.822 82.6123 136.345 82.6123 128.111C82.6123 119.876 85.7685 112.399 88.9464 106.962C90.5333 104.246 92.1204 102.049 93.3099 100.532C93.9045 99.773 94.3993 99.1849 94.7444 98.7874C94.807 98.7153 94.8647 98.6495 94.9171 98.5901C94.9696 98.6495 95.0272 98.7153 95.0898 98.7874C95.435 99.1849 95.9298 99.773 96.5244 100.532C97.7138 102.049 99.3009 104.246 100.888 106.962C104.066 112.399 107.222 119.876 107.222 128.111Z" fill="#768CFF" stroke="#E5EBF2"/>
<circle opacity="0.4" cx="95.7649" cy="127.997" r="17.2297" fill="#1A1B1D"/>
<path opacity="0.7" d="M104.379 127.279L92.5335 135.361L92.5335 119.196L104.379 127.279Z" fill="#A4A4A4"/>
<rect opacity="0.6" x="163.747" y="83.9865" width="106.686" height="86.5845" rx="3.5" fill="#D4DEE9" stroke="#698BB2"/>
<path d="M241.639 129.967C241.639 114.918 230.964 102.717 217.795 102.717C204.627 102.717 193.952 114.918 193.952 129.967" stroke="#FF779C" stroke-width="3"/>
<path d="M200.424 138.047C200.424 143.538 202.027 150.97 194.871 150.97C187.714 150.97 181.912 145.184 181.912 138.047C181.912 130.911 187.714 125.125 194.871 125.125C202.027 125.125 200.424 132.557 200.424 138.047Z" fill="#FF779C"/>
<path d="M235.19 138.047C235.19 143.538 233.587 150.97 240.744 150.97C247.9 150.97 253.702 145.184 253.702 138.047C253.702 130.911 247.9 125.125 240.744 125.125C233.587 125.125 235.19 132.557 235.19 138.047Z" fill="#FF779C"/>
<rect opacity="0.6" x="284.354" y="83.9865" width="109.557" height="86.5845" rx="3.5" fill="#D4DEE9" stroke="#698BB2"/>
<path d="M339.853 107.895L372.146 105.204C373.312 105.107 374.312 106.027 374.312 107.197V152.076C374.312 153.084 373.561 153.935 372.56 154.06L339.853 158.149V107.895Z" fill="#EDC90E"/>
<path d="M339.853 107.895L307.559 105.204C306.393 105.107 305.393 106.027 305.393 107.197V152.076C305.393 153.084 306.144 153.935 307.145 154.06L339.853 158.149V107.895Z" fill="#EDC90E"/>
<path d="M339.853 107.736L369.269 105.21C370.437 105.11 371.44 106.031 371.44 107.203V149.375C371.44 150.379 370.696 151.227 369.701 151.358L339.853 155.277V107.736Z" fill="#F8E99F"/>
<path d="M339.853 107.736L310.436 105.21C309.268 105.11 308.265 106.031 308.265 107.203V149.375C308.265 150.379 309.009 151.227 310.004 151.358L339.853 155.277V107.736Z" fill="#F8E99F"/>
<rect width="2.87162" height="47.3818" transform="matrix(-1 0 0 1 341.287 107.895)" fill="#EDC90E"/>
<rect x="313.27" y="117.62" width="20.9793" height="1.43581" rx="0.717906" transform="rotate(4.99426 313.27 117.62)" fill="#EDC90E"/>
<rect x="313.269" y="125.125" width="20.9793" height="1.43581" rx="0.717906" transform="rotate(4.99426 313.269 125.125)" fill="#EDC90E"/>
<rect x="313.269" y="132.63" width="20.9793" height="1.43581" rx="0.717906" transform="rotate(4.99426 313.269 132.63)" fill="#EDC90E"/>
<rect width="20.9793" height="1.43581" rx="0.717906" transform="matrix(-0.996203 0.087056 0.087056 0.996203 366.495 117.946)" fill="#EDC90E"/>
<rect width="20.9793" height="1.43581" rx="0.717906" transform="matrix(-0.996203 0.087056 0.087056 0.996203 366.495 125.452)" fill="#EDC90E"/>
<rect width="20.9793" height="1.43581" rx="0.717906" transform="matrix(-0.996203 0.087056 0.087056 0.996203 366.495 132.957)" fill="#EDC90E"/>
<path d="M64.7063 191.937H68.1783C69.2516 191.937 70.0263 192.184 70.5023 192.679C70.9876 193.173 71.2303 193.789 71.2303 194.527C71.2303 194.975 71.1043 195.381 70.8523 195.745C70.6003 196.099 70.2456 196.375 69.7883 196.571C70.3576 196.748 70.7963 197.047 71.1043 197.467C71.4216 197.877 71.5803 198.363 71.5803 198.923C71.5803 199.277 71.5243 199.613 71.4123 199.931C71.3003 200.248 71.1276 200.547 70.8943 200.827C70.6609 201.107 70.3296 201.331 69.9003 201.499C69.4709 201.657 68.9716 201.737 68.4023 201.737H64.7063V191.937ZM67.9403 196.095C68.6216 196.095 69.1396 195.959 69.4943 195.689C69.8489 195.409 70.0263 195.026 70.0263 194.541C70.0263 193.542 69.4336 193.043 68.2483 193.043H65.9243V196.095H67.9403ZM68.5423 200.617C69.2049 200.617 69.6763 200.463 69.9563 200.155C70.2363 199.847 70.3763 199.464 70.3763 199.007C70.3763 197.803 69.6156 197.201 68.0943 197.201H65.9243V200.617H68.5423ZM73.6838 201.737V194.583H74.9018V195.521C75.2378 194.783 75.8024 194.415 76.5958 194.415C77.0438 194.415 77.4124 194.536 77.7018 194.779L77.5198 195.927C77.2211 195.721 76.8804 195.619 76.4978 195.619C76.0778 195.619 75.7044 195.782 75.3778 196.109C75.0604 196.435 74.9018 196.967 74.9018 197.705V201.737H73.6838ZM81.8832 201.905C80.9125 201.905 80.1379 201.559 79.5592 200.869C78.9899 200.169 78.7052 199.263 78.7052 198.153C78.7052 196.986 78.9945 196.071 79.5732 195.409C80.1519 194.746 80.9219 194.415 81.8832 194.415C82.7419 194.415 83.4465 194.704 83.9972 195.283C84.5572 195.852 84.8372 196.697 84.8372 197.817C84.8372 198.078 84.8232 198.349 84.7952 198.629H79.9512C79.9979 199.282 80.1985 199.809 80.5532 200.211C80.9172 200.603 81.3699 200.799 81.9112 200.799C82.5085 200.799 83.0219 200.584 83.4512 200.155L84.1932 200.981C83.5772 201.597 82.8072 201.905 81.8832 201.905ZM79.9372 197.593H83.6052C83.5959 196.855 83.4185 196.323 83.0732 195.997C82.7372 195.661 82.3405 195.493 81.8832 195.493C81.3325 195.493 80.8799 195.67 80.5252 196.025C80.1705 196.37 79.9745 196.893 79.9372 197.593ZM90.7604 201.737V201.079C90.1724 201.629 89.4957 201.905 88.7304 201.905C87.9744 201.905 87.3677 201.699 86.9104 201.289C86.4624 200.869 86.2384 200.271 86.2384 199.497C86.2384 198.722 86.4951 198.134 87.0084 197.733C87.5217 197.331 88.1564 197.131 88.9124 197.131C89.6031 197.131 90.2191 197.285 90.7604 197.593V197.089C90.7604 196.491 90.6251 196.076 90.3544 195.843C90.0931 195.6 89.7104 195.479 89.2064 195.479C88.4877 195.479 87.7924 195.717 87.1204 196.193L86.7704 195.171C87.5357 194.667 88.3991 194.415 89.3604 194.415C91.0591 194.415 91.9084 195.273 91.9084 196.991V201.737H90.7604ZM88.9124 200.827C89.6124 200.827 90.2284 200.514 90.7604 199.889V198.657C90.2471 198.339 89.6871 198.181 89.0804 198.181C88.5857 198.181 88.1797 198.293 87.8624 198.517C87.5451 198.741 87.3864 199.067 87.3864 199.497C87.3864 199.898 87.5171 200.22 87.7784 200.463C88.0491 200.705 88.4271 200.827 88.9124 200.827ZM95.9595 201.905C94.9515 201.905 94.4475 201.335 94.4475 200.197V195.647H93.2855V194.583H94.4475V192.217L95.6655 191.629V194.583H97.4295V195.647H95.6655V199.791C95.6655 200.108 95.7169 200.351 95.8195 200.519C95.9222 200.687 96.1182 200.771 96.4075 200.771C96.7249 200.771 97.0795 200.645 97.4715 200.393L97.3315 201.583C96.9209 201.797 96.4635 201.905 95.9595 201.905ZM99.2639 201.737V192.189L100.482 191.629V195.325C100.921 194.718 101.537 194.415 102.33 194.415C103.17 194.415 103.805 194.671 104.234 195.185C104.673 195.689 104.892 196.501 104.892 197.621V201.737H103.674V197.411C103.674 196.767 103.534 196.295 103.254 195.997C102.983 195.689 102.61 195.535 102.134 195.535C101.033 195.535 100.482 196.151 100.482 197.383V201.737H99.2639ZM108.315 193.071C108.165 193.211 107.983 193.281 107.769 193.281C107.554 193.281 107.372 193.206 107.223 193.057C107.083 192.907 107.013 192.73 107.013 192.525C107.013 192.31 107.087 192.128 107.237 191.979C107.386 191.82 107.563 191.741 107.769 191.741C107.983 191.741 108.165 191.82 108.315 191.979C108.464 192.128 108.539 192.31 108.539 192.525C108.539 192.739 108.464 192.921 108.315 193.071ZM107.167 201.737V194.583H108.385V201.737H107.167ZM115.117 201.737V197.411C115.117 196.767 114.977 196.295 114.697 195.997C114.427 195.689 114.053 195.535 113.577 195.535C112.476 195.535 111.925 196.151 111.925 197.383V201.737H110.707V194.583H111.925V195.311C112.364 194.713 112.98 194.415 113.773 194.415C114.613 194.415 115.248 194.671 115.677 195.185C116.116 195.689 116.335 196.501 116.335 197.621V201.737H115.117ZM120.794 204.635L120.206 203.683C121.242 203.627 121.956 203.445 122.348 203.137C122.749 202.838 122.95 202.427 122.95 201.905V201.037C122.53 201.615 121.914 201.905 121.102 201.905C120.262 201.905 119.562 201.578 119.002 200.925C118.451 200.271 118.176 199.347 118.176 198.153C118.176 196.995 118.447 196.085 118.988 195.423C119.539 194.751 120.257 194.415 121.144 194.415C121.891 194.415 122.493 194.667 122.95 195.171V194.583H124.168V201.443C124.168 202.535 123.874 203.323 123.286 203.809C122.707 204.294 121.877 204.569 120.794 204.635ZM121.354 200.771C121.653 200.771 121.947 200.682 122.236 200.505C122.535 200.318 122.773 200.071 122.95 199.763V196.487C122.782 196.207 122.544 195.978 122.236 195.801C121.928 195.623 121.634 195.535 121.354 195.535C120.719 195.535 120.234 195.763 119.898 196.221C119.571 196.669 119.408 197.313 119.408 198.153C119.408 198.965 119.585 199.604 119.94 200.071C120.304 200.537 120.775 200.771 121.354 200.771ZM72.3744 215.905C71.4037 215.905 70.6291 215.559 70.0504 214.869C69.4811 214.169 69.1964 213.263 69.1964 212.153C69.1964 210.986 69.4857 210.071 70.0644 209.409C70.6431 208.746 71.4131 208.415 72.3744 208.415C73.2331 208.415 73.9377 208.704 74.4884 209.283C75.0484 209.852 75.3284 210.697 75.3284 211.817C75.3284 212.078 75.3144 212.349 75.2864 212.629H70.4424C70.4891 213.282 70.6897 213.809 71.0444 214.211C71.4084 214.603 71.8611 214.799 72.4024 214.799C72.9997 214.799 73.5131 214.584 73.9424 214.155L74.6844 214.981C74.0684 215.597 73.2984 215.905 72.3744 215.905ZM70.4284 211.593H74.0964C74.0871 210.855 73.9097 210.323 73.5644 209.997C73.2284 209.661 72.8317 209.493 72.3744 209.493C71.8237 209.493 71.3711 209.67 71.0164 210.025C70.6617 210.37 70.4657 210.893 70.4284 211.593ZM76.0958 215.737L78.4898 212.013L76.2778 208.583H77.6358L78.7698 210.319C78.9844 210.664 79.1198 210.893 79.1758 211.005C79.3998 210.631 79.5398 210.403 79.5958 210.319L80.7158 208.583H82.0878L79.8618 212.013L82.2698 215.737H80.8978L79.5818 213.707C79.4791 213.548 79.3438 213.319 79.1758 213.021C79.0918 213.189 78.9564 213.417 78.7698 213.707L77.4538 215.737H76.0958ZM86.4974 215.905C85.5268 215.905 84.7521 215.559 84.1734 214.869C83.6041 214.169 83.3194 213.263 83.3194 212.153C83.3194 210.986 83.6088 210.071 84.1874 209.409C84.7661 208.746 85.5361 208.415 86.4974 208.415C87.3561 208.415 88.0608 208.704 88.6114 209.283C89.1714 209.852 89.4514 210.697 89.4514 211.817C89.4514 212.078 89.4374 212.349 89.4094 212.629H84.5654C84.6121 213.282 84.8128 213.809 85.1674 214.211C85.5314 214.603 85.9841 214.799 86.5254 214.799C87.1228 214.799 87.6361 214.584 88.0654 214.155L88.8074 214.981C88.1914 215.597 87.4214 215.905 86.4974 215.905ZM84.5514 211.593H88.2194C88.2101 210.855 88.0328 210.323 87.6874 209.997C87.3514 209.661 86.9548 209.493 86.4974 209.493C85.9468 209.493 85.4941 209.67 85.1394 210.025C84.7848 210.37 84.5888 210.893 84.5514 211.593ZM91.2726 215.737V208.583H92.4906V209.521C92.8266 208.783 93.3913 208.415 94.1846 208.415C94.6326 208.415 95.0013 208.536 95.2906 208.779L95.1086 209.927C94.81 209.721 94.4693 209.619 94.0866 209.619C93.6666 209.619 93.2933 209.782 92.9666 210.109C92.6493 210.435 92.4906 210.967 92.4906 211.705V215.737H91.2726ZM99.2621 215.905C98.3474 215.905 97.6241 215.578 97.0921 214.925C96.5601 214.262 96.2941 213.343 96.2941 212.167C96.2941 210.991 96.5601 210.071 97.0921 209.409C97.6334 208.746 98.3754 208.415 99.3181 208.415C100.587 208.415 101.423 208.97 101.824 210.081L100.676 210.501C100.433 209.866 99.9854 209.549 99.3321 209.549C98.7347 209.549 98.2867 209.777 97.9881 210.235C97.6894 210.692 97.5401 211.336 97.5401 212.167C97.5401 212.988 97.6894 213.627 97.9881 214.085C98.2867 214.533 98.7207 214.757 99.2901 214.757C100.037 214.757 100.522 214.402 100.746 213.693L101.88 214.071C101.703 214.659 101.385 215.111 100.928 215.429C100.48 215.746 99.9247 215.905 99.2621 215.905ZM104.876 207.071C104.727 207.211 104.545 207.281 104.33 207.281C104.115 207.281 103.933 207.206 103.784 207.057C103.644 206.907 103.574 206.73 103.574 206.525C103.574 206.31 103.649 206.128 103.798 205.979C103.947 205.82 104.125 205.741 104.33 205.741C104.545 205.741 104.727 205.82 104.876 205.979C105.025 206.128 105.1 206.31 105.1 206.525C105.1 206.739 105.025 206.921 104.876 207.071ZM103.728 215.737V208.583H104.946V215.737H103.728ZM109.383 215.905C108.869 215.905 108.379 215.797 107.913 215.583C107.455 215.359 107.082 215.065 106.793 214.701L107.661 213.959C108.193 214.528 108.776 214.813 109.411 214.813C109.812 214.813 110.134 214.738 110.377 214.589C110.619 214.43 110.741 214.201 110.741 213.903C110.741 213.679 110.652 213.478 110.475 213.301C110.297 213.114 110.115 212.979 109.929 212.895C109.742 212.801 109.467 212.685 109.103 212.545C108.375 212.274 107.824 211.971 107.451 211.635C107.077 211.299 106.891 210.855 106.891 210.305C106.891 209.726 107.115 209.269 107.563 208.933C108.02 208.587 108.599 208.415 109.299 208.415C110.297 208.415 111.1 208.774 111.707 209.493L110.867 210.193C110.428 209.735 109.901 209.507 109.285 209.507C108.921 209.507 108.631 209.577 108.417 209.717C108.202 209.857 108.095 210.053 108.095 210.305C108.095 210.445 108.127 210.575 108.193 210.697C108.267 210.809 108.393 210.916 108.571 211.019C108.757 211.121 108.902 211.201 109.005 211.257C109.117 211.303 109.317 211.383 109.607 211.495C110.363 211.765 110.937 212.073 111.329 212.419C111.73 212.764 111.931 213.249 111.931 213.875C111.931 214.509 111.702 215.009 111.245 215.373C110.787 215.727 110.167 215.905 109.383 215.905ZM116.589 215.905C115.619 215.905 114.844 215.559 114.265 214.869C113.696 214.169 113.411 213.263 113.411 212.153C113.411 210.986 113.701 210.071 114.279 209.409C114.858 208.746 115.628 208.415 116.589 208.415C117.448 208.415 118.153 208.704 118.703 209.283C119.263 209.852 119.543 210.697 119.543 211.817C119.543 212.078 119.529 212.349 119.501 212.629H114.657C114.704 213.282 114.905 213.809 115.259 214.211C115.623 214.603 116.076 214.799 116.617 214.799C117.215 214.799 117.728 214.584 118.157 214.155L118.899 214.981C118.283 215.597 117.513 215.905 116.589 215.905ZM114.643 211.593H118.311C118.302 210.855 118.125 210.323 117.779 209.997C117.443 209.661 117.047 209.493 116.589 209.493C116.039 209.493 115.586 209.67 115.231 210.025C114.877 210.37 114.681 210.893 114.643 211.593Z" fill="#7F9BBD"/>
<path d="M189.567 200.737V190.937H190.785V199.561H195.601V200.737H189.567ZM198.339 192.071C198.189 192.211 198.007 192.281 197.793 192.281C197.578 192.281 197.396 192.206 197.247 192.057C197.107 191.907 197.037 191.73 197.037 191.525C197.037 191.31 197.111 191.128 197.261 190.979C197.41 190.82 197.587 190.741 197.793 190.741C198.007 190.741 198.189 190.82 198.339 190.979C198.488 191.128 198.563 191.31 198.563 191.525C198.563 191.739 198.488 191.921 198.339 192.071ZM197.191 200.737V193.583H198.409V200.737H197.191ZM202.846 200.905C202.332 200.905 201.842 200.797 201.376 200.583C200.918 200.359 200.545 200.065 200.256 199.701L201.124 198.959C201.656 199.528 202.239 199.813 202.874 199.813C203.275 199.813 203.597 199.738 203.84 199.589C204.082 199.43 204.204 199.201 204.204 198.903C204.204 198.679 204.115 198.478 203.938 198.301C203.76 198.114 203.578 197.979 203.391 197.895C203.205 197.801 202.93 197.685 202.566 197.545C201.838 197.274 201.287 196.971 200.913 196.635C200.54 196.299 200.353 195.855 200.353 195.305C200.353 194.726 200.577 194.269 201.025 193.933C201.483 193.587 202.062 193.415 202.762 193.415C203.76 193.415 204.563 193.774 205.17 194.493L204.33 195.193C203.891 194.735 203.364 194.507 202.748 194.507C202.384 194.507 202.094 194.577 201.88 194.717C201.665 194.857 201.558 195.053 201.558 195.305C201.558 195.445 201.59 195.575 201.656 195.697C201.73 195.809 201.856 195.916 202.034 196.019C202.22 196.121 202.365 196.201 202.468 196.257C202.58 196.303 202.78 196.383 203.069 196.495C203.826 196.765 204.4 197.073 204.792 197.419C205.193 197.764 205.394 198.249 205.394 198.875C205.394 199.509 205.165 200.009 204.708 200.373C204.25 200.727 203.63 200.905 202.846 200.905ZM209.226 200.905C208.218 200.905 207.714 200.335 207.714 199.197V194.647H206.552V193.583H207.714V191.217L208.932 190.629V193.583H210.696V194.647H208.932V198.791C208.932 199.108 208.983 199.351 209.086 199.519C209.189 199.687 209.385 199.771 209.674 199.771C209.991 199.771 210.346 199.645 210.738 199.393L210.598 200.583C210.187 200.797 209.73 200.905 209.226 200.905ZM215.152 200.905C214.181 200.905 213.406 200.559 212.828 199.869C212.258 199.169 211.974 198.263 211.974 197.153C211.974 195.986 212.263 195.071 212.842 194.409C213.42 193.746 214.19 193.415 215.152 193.415C216.01 193.415 216.715 193.704 217.266 194.283C217.826 194.852 218.106 195.697 218.106 196.817C218.106 197.078 218.092 197.349 218.064 197.629H213.22C213.266 198.282 213.467 198.809 213.822 199.211C214.186 199.603 214.638 199.799 215.18 199.799C215.777 199.799 216.29 199.584 216.72 199.155L217.462 199.981C216.846 200.597 216.076 200.905 215.152 200.905ZM213.206 196.593H216.874C216.864 195.855 216.687 195.323 216.342 194.997C216.006 194.661 215.609 194.493 215.152 194.493C214.601 194.493 214.148 194.67 213.794 195.025C213.439 195.37 213.243 195.893 213.206 196.593ZM224.337 200.737V196.411C224.337 195.767 224.197 195.295 223.917 194.997C223.646 194.689 223.273 194.535 222.797 194.535C221.695 194.535 221.145 195.151 221.145 196.383V200.737H219.927V193.583H221.145V194.311C221.583 193.713 222.199 193.415 222.993 193.415C223.833 193.415 224.467 193.671 224.897 194.185C225.335 194.689 225.555 195.501 225.555 196.621V200.737H224.337ZM228.977 192.071C228.828 192.211 228.646 192.281 228.431 192.281C228.217 192.281 228.035 192.206 227.885 192.057C227.745 191.907 227.675 191.73 227.675 191.525C227.675 191.31 227.75 191.128 227.899 190.979C228.049 190.82 228.226 190.741 228.431 190.741C228.646 190.741 228.828 190.82 228.977 190.979C229.127 191.128 229.201 191.31 229.201 191.525C229.201 191.739 229.127 191.921 228.977 192.071ZM227.829 200.737V193.583H229.047V200.737H227.829ZM235.78 200.737V196.411C235.78 195.767 235.64 195.295 235.36 194.997C235.09 194.689 234.716 194.535 234.24 194.535C233.139 194.535 232.588 195.151 232.588 196.383V200.737H231.37V193.583H232.588V194.311C233.027 193.713 233.643 193.415 234.436 193.415C235.276 193.415 235.911 193.671 236.34 194.185C236.779 194.689 236.998 195.501 236.998 196.621V200.737H235.78ZM241.457 203.635L240.869 202.683C241.905 202.627 242.619 202.445 243.011 202.137C243.412 201.838 243.613 201.427 243.613 200.905V200.037C243.193 200.615 242.577 200.905 241.765 200.905C240.925 200.905 240.225 200.578 239.665 199.925C239.114 199.271 238.839 198.347 238.839 197.153C238.839 195.995 239.11 195.085 239.651 194.423C240.202 193.751 240.92 193.415 241.807 193.415C242.554 193.415 243.156 193.667 243.613 194.171V193.583H244.831V200.443C244.831 201.535 244.537 202.323 243.949 202.809C243.37 203.294 242.54 203.569 241.457 203.635ZM242.017 199.771C242.316 199.771 242.61 199.682 242.899 199.505C243.198 199.318 243.436 199.071 243.613 198.763V195.487C243.445 195.207 243.207 194.978 242.899 194.801C242.591 194.623 242.297 194.535 242.017 194.535C241.382 194.535 240.897 194.763 240.561 195.221C240.234 195.669 240.071 196.313 240.071 197.153C240.071 197.965 240.248 198.604 240.603 199.071C240.967 199.537 241.438 199.771 242.017 199.771Z" fill="#7F9BBD"/>
<path d="M291.485 201.737V191.937H297.309V193.085H292.703V196.095H295.741V197.243H292.703V200.575H297.617V201.737H291.485ZM299.026 201.737L301.42 198.013L299.208 194.583H300.566L301.7 196.319C301.914 196.664 302.05 196.893 302.106 197.005C302.33 196.631 302.47 196.403 302.526 196.319L303.646 194.583H305.018L302.792 198.013L305.2 201.737H303.828L302.512 199.707C302.409 199.548 302.274 199.319 302.106 199.021C302.022 199.189 301.886 199.417 301.7 199.707L300.384 201.737H299.026ZM309.926 201.905C309.18 201.905 308.568 201.625 308.092 201.065V203.991L306.874 204.565V194.583H308.092V195.185C308.606 194.671 309.217 194.415 309.926 194.415C310.832 194.415 311.55 194.751 312.082 195.423C312.614 196.095 312.88 197.005 312.88 198.153C312.88 199.319 312.61 200.239 312.068 200.911C311.527 201.573 310.813 201.905 309.926 201.905ZM309.772 200.771C310.37 200.771 310.827 200.547 311.144 200.099C311.471 199.641 311.634 198.993 311.634 198.153C311.634 197.359 311.466 196.725 311.13 196.249C310.804 195.773 310.351 195.535 309.772 195.535C309.016 195.535 308.456 195.857 308.092 196.501V199.805C308.587 200.449 309.147 200.771 309.772 200.771ZM314.847 201.737V192.203L316.065 191.629V201.737H314.847ZM323.495 200.911C322.925 201.573 322.155 201.905 321.185 201.905C320.214 201.905 319.444 201.573 318.875 200.911C318.305 200.248 318.021 199.333 318.021 198.167C318.021 197 318.305 196.085 318.875 195.423C319.444 194.751 320.214 194.415 321.185 194.415C322.155 194.415 322.925 194.746 323.495 195.409C324.064 196.071 324.349 196.986 324.349 198.153C324.349 199.319 324.064 200.239 323.495 200.911ZM319.757 200.085C320.102 200.542 320.578 200.771 321.185 200.771C321.791 200.771 322.263 200.542 322.599 200.085C322.944 199.618 323.117 198.974 323.117 198.153C323.117 197.341 322.944 196.701 322.599 196.235C322.263 195.768 321.791 195.535 321.185 195.535C320.578 195.535 320.102 195.768 319.757 196.235C319.421 196.692 319.253 197.336 319.253 198.167C319.253 198.979 319.421 199.618 319.757 200.085ZM326.247 201.737V194.583H327.465V195.521C327.801 194.783 328.366 194.415 329.159 194.415C329.607 194.415 329.976 194.536 330.265 194.779L330.083 195.927C329.785 195.721 329.444 195.619 329.061 195.619C328.641 195.619 328.268 195.782 327.941 196.109C327.624 196.435 327.465 196.967 327.465 197.705V201.737H326.247ZM334.447 201.905C333.476 201.905 332.701 201.559 332.123 200.869C331.553 200.169 331.269 199.263 331.269 198.153C331.269 196.986 331.558 196.071 332.137 195.409C332.715 194.746 333.485 194.415 334.447 194.415C335.305 194.415 336.01 194.704 336.561 195.283C337.121 195.852 337.401 196.697 337.401 197.817C337.401 198.078 337.387 198.349 337.359 198.629H332.515C332.561 199.282 332.762 199.809 333.117 200.211C333.481 200.603 333.933 200.799 334.475 200.799C335.072 200.799 335.585 200.584 336.015 200.155L336.757 200.981C336.141 201.597 335.371 201.905 334.447 201.905ZM332.501 197.593H336.169C336.159 196.855 335.982 196.323 335.637 195.997C335.301 195.661 334.904 195.493 334.447 195.493C333.896 195.493 333.443 195.67 333.089 196.025C332.734 196.37 332.538 196.893 332.501 197.593ZM342.517 201.737V192.189L343.735 191.629V195.325C344.174 194.718 344.79 194.415 345.583 194.415C346.423 194.415 347.058 194.671 347.487 195.185C347.926 195.689 348.145 196.501 348.145 197.621V201.737H346.927V197.411C346.927 196.767 346.787 196.295 346.507 195.997C346.236 195.689 345.863 195.535 345.387 195.535C344.286 195.535 343.735 196.151 343.735 197.383V201.737H342.517ZM353.164 201.905C352.193 201.905 351.418 201.559 350.84 200.869C350.27 200.169 349.986 199.263 349.986 198.153C349.986 196.986 350.275 196.071 350.854 195.409C351.432 194.746 352.202 194.415 353.164 194.415C354.022 194.415 354.727 194.704 355.278 195.283C355.838 195.852 356.118 196.697 356.118 197.817C356.118 198.078 356.104 198.349 356.076 198.629H351.232C351.278 199.282 351.479 199.809 351.834 200.211C352.198 200.603 352.65 200.799 353.192 200.799C353.789 200.799 354.302 200.584 354.732 200.155L355.474 200.981C354.858 201.597 354.088 201.905 353.164 201.905ZM351.218 197.593H354.886C354.876 196.855 354.699 196.323 354.354 195.997C354.018 195.661 353.621 195.493 353.164 195.493C352.613 195.493 352.16 195.67 351.806 196.025C351.451 196.37 351.255 196.893 351.218 197.593ZM362.041 201.737V201.079C361.453 201.629 360.776 201.905 360.011 201.905C359.255 201.905 358.648 201.699 358.191 201.289C357.743 200.869 357.519 200.271 357.519 199.497C357.519 198.722 357.775 198.134 358.289 197.733C358.802 197.331 359.437 197.131 360.193 197.131C360.883 197.131 361.499 197.285 362.041 197.593V197.089C362.041 196.491 361.905 196.076 361.635 195.843C361.373 195.6 360.991 195.479 360.487 195.479C359.768 195.479 359.073 195.717 358.401 196.193L358.051 195.171C358.816 194.667 359.679 194.415 360.641 194.415C362.339 194.415 363.189 195.273 363.189 196.991V201.737H362.041ZM360.193 200.827C360.893 200.827 361.509 200.514 362.041 199.889V198.657C361.527 198.339 360.967 198.181 360.361 198.181C359.866 198.181 359.46 198.293 359.143 198.517C358.825 198.741 358.667 199.067 358.667 199.497C358.667 199.898 358.797 200.22 359.059 200.463C359.329 200.705 359.707 200.827 360.193 200.827ZM365.378 201.737V192.203L366.596 191.629V201.737H365.378ZM370.904 201.905C369.896 201.905 369.392 201.335 369.392 200.197V195.647H368.23V194.583H369.392V192.217L370.61 191.629V194.583H372.374V195.647H370.61V199.791C370.61 200.108 370.661 200.351 370.764 200.519C370.867 200.687 371.063 200.771 371.352 200.771C371.669 200.771 372.024 200.645 372.416 200.393L372.276 201.583C371.865 201.797 371.408 201.905 370.904 201.905ZM374.208 201.737V192.189L375.426 191.629V195.325C375.865 194.718 376.481 194.415 377.274 194.415C378.114 194.415 378.749 194.671 379.178 195.185C379.617 195.689 379.836 196.501 379.836 197.621V201.737H378.618V197.411C378.618 196.767 378.478 196.295 378.198 195.997C377.928 195.689 377.554 195.535 377.078 195.535C375.977 195.535 375.426 196.151 375.426 197.383V201.737H374.208ZM382.746 204.453L383.838 201.555L381.192 194.583H382.41L384.188 199.455C384.253 199.613 384.328 199.842 384.412 200.141C384.496 199.842 384.571 199.613 384.636 199.455L386.442 194.583H387.688L383.978 204.453H382.746ZM329.27 215.737L327.436 208.583H328.64L329.732 213.385C329.741 213.441 329.764 213.557 329.802 213.735C329.839 213.912 329.867 214.047 329.886 214.141C329.904 214.01 329.965 213.758 330.068 213.385L331.412 208.583H332.42L333.764 213.385L333.96 214.169C333.978 214.085 334.002 213.954 334.03 213.777C334.067 213.599 334.095 213.469 334.114 213.385L335.192 208.583H336.396L334.562 215.737H333.47L332.168 211.495C332.037 211.075 331.948 210.762 331.902 210.557C331.808 210.949 331.724 211.261 331.65 211.495L330.362 215.737H329.27ZM342.039 215.737V215.079C341.451 215.629 340.774 215.905 340.009 215.905C339.253 215.905 338.646 215.699 338.189 215.289C337.741 214.869 337.517 214.271 337.517 213.497C337.517 212.722 337.774 212.134 338.287 211.733C338.8 211.331 339.435 211.131 340.191 211.131C340.882 211.131 341.498 211.285 342.039 211.593V211.089C342.039 210.491 341.904 210.076 341.633 209.843C341.372 209.6 340.989 209.479 340.485 209.479C339.766 209.479 339.071 209.717 338.399 210.193L338.049 209.171C338.814 208.667 339.678 208.415 340.639 208.415C342.338 208.415 343.187 209.273 343.187 210.991V215.737H342.039ZM340.191 214.827C340.891 214.827 341.507 214.514 342.039 213.889V212.657C341.526 212.339 340.966 212.181 340.359 212.181C339.864 212.181 339.458 212.293 339.141 212.517C338.824 212.741 338.665 213.067 338.665 213.497C338.665 213.898 338.796 214.22 339.057 214.463C339.328 214.705 339.706 214.827 340.191 214.827ZM345.955 218.453L347.047 215.555L344.401 208.583H345.619L347.397 213.455C347.462 213.613 347.537 213.842 347.621 214.141C347.705 213.842 347.78 213.613 347.845 213.455L349.651 208.583H350.897L347.187 218.453H345.955Z" fill="#7F9BBD"/>
</svg>
