<svg width="460" height="310" viewBox="0 0 460 310" fill="none" xmlns="http://www.w3.org/2000/svg">
<path d="M52.8976 199.159H29.9932C28.3363 199.159 26.9932 197.816 26.9932 196.159V46.1086C26.9932 44.4517 28.3363 43.1086 29.9932 43.1086H187.534C189.191 43.1086 190.534 44.4517 190.534 46.1086V196.159C190.534 197.816 189.191 199.159 187.534 199.159H158.076" stroke="#E9ECF5" stroke-width="3"/>
<path d="M64.4448 190.421H38.7314C37.0746 190.421 35.7314 189.077 35.7314 187.421V54.8474C35.7314 53.1906 37.0746 51.8474 38.7314 51.8474H178.795C180.452 51.8474 181.795 53.1906 181.795 54.8474V187.421C181.795 189.077 180.452 190.421 178.795 190.421H146.84" stroke="#E9ECF5" stroke-width="3"/>
<path d="M98.1523 54.3442V164.204" stroke="#E9ECF5" stroke-width="3"/>
<path d="M98.1523 120.51H38.2288" stroke="#E9ECF5" stroke-width="3"/>
<rect x="7.01855" y="31.873" width="202.242" height="13.7325" rx="3" fill="#E9ECF5"/>
<rect x="190.534" y="31.873" width="13.7325" height="194.752" rx="3" fill="#E9ECF5"/>
<rect x="17.0059" y="31.873" width="13.7325" height="194.752" rx="3" fill="#E9ECF5"/>
<ellipse cx="164.696" cy="106.737" rx="19.5962" ry="21.8271" fill="#E9ECF5"/>
<ellipse cx="168.895" cy="80.2329" rx="15.397" ry="17.1498" fill="#E9ECF5"/>
<ellipse cx="161.197" cy="140.257" rx="23.0955" ry="25.7248" fill="#E9ECF5"/>
<rect x="161.897" y="78.6738" width="22.3957" height="87.3083" fill="#E9ECF5"/>
<rect x="171.096" y="74.6592" width="10.558" height="115.761" fill="#E9ECF5"/>
<path d="M93.7912 155.465C95.0578 163.19 96.0055 177.372 79.0652 183.652C67.9082 187.787 50.7126 193.542 38.7588 224.655C32.9657 239.733 52.483 259.104 62.6164 266.185C72.7497 273.266 71.4515 276.485 71.4515 282.922C71.4515 288.072 77.3895 290.393 81.6118 288.247" stroke="#BFCDDE" stroke-width="3"/>
<path d="M73.1829 205.402C63.2957 212.209 52.7681 221.631 52.1316 226.221C50.3443 239.109 62.9838 249.72 71.9355 264.077" stroke="#BFCDDE" stroke-width="3"/>
<path d="M72.5595 206.026C72.5595 206.026 72.0799 202.973 74.5045 220.729C76.9291 238.484 77.2327 248.472 74.5045 259.681C71.7763 270.891 73.6002 297.268 73.6002 297.268C73.6002 297.268 89.9924 301.366 105.36 301.366C120.728 301.366 136.437 296.585 136.437 296.585C136.437 296.585 137.561 270.891 134.398 259.681C131.235 248.472 129.362 236.612 131.859 220.729C134.356 204.846 135.866 202.213 135.866 202.213" stroke="#BFCDDE" stroke-width="3"/>
<path d="M75.6802 205.402C75.6802 206.78 74.7589 207.898 73.6224 207.898C72.486 207.898 70.6865 207.602 70.6865 206.223C70.6865 204.844 72.486 202.905 73.6224 202.905C74.7589 202.905 75.6802 204.023 75.6802 205.402Z" fill="#BFCDDE"/>
<path d="M141.895 127.883C141.895 181.157 125.382 166.131 105.013 166.131C84.6431 166.131 68.1304 185.255 68.1304 127.883C68.1304 107.513 84.6431 92.3664 105.013 92.3664C125.382 92.3664 141.895 107.513 141.895 127.883Z" fill="#94ACC8"/>
<path d="M220.496 13C220.496 8.58171 224.077 5 228.496 5H368.546C372.965 5 376.546 8.58172 376.546 13V268.414H220.496V13Z" fill="#E9ECF5"/>
<path d="M229.497 21.684C229.497 17.2657 233.079 13.684 237.497 13.684H359.542C363.96 13.684 367.542 17.2657 367.542 21.684V268.414H229.497V21.684Z" fill="#DDE0E9"/>
<rect x="226.497" y="73.0245" width="145.547" height="7.23665" fill="#E9ECF5"/>
<rect x="226.497" y="129.47" width="145.547" height="7.23665" fill="#E9ECF5"/>
<rect x="226.497" y="185.916" width="145.547" height="7.23665" fill="#E9ECF5"/>
<rect x="226.497" y="242.362" width="145.547" height="7.23665" fill="#E9ECF5"/>
<rect x="237" y="22.368" width="10.5034" height="50.6565" rx="2" fill="#E9ECF5"/>
<rect x="237" y="88.9451" width="10.5034" height="39.0779" rx="2" fill="#E9ECF5"/>
<rect x="237" y="143.944" width="10.5034" height="39.0779" rx="2" fill="#E9ECF5"/>
<rect x="303.022" y="159.864" width="10.1313" height="40.5132" rx="2" transform="rotate(90 303.022 159.864)" fill="#E9ECF5"/>
<rect x="249.005" y="22.368" width="10.5034" height="50.6565" rx="2" fill="#E9ECF5"/>
<rect x="249.005" y="88.9451" width="10.5034" height="39.0779" rx="2" fill="#E9ECF5"/>
<rect x="249.005" y="143.944" width="10.5034" height="39.0779" rx="2" fill="#E9ECF5"/>
<rect x="303.022" y="171.443" width="10.1313" height="40.5132" rx="2" transform="rotate(90 303.022 171.443)" fill="#E9ECF5"/>
<rect x="261.009" y="22.368" width="10.5034" height="50.6565" rx="2" fill="#E9ECF5"/>
<rect x="261.009" y="88.9451" width="10.5034" height="39.0779" rx="2" fill="#E9ECF5"/>
<rect x="316.526" y="88.9451" width="10.5034" height="39.0779" rx="2" fill="#E9ECF5"/>
<rect x="303.138" y="200.41" width="10.5034" height="39.0779" rx="2" fill="#E9ECF5"/>
<rect width="10.418" height="39.4165" rx="2" transform="matrix(0.883155 -0.469081 0.495777 0.86845 272.896 93.8119)" fill="#E9ECF5"/>
<rect width="10.418" height="39.4165" rx="2" transform="matrix(0.883155 -0.469081 0.495777 0.86845 231 205.276)" fill="#E9ECF5"/>
<rect width="10.418" height="39.4165" rx="2" transform="matrix(0.883155 -0.469081 0.495777 0.86845 259.508 205.276)" fill="#E9ECF5"/>
<rect width="10.418" height="39.4165" rx="2" transform="matrix(0.883155 -0.469081 0.495777 0.86845 286.518 93.8119)" fill="#E9ECF5"/>
<rect width="10.418" height="39.4165" rx="2" transform="matrix(0.883155 -0.469081 0.495777 0.86845 244.621 205.276)" fill="#E9ECF5"/>
<rect width="10.418" height="39.4165" rx="2" transform="matrix(0.883155 -0.469081 0.495777 0.86845 273.129 205.276)" fill="#E9ECF5"/>
<rect x="273.013" y="22.368" width="10.5034" height="50.6565" rx="2" fill="#E9ECF5"/>
<rect x="351.038" y="86.0505" width="10.5034" height="41.9725" rx="2" fill="#E9ECF5"/>
<rect width="10.4135" height="51.1185" rx="2" transform="matrix(0.876444 -0.481505 0.508458 0.861087 285.017 28.1946)" fill="#E9ECF5"/>
<rect width="10.4135" height="47.7071" rx="2" transform="matrix(-0.876444 -0.481505 -0.508458 0.861087 364.915 144.616)" fill="#E9ECF5"/>
<path d="M329.029 50.8259C328.772 49.5845 329.72 48.4199 330.988 48.4199H350.081C351.349 48.4199 352.297 49.5845 352.039 50.8259L348.367 68.5359C348.175 69.4642 347.357 70.1298 346.409 70.1298H334.66C333.712 70.1298 332.894 69.4642 332.701 68.5359L329.029 50.8259Z" fill="#E9ECF5"/>
<path d="M351.038 68.6825C351.038 70.2812 349.742 71.5771 348.143 71.5771L332.926 71.5771C331.327 71.5771 330.031 70.2812 330.031 68.6825V68.6825L351.038 68.6825V68.6825Z" fill="#E9ECF5"/>
<path d="M331.815 44.6237C334.362 47.1112 339.409 46.6839 339.409 46.6839C339.409 46.6839 340.328 42.2237 337.781 39.7362C335.234 37.2488 330.187 37.6761 330.187 37.6761C330.187 37.6761 329.268 42.1363 331.815 44.6237Z" fill="#E9ECF5"/>
<path d="M347.928 44.6237C345.381 47.1112 340.334 46.6839 340.334 46.6839C340.334 46.6839 339.415 42.2237 341.962 39.7362C344.509 37.2488 349.556 37.6761 349.556 37.6761C349.556 37.6761 350.475 42.1363 347.928 44.6237Z" fill="#E9ECF5"/>
<path d="M343.323 39.0122C343.323 41.0625 342.377 42.9509 341.392 44.3537C340.903 45.0502 340.413 45.6146 340.046 46.0042C339.947 46.1098 339.857 46.2023 339.778 46.2809C339.7 46.2023 339.61 46.1098 339.51 46.0042C339.144 45.6146 338.654 45.0502 338.165 44.3537C337.18 42.9509 336.233 41.0625 336.233 39.0122C336.233 36.9619 337.18 35.0736 338.165 33.6707C338.654 32.9742 339.144 32.4098 339.51 32.0202C339.61 31.9147 339.7 31.8222 339.778 31.7435C339.857 31.8222 339.947 31.9147 340.046 32.0202C340.413 32.4098 340.903 32.9742 341.392 33.6707C342.377 35.0736 343.323 36.9619 343.323 39.0122Z" fill="#E9ECF5" stroke="#DDE0E9"/>
<ellipse cx="71.9352" cy="273.44" rx="3.74522" ry="11.8599" fill="#BFCDDE"/>
<ellipse cx="71.9352" cy="273.44" rx="3.74522" ry="11.8599" fill="#BFCDDE"/>
<path d="M116.245 154.217C114.978 161.941 114.031 176.124 130.971 182.403C142.128 186.539 159.323 192.293 171.277 223.406C177.07 238.484 157.553 257.856 147.42 264.937C137.286 272.018 138.585 275.236 138.585 281.674C138.585 286.823 132.647 289.145 128.424 286.999" stroke="#BFCDDE" stroke-width="3"/>
<path d="M133.109 201.656C142.996 208.464 157.269 220.382 157.906 224.972C159.693 237.86 147.053 248.472 138.102 262.828" stroke="#BFCDDE" stroke-width="3"/>
<ellipse rx="3.74522" ry="11.8599" transform="matrix(-1 0 0 1 138.101 272.191)" fill="#BFCDDE"/>
<ellipse cx="105.019" cy="141.109" rx="23.0955" ry="30.586" fill="#BFCDDE"/>
<ellipse cx="105.019" cy="139.86" rx="23.0955" ry="29.3376" fill="white"/>
<rect x="85.6685" y="110.523" width="38.7006" height="23.7197" fill="#94ACC8"/>
<path d="M10.5127 269.398L77.3176 258.687C104.823 254.277 133.018 258 158.436 269.398V269.398V309H10.5127V269.398Z" fill="#F2F5F8"/>
<path d="M71.9355 195.414C71.9355 195.414 98.7763 197.06 105.018 197.06C111.26 197.06 135.604 195.414 135.604 195.414L131.235 241.605L120.673 244.891C109.258 248.443 97.0336 248.443 85.6188 244.891L75.0566 241.605L71.9355 195.414Z" fill="#BFCDDE"/>
<path d="M69.439 187.3L90.6619 176.688V204.153H71.9358L69.439 187.3Z" fill="#BFCDDE"/>
<path d="M138.726 185.427L119.376 176.688V204.153H136.853L138.726 185.427Z" fill="#BFCDDE"/>
<path d="M96.9037 205.402C92.2414 203.854 90.6778 195.838 90.048 193.357C87.8435 193.357 79.4936 192.29 79.4936 193.481C79.4936 197.649 74.4549 202.164 71.9355 203.901C79.8085 209.391 100.807 206.697 96.9037 205.402Z" fill="#BFCDDE"/>
<path d="M112.509 205.402C117.171 203.854 119.838 195.838 120.468 193.357C122.672 193.357 131.022 192.29 131.022 193.481C131.022 197.649 136.061 202.164 138.58 203.901C130.707 209.391 108.605 206.697 112.509 205.402Z" fill="#BFCDDE"/>
<path d="M126.936 210.846C126.936 213.163 125.057 215.042 122.74 215.042C120.423 215.042 118.544 213.163 118.544 210.846C118.544 208.529 120.423 206.65 122.74 206.65C125.057 206.65 126.936 208.529 126.936 210.846Z" fill="#FF3D71"/>
<path d="M119.306 210.846C119.306 213.163 117.428 215.042 115.11 215.042C112.793 215.042 110.914 213.163 110.914 210.846C110.914 208.529 112.793 206.65 115.11 206.65C117.428 206.65 119.306 208.529 119.306 210.846Z" fill="#FF3D71"/>
<path d="M119.919 221.363C119.419 222.02 118.43 222.02 117.931 221.363L112.188 213.803C111.563 212.981 112.15 211.8 113.182 211.8L124.667 211.8C125.7 211.8 126.286 212.981 125.661 213.803L119.919 221.363Z" fill="#FF3D71"/>
<path d="M101.897 196.912C92.4094 196.912 90.4535 193.417 90.6616 191.669H86.9165V200.408H101.897V196.912Z" fill="#BFCDDE"/>
<path d="M108.14 196.912C117.628 196.912 119.584 193.417 119.376 191.669H123.121V200.408H108.14V196.912Z" fill="#BFCDDE"/>
<path d="M71.9355 216.637C71.9355 216.637 92.0984 219.855 103.346 219.855C114.594 219.855 134.356 217.242 134.356 217.242L133.835 221.858L133.315 226.474C133.315 226.474 114.594 229.121 103.346 229.121C92.0984 229.121 73.3777 226.474 73.3777 226.474C73.3777 226.474 72.7157 223.449 72.4308 221.477C72.1599 219.601 71.9355 216.637 71.9355 216.637Z" fill="#94A9C2"/>
<path d="M90.0378 141.109C90.0378 138.695 91.9941 136.739 94.4072 136.739" stroke="#94ACC8" stroke-width="2"/>
<circle cx="95.655" cy="141.733" r="2.49681" fill="#94ACC8"/>
<path d="M119.999 141.109C119.999 138.695 118.043 136.739 115.629 136.739" stroke="#94ACC8" stroke-width="2"/>
<circle r="2.49681" transform="matrix(-1 0 0 1 114.381 141.733)" fill="#94ACC8"/>
<path d="M99.0884 157.962V157.962C103.419 158.787 107.866 158.787 112.197 157.962V157.962" stroke="#94ACC8" stroke-width="2" stroke-linejoin="round"/>
<ellipse cx="99.0886" cy="157.962" rx="0.936305" ry="1.24841" fill="#94ACC8"/>
<ellipse cx="112.197" cy="157.962" rx="0.936305" ry="1.24841" fill="#94ACC8"/>
<rect x="245.628" y="89.8621" width="212.726" height="190.255" rx="4" fill="#7388F5" stroke="#667FFE" stroke-width="2"/>
<path opacity="0.2" d="M245.464 90.5481L113.133 219.758C113.133 219.758 113.758 220.382 113.758 224.128C113.758 227.873 113.133 229.121 113.133 229.121L245.464 276.561V90.5481Z" fill="#96A6F7"/>
<path d="M95.9243 219.823C96.021 218.744 96.9723 217.955 98.0533 218.028C103.24 218.381 106.741 218.371 111.89 218.017C112.906 217.947 113.818 218.641 113.969 219.648C114.163 220.941 114.382 222.711 114.382 224.128C114.382 225.547 114.162 227.321 113.968 228.615C113.817 229.618 112.912 230.314 111.9 230.244C109.672 230.089 106.006 229.846 104.892 229.846C103.805 229.846 100.281 230.078 98.042 230.233C96.9647 230.307 96.0216 229.517 95.9251 228.441C95.7992 227.038 95.6558 225.203 95.6558 224.128C95.6558 223.055 95.7986 221.225 95.9243 219.823Z" fill="#677FFF"/>
<rect x="256.281" y="98.5297" width="186.525" height="33.9425" rx="13.5" fill="white" stroke="#4A66FB"/>
<rect x="256.281" y="190.545" width="186.525" height="33.9425" rx="13.5" fill="white" stroke="#FF3D71"/>
<rect x="256.281" y="145.12" width="186.525" height="33.9425" rx="13.5" fill="white" stroke="#F3DC62"/>
<rect x="256.281" y="238.3" width="186.525" height="33.9425" rx="13.5" fill="white" stroke="#A3CF48"/>
<path d="M305.435 119.516C304.604 119.516 303.881 119.315 303.265 118.914C302.658 118.503 302.243 117.976 302.019 117.332L303.167 116.912C303.372 117.36 303.676 117.714 304.077 117.976C304.478 118.237 304.94 118.368 305.463 118.368C306.06 118.368 306.532 118.228 306.877 117.948C307.222 117.658 307.395 117.248 307.395 116.716C307.395 116.202 307.199 115.792 306.807 115.484C306.424 115.176 305.883 114.896 305.183 114.644C304.847 114.522 304.567 114.415 304.343 114.322C304.128 114.228 303.876 114.098 303.587 113.93C303.307 113.752 303.083 113.575 302.915 113.398C302.747 113.211 302.602 112.982 302.481 112.712C302.369 112.432 302.313 112.128 302.313 111.802C302.313 111.12 302.584 110.546 303.125 110.08C303.666 109.613 304.399 109.38 305.323 109.38C306.079 109.38 306.709 109.543 307.213 109.87C307.717 110.187 308.044 110.607 308.193 111.13L307.073 111.508C306.942 111.218 306.718 110.98 306.401 110.794C306.084 110.607 305.696 110.514 305.239 110.514C304.726 110.514 304.32 110.63 304.021 110.864C303.722 111.088 303.573 111.4 303.573 111.802C303.573 112.016 303.624 112.212 303.727 112.39C303.839 112.567 304.007 112.726 304.231 112.866C304.464 113.006 304.679 113.118 304.875 113.202C305.071 113.286 305.342 113.393 305.687 113.524C306.116 113.682 306.471 113.836 306.751 113.986C307.031 114.126 307.334 114.317 307.661 114.56C307.988 114.802 308.235 115.106 308.403 115.47C308.571 115.824 308.655 116.23 308.655 116.688C308.655 117.565 308.356 118.256 307.759 118.76C307.162 119.264 306.387 119.516 305.435 119.516ZM310.82 119.348V109.814L312.038 109.24V119.348H310.82ZM317.172 119.516C316.201 119.516 315.427 119.17 314.848 118.48C314.279 117.78 313.994 116.874 313.994 115.764C313.994 114.597 314.283 113.682 314.862 113.02C315.441 112.357 316.211 112.026 317.172 112.026C318.031 112.026 318.735 112.315 319.286 112.894C319.846 113.463 320.126 114.308 320.126 115.428C320.126 115.689 320.112 115.96 320.084 116.24H315.24C315.287 116.893 315.487 117.42 315.842 117.822C316.206 118.214 316.659 118.41 317.2 118.41C317.797 118.41 318.311 118.195 318.74 117.766L319.482 118.592C318.866 119.208 318.096 119.516 317.172 119.516ZM315.226 115.204H318.894C318.885 114.466 318.707 113.934 318.362 113.608C318.026 113.272 317.629 113.104 317.172 113.104C316.621 113.104 316.169 113.281 315.814 113.636C315.459 113.981 315.263 114.504 315.226 115.204ZM324.705 119.516C323.734 119.516 322.96 119.17 322.381 118.48C321.812 117.78 321.527 116.874 321.527 115.764C321.527 114.597 321.816 113.682 322.395 113.02C322.974 112.357 323.744 112.026 324.705 112.026C325.564 112.026 326.268 112.315 326.819 112.894C327.379 113.463 327.659 114.308 327.659 115.428C327.659 115.689 327.645 115.96 327.617 116.24H322.773C322.82 116.893 323.02 117.42 323.375 117.822C323.739 118.214 324.192 118.41 324.733 118.41C325.33 118.41 325.844 118.195 326.273 117.766L327.015 118.592C326.399 119.208 325.629 119.516 324.705 119.516ZM322.759 115.204H326.427C326.418 114.466 326.24 113.934 325.895 113.608C325.559 113.272 325.162 113.104 324.705 113.104C324.154 113.104 323.702 113.281 323.347 113.636C322.992 113.981 322.796 114.504 322.759 115.204ZM332.532 119.516C331.786 119.516 331.174 119.236 330.698 118.676V121.602L329.48 122.176V112.194H330.698V112.796C331.212 112.282 331.823 112.026 332.532 112.026C333.438 112.026 334.156 112.362 334.688 113.034C335.22 113.706 335.486 114.616 335.486 115.764C335.486 116.93 335.216 117.85 334.674 118.522C334.133 119.184 333.419 119.516 332.532 119.516ZM332.378 118.382C332.976 118.382 333.433 118.158 333.75 117.71C334.077 117.252 334.24 116.604 334.24 115.764C334.24 114.97 334.072 114.336 333.736 113.86C333.41 113.384 332.957 113.146 332.378 113.146C331.622 113.146 331.062 113.468 330.698 114.112V117.416C331.193 118.06 331.753 118.382 332.378 118.382ZM349.064 119.348V115.008C349.064 113.766 348.583 113.146 347.622 113.146C347.164 113.146 346.791 113.323 346.502 113.678C346.222 114.023 346.082 114.48 346.082 115.05V119.348H344.864V115.008C344.864 113.766 344.388 113.146 343.436 113.146C342.96 113.146 342.582 113.314 342.302 113.65C342.031 113.976 341.896 114.424 341.896 114.994V119.348H340.678V112.194H341.896V112.866C342.316 112.306 342.941 112.026 343.772 112.026C344.173 112.026 344.542 112.119 344.878 112.306C345.223 112.483 345.494 112.74 345.69 113.076C346.147 112.376 346.838 112.026 347.762 112.026C348.508 112.026 349.115 112.254 349.582 112.712C350.048 113.169 350.282 113.818 350.282 114.658V119.348H349.064ZM357.571 118.522C357.002 119.184 356.232 119.516 355.261 119.516C354.291 119.516 353.521 119.184 352.951 118.522C352.382 117.859 352.097 116.944 352.097 115.778C352.097 114.611 352.382 113.696 352.951 113.034C353.521 112.362 354.291 112.026 355.261 112.026C356.232 112.026 357.002 112.357 357.571 113.02C358.141 113.682 358.425 114.597 358.425 115.764C358.425 116.93 358.141 117.85 357.571 118.522ZM353.833 117.696C354.179 118.153 354.655 118.382 355.261 118.382C355.868 118.382 356.339 118.153 356.675 117.696C357.021 117.229 357.193 116.585 357.193 115.764C357.193 114.952 357.021 114.312 356.675 113.846C356.339 113.379 355.868 113.146 355.261 113.146C354.655 113.146 354.179 113.379 353.833 113.846C353.497 114.303 353.329 114.947 353.329 115.778C353.329 116.59 353.497 117.229 353.833 117.696ZM364.734 119.348V115.022C364.734 114.378 364.594 113.906 364.314 113.608C364.043 113.3 363.67 113.146 363.194 113.146C362.093 113.146 361.542 113.762 361.542 114.994V119.348H360.324V112.194H361.542V112.922C361.981 112.324 362.597 112.026 363.39 112.026C364.23 112.026 364.865 112.282 365.294 112.796C365.733 113.3 365.952 114.112 365.952 115.232V119.348H364.734ZM369.375 110.682C369.225 110.822 369.043 110.892 368.829 110.892C368.614 110.892 368.432 110.817 368.283 110.668C368.143 110.518 368.073 110.341 368.073 110.136C368.073 109.921 368.147 109.739 368.297 109.59C368.446 109.431 368.623 109.352 368.829 109.352C369.043 109.352 369.225 109.431 369.375 109.59C369.524 109.739 369.599 109.921 369.599 110.136C369.599 110.35 369.524 110.532 369.375 110.682ZM368.227 119.348V112.194H369.445V119.348H368.227ZM373.699 119.516C372.691 119.516 372.187 118.946 372.187 117.808V113.258H371.025V112.194H372.187V109.828L373.405 109.24V112.194H375.169V113.258H373.405V117.402C373.405 117.719 373.457 117.962 373.559 118.13C373.662 118.298 373.858 118.382 374.147 118.382C374.465 118.382 374.819 118.256 375.211 118.004L375.071 119.194C374.661 119.408 374.203 119.516 373.699 119.516ZM381.921 118.522C381.352 119.184 380.582 119.516 379.611 119.516C378.64 119.516 377.87 119.184 377.301 118.522C376.732 117.859 376.447 116.944 376.447 115.778C376.447 114.611 376.732 113.696 377.301 113.034C377.87 112.362 378.64 112.026 379.611 112.026C380.582 112.026 381.352 112.357 381.921 113.02C382.49 113.682 382.775 114.597 382.775 115.764C382.775 116.93 382.49 117.85 381.921 118.522ZM378.183 117.696C378.528 118.153 379.004 118.382 379.611 118.382C380.218 118.382 380.689 118.153 381.025 117.696C381.37 117.229 381.543 116.585 381.543 115.764C381.543 114.952 381.37 114.312 381.025 113.846C380.689 113.379 380.218 113.146 379.611 113.146C379.004 113.146 378.528 113.379 378.183 113.846C377.847 114.303 377.679 114.947 377.679 115.778C377.679 116.59 377.847 117.229 378.183 117.696ZM384.674 119.348V112.194H385.892V113.132C386.228 112.394 386.792 112.026 387.586 112.026C388.034 112.026 388.402 112.147 388.692 112.39L388.51 113.538C388.211 113.332 387.87 113.23 387.488 113.23C387.068 113.23 386.694 113.393 386.368 113.72C386.05 114.046 385.892 114.578 385.892 115.316V119.348H384.674ZM391.209 110.682C391.059 110.822 390.877 110.892 390.663 110.892C390.448 110.892 390.266 110.817 390.117 110.668C389.977 110.518 389.907 110.341 389.907 110.136C389.907 109.921 389.981 109.739 390.131 109.59C390.28 109.431 390.457 109.352 390.663 109.352C390.877 109.352 391.059 109.431 391.209 109.59C391.358 109.739 391.433 109.921 391.433 110.136C391.433 110.35 391.358 110.532 391.209 110.682ZM390.061 119.348V112.194H391.279V119.348H390.061ZM398.011 119.348V115.022C398.011 114.378 397.871 113.906 397.591 113.608C397.321 113.3 396.947 113.146 396.471 113.146C395.37 113.146 394.819 113.762 394.819 114.994V119.348H393.601V112.194H394.819V112.922C395.258 112.324 395.874 112.026 396.667 112.026C397.507 112.026 398.142 112.282 398.571 112.796C399.01 113.3 399.229 114.112 399.229 115.232V119.348H398.011ZM403.688 122.246L403.1 121.294C404.136 121.238 404.85 121.056 405.242 120.748C405.643 120.449 405.844 120.038 405.844 119.516V118.648C405.424 119.226 404.808 119.516 403.996 119.516C403.156 119.516 402.456 119.189 401.896 118.536C401.345 117.882 401.07 116.958 401.07 115.764C401.07 114.606 401.341 113.696 401.882 113.034C402.433 112.362 403.151 112.026 404.038 112.026C404.785 112.026 405.387 112.278 405.844 112.782V112.194H407.062V119.054C407.062 120.146 406.768 120.934 406.18 121.42C405.601 121.905 404.771 122.18 403.688 122.246ZM404.248 118.382C404.547 118.382 404.841 118.293 405.13 118.116C405.429 117.929 405.667 117.682 405.844 117.374V114.098C405.676 113.818 405.438 113.589 405.13 113.412C404.822 113.234 404.528 113.146 404.248 113.146C403.613 113.146 403.128 113.374 402.792 113.832C402.465 114.28 402.302 114.924 402.302 115.764C402.302 116.576 402.479 117.215 402.834 117.682C403.198 118.148 403.669 118.382 404.248 118.382Z" fill="#4E4E4E"/>
<circle cx="272.93" cy="115.516" r="16.9777" fill="white" stroke="#4A66FB"/>
<path d="M266.637 119.516C269.735 124.246 277.166 123.594 277.166 123.594C277.166 123.594 268.076 128.787 263.394 121.639C258.713 114.492 267.106 108.234 267.106 108.234C267.106 108.234 263.085 114.092 266.637 119.516Z" fill="#677FFF"/>
<circle cx="272.001" cy="114.853" r="3.442" fill="#677FFF"/>
<circle cx="283.187" cy="115.714" r="2.5815" fill="#677FFF"/>
<circle cx="278.024" cy="113.993" r="4.3025" fill="#677FFF"/>
<path d="M272.002 116.574H284.049V116.574C284.049 117.525 283.278 118.295 282.328 118.295H272.002V116.574Z" fill="#677FFF"/>
<path d="M283.123 106.777L283.45 107.784H284.509L283.653 108.406L283.98 109.412L283.123 108.79L282.267 109.412L282.594 108.406L281.738 107.784H282.796L283.123 106.777Z" fill="#677FFF"/>
<path d="M277.299 103.864L277.626 104.871H278.684L277.828 105.493L278.155 106.499L277.299 105.877L276.443 106.499L276.77 105.493L275.914 104.871H276.972L277.299 103.864Z" fill="#677FFF"/>
<circle cx="272.93" cy="161.707" r="16.9777" fill="white" stroke="#F3DC62"/>
<path d="M272.546 168.39L279.307 158.258L276.892 165.688L280.825 165.109L273.65 174.816L276.409 167.94L272.546 168.39Z" fill="#F4DF6E" stroke="#EDC90E" stroke-linejoin="round"/>
<path d="M265.647 158.732L272.409 148.599L269.994 156.03L273.926 155.451L266.751 165.157L269.511 158.281L265.647 158.732Z" fill="#F4DF6E" stroke="#EDC90E" stroke-linejoin="round"/>
<path d="M300.877 165.136C300.047 165.136 299.323 164.936 298.707 164.534C298.101 164.124 297.685 163.596 297.461 162.952L298.609 162.532C298.815 162.98 299.118 163.335 299.519 163.596C299.921 163.858 300.383 163.988 300.905 163.988C301.503 163.988 301.974 163.848 302.319 163.568C302.665 163.279 302.837 162.868 302.837 162.336C302.837 161.823 302.641 161.412 302.249 161.104C301.867 160.796 301.325 160.516 300.625 160.264C300.289 160.143 300.009 160.036 299.785 159.942C299.571 159.849 299.319 159.718 299.029 159.55C298.749 159.373 298.525 159.196 298.357 159.018C298.189 158.832 298.045 158.603 297.923 158.332C297.811 158.052 297.755 157.749 297.755 157.422C297.755 156.741 298.026 156.167 298.567 155.7C299.109 155.234 299.841 155 300.765 155C301.521 155 302.151 155.164 302.655 155.49C303.159 155.808 303.486 156.228 303.635 156.75L302.515 157.128C302.385 156.839 302.161 156.601 301.843 156.414C301.526 156.228 301.139 156.134 300.681 156.134C300.168 156.134 299.762 156.251 299.463 156.484C299.165 156.708 299.015 157.021 299.015 157.422C299.015 157.637 299.067 157.833 299.169 158.01C299.281 158.188 299.449 158.346 299.673 158.486C299.907 158.626 300.121 158.738 300.317 158.822C300.513 158.906 300.784 159.014 301.129 159.144C301.559 159.303 301.913 159.457 302.193 159.606C302.473 159.746 302.777 159.938 303.103 160.18C303.43 160.423 303.677 160.726 303.845 161.09C304.013 161.445 304.097 161.851 304.097 162.308C304.097 163.186 303.799 163.876 303.201 164.38C302.604 164.884 301.829 165.136 300.877 165.136ZM308.124 165.136C307.116 165.136 306.612 164.567 306.612 163.428V158.878H305.45V157.814H306.612V155.448L307.83 154.86V157.814H309.594V158.878H307.83V163.022C307.83 163.34 307.882 163.582 307.984 163.75C308.087 163.918 308.283 164.002 308.572 164.002C308.89 164.002 309.244 163.876 309.636 163.624L309.496 164.814C309.086 165.029 308.628 165.136 308.124 165.136ZM311.429 164.968V157.814H312.647V158.752C312.983 158.015 313.547 157.646 314.341 157.646C314.789 157.646 315.157 157.768 315.447 158.01L315.265 159.158C314.966 158.953 314.625 158.85 314.243 158.85C313.823 158.85 313.449 159.014 313.123 159.34C312.805 159.667 312.647 160.199 312.647 160.936V164.968H311.429ZM319.628 165.136C318.657 165.136 317.883 164.791 317.304 164.1C316.735 163.4 316.45 162.495 316.45 161.384C316.45 160.218 316.739 159.303 317.318 158.64C317.897 157.978 318.667 157.646 319.628 157.646C320.487 157.646 321.191 157.936 321.742 158.514C322.302 159.084 322.582 159.928 322.582 161.048C322.582 161.31 322.568 161.58 322.54 161.86H317.696C317.743 162.514 317.943 163.041 318.298 163.442C318.662 163.834 319.115 164.03 319.656 164.03C320.253 164.03 320.767 163.816 321.196 163.386L321.938 164.212C321.322 164.828 320.552 165.136 319.628 165.136ZM317.682 160.824H321.35C321.341 160.087 321.163 159.555 320.818 159.228C320.482 158.892 320.085 158.724 319.628 158.724C319.077 158.724 318.625 158.902 318.27 159.256C317.915 159.602 317.719 160.124 317.682 160.824ZM326.517 165.136C326.004 165.136 325.514 165.029 325.047 164.814C324.59 164.59 324.217 164.296 323.927 163.932L324.795 163.19C325.327 163.76 325.911 164.044 326.545 164.044C326.947 164.044 327.269 163.97 327.511 163.82C327.754 163.662 327.875 163.433 327.875 163.134C327.875 162.91 327.787 162.71 327.609 162.532C327.432 162.346 327.25 162.21 327.063 162.126C326.877 162.033 326.601 161.916 326.237 161.776C325.509 161.506 324.959 161.202 324.585 160.866C324.212 160.53 324.025 160.087 324.025 159.536C324.025 158.958 324.249 158.5 324.697 158.164C325.155 157.819 325.733 157.646 326.433 157.646C327.432 157.646 328.235 158.006 328.841 158.724L328.001 159.424C327.563 158.967 327.035 158.738 326.419 158.738C326.055 158.738 325.766 158.808 325.551 158.948C325.337 159.088 325.229 159.284 325.229 159.536C325.229 159.676 325.262 159.807 325.327 159.928C325.402 160.04 325.528 160.148 325.705 160.25C325.892 160.353 326.037 160.432 326.139 160.488C326.251 160.535 326.452 160.614 326.741 160.726C327.497 160.997 328.071 161.305 328.463 161.65C328.865 161.996 329.065 162.481 329.065 163.106C329.065 163.741 328.837 164.24 328.379 164.604C327.922 164.959 327.301 165.136 326.517 165.136ZM333.08 165.136C332.566 165.136 332.076 165.029 331.61 164.814C331.152 164.59 330.779 164.296 330.49 163.932L331.358 163.19C331.89 163.76 332.473 164.044 333.108 164.044C333.509 164.044 333.831 163.97 334.074 163.82C334.316 163.662 334.438 163.433 334.438 163.134C334.438 162.91 334.349 162.71 334.172 162.532C333.994 162.346 333.812 162.21 333.626 162.126C333.439 162.033 333.164 161.916 332.8 161.776C332.072 161.506 331.521 161.202 331.148 160.866C330.774 160.53 330.588 160.087 330.588 159.536C330.588 158.958 330.812 158.5 331.26 158.164C331.717 157.819 332.296 157.646 332.996 157.646C333.994 157.646 334.797 158.006 335.404 158.724L334.564 159.424C334.125 158.967 333.598 158.738 332.982 158.738C332.618 158.738 332.328 158.808 332.114 158.948C331.899 159.088 331.792 159.284 331.792 159.536C331.792 159.676 331.824 159.807 331.89 159.928C331.964 160.04 332.09 160.148 332.268 160.25C332.454 160.353 332.599 160.432 332.702 160.488C332.814 160.535 333.014 160.614 333.304 160.726C334.06 160.997 334.634 161.305 335.026 161.65C335.427 161.996 335.628 162.481 335.628 163.106C335.628 163.741 335.399 164.24 334.942 164.604C334.484 164.959 333.864 165.136 333.08 165.136ZM340.893 164.968V155.434L342.111 154.86V164.968H340.893ZM347.245 165.136C346.275 165.136 345.5 164.791 344.921 164.1C344.352 163.4 344.067 162.495 344.067 161.384C344.067 160.218 344.357 159.303 344.935 158.64C345.514 157.978 346.284 157.646 347.245 157.646C348.104 157.646 348.809 157.936 349.359 158.514C349.919 159.084 350.199 159.928 350.199 161.048C350.199 161.31 350.185 161.58 350.157 161.86H345.313C345.36 162.514 345.561 163.041 345.915 163.442C346.279 163.834 346.732 164.03 347.273 164.03C347.871 164.03 348.384 163.816 348.813 163.386L349.555 164.212C348.939 164.828 348.169 165.136 347.245 165.136ZM345.299 160.824H348.967C348.958 160.087 348.781 159.555 348.435 159.228C348.099 158.892 347.703 158.724 347.245 158.724C346.695 158.724 346.242 158.902 345.887 159.256C345.533 159.602 345.337 160.124 345.299 160.824ZM353.938 164.968L351.32 157.814H352.552L354.246 162.588C354.368 162.943 354.442 163.176 354.47 163.288C354.498 163.176 354.573 162.943 354.694 162.588L356.36 157.814H357.578L354.96 164.968H353.938ZM361.942 165.136C360.972 165.136 360.197 164.791 359.618 164.1C359.049 163.4 358.764 162.495 358.764 161.384C358.764 160.218 359.054 159.303 359.632 158.64C360.211 157.978 360.981 157.646 361.942 157.646C362.801 157.646 363.506 157.936 364.056 158.514C364.616 159.084 364.896 159.928 364.896 161.048C364.896 161.31 364.882 161.58 364.854 161.86H360.01C360.057 162.514 360.258 163.041 360.612 163.442C360.976 163.834 361.429 164.03 361.97 164.03C362.568 164.03 363.081 163.816 363.51 163.386L364.252 164.212C363.636 164.828 362.866 165.136 361.942 165.136ZM359.996 160.824H363.664C363.655 160.087 363.478 159.555 363.132 159.228C362.796 158.892 362.4 158.724 361.942 158.724C361.392 158.724 360.939 158.902 360.584 159.256C360.23 159.602 360.034 160.124 359.996 160.824ZM366.788 164.968V155.434L368.006 154.86V164.968H366.788Z" fill="#4E4E4E"/>
<path d="M298.021 212.408V202.608H303.845V203.756H299.239V206.766H302.277V207.914H299.239V211.246H304.153V212.408H298.021ZM309.618 212.576C308.909 212.576 308.284 212.431 307.742 212.142C307.201 211.853 306.776 211.461 306.468 210.966C306.16 210.471 305.932 209.935 305.782 209.356C305.633 208.777 305.558 208.161 305.558 207.508C305.558 206.864 305.633 206.253 305.782 205.674C305.941 205.086 306.174 204.549 306.482 204.064C306.8 203.569 307.224 203.177 307.756 202.888C308.298 202.589 308.918 202.44 309.618 202.44C311.149 202.44 312.204 203.028 312.782 204.204L311.69 204.764C311.429 204.372 311.14 204.078 310.822 203.882C310.514 203.677 310.113 203.574 309.618 203.574C308.956 203.574 308.405 203.784 307.966 204.204C307.528 204.624 307.224 205.119 307.056 205.688C306.898 206.248 306.818 206.855 306.818 207.508C306.818 208.581 307.056 209.505 307.532 210.28C308.008 211.045 308.704 211.428 309.618 211.428C310.533 211.428 311.242 211.013 311.746 210.182L312.866 210.602C312.596 211.199 312.19 211.68 311.648 212.044C311.107 212.399 310.43 212.576 309.618 212.576ZM318.644 212.576C317.926 212.576 317.291 212.436 316.74 212.156C316.199 211.867 315.765 211.479 315.438 210.994C315.121 210.509 314.883 209.972 314.724 209.384C314.566 208.796 314.486 208.171 314.486 207.508C314.486 206.855 314.57 206.234 314.738 205.646C314.906 205.049 315.154 204.512 315.48 204.036C315.807 203.551 316.241 203.163 316.782 202.874C317.333 202.585 317.954 202.44 318.644 202.44C319.475 202.44 320.128 202.594 320.604 202.902C321.09 203.21 321.496 203.63 321.822 204.162L320.73 204.792C320.469 204.409 320.18 204.115 319.862 203.91C319.545 203.695 319.139 203.588 318.644 203.588C318.224 203.588 317.846 203.667 317.51 203.826C317.174 203.985 316.899 204.195 316.684 204.456C316.47 204.708 316.288 205.007 316.138 205.352C315.998 205.697 315.896 206.052 315.83 206.416C315.774 206.771 315.746 207.135 315.746 207.508C315.746 208.609 315.989 209.538 316.474 210.294C316.96 211.041 317.683 211.414 318.644 211.414C319.307 211.414 319.839 211.209 320.24 210.798C320.642 210.378 320.842 209.832 320.842 209.16V208.768H319.064V207.648H322.116V208.824C322.116 210.009 321.79 210.933 321.136 211.596C320.492 212.249 319.662 212.576 318.644 212.576Z" fill="#4E4E4E"/>
<path d="M304.195 259.847L303.355 257.453H299.463L298.637 259.847H297.363L300.835 250.047H301.969L305.441 259.847H304.195ZM302.977 256.375L301.717 252.749C301.559 252.292 301.456 251.961 301.409 251.755C301.307 252.119 301.204 252.451 301.101 252.749L299.827 256.375H302.977ZM309.793 260.015C308.878 260.015 308.155 259.689 307.623 259.035C307.091 258.373 306.825 257.453 306.825 256.277C306.825 255.101 307.091 254.182 307.623 253.519C308.164 252.857 308.906 252.525 309.849 252.525C311.118 252.525 311.954 253.081 312.355 254.191L311.207 254.611C310.964 253.977 310.516 253.659 309.863 253.659C309.266 253.659 308.818 253.888 308.519 254.345C308.22 254.803 308.071 255.447 308.071 256.277C308.071 257.099 308.22 257.738 308.519 258.195C308.818 258.643 309.252 258.867 309.821 258.867C310.568 258.867 311.053 258.513 311.277 257.803L312.411 258.181C312.234 258.769 311.916 259.222 311.459 259.539C311.011 259.857 310.456 260.015 309.793 260.015ZM316.04 260.015C315.032 260.015 314.528 259.446 314.528 258.307V253.757H313.366V252.693H314.528V250.327L315.746 249.739V252.693H317.51V253.757H315.746V257.901C315.746 258.219 315.798 258.461 315.9 258.629C316.003 258.797 316.199 258.881 316.488 258.881C316.806 258.881 317.16 258.755 317.552 258.503L317.412 259.693C317.002 259.908 316.544 260.015 316.04 260.015ZM320.507 251.181C320.357 251.321 320.175 251.391 319.961 251.391C319.746 251.391 319.564 251.317 319.415 251.167C319.275 251.018 319.205 250.841 319.205 250.635C319.205 250.421 319.279 250.239 319.429 250.089C319.578 249.931 319.755 249.851 319.961 249.851C320.175 249.851 320.357 249.931 320.507 250.089C320.656 250.239 320.731 250.421 320.731 250.635C320.731 250.85 320.656 251.032 320.507 251.181ZM319.359 259.847V252.693H320.577V259.847H319.359ZM324.817 259.847L322.199 252.693H323.431L325.125 257.467C325.247 257.822 325.321 258.055 325.349 258.167C325.377 258.055 325.452 257.822 325.573 257.467L327.239 252.693H328.457L325.839 259.847H324.817ZM331.225 251.181C331.076 251.321 330.894 251.391 330.679 251.391C330.465 251.391 330.283 251.317 330.133 251.167C329.993 251.018 329.923 250.841 329.923 250.635C329.923 250.421 329.998 250.239 330.147 250.089C330.297 249.931 330.474 249.851 330.679 249.851C330.894 249.851 331.076 249.931 331.225 250.089C331.375 250.239 331.449 250.421 331.449 250.635C331.449 250.85 331.375 251.032 331.225 251.181ZM330.077 259.847V252.693H331.295V259.847H330.077ZM335.55 260.015C334.542 260.015 334.038 259.446 334.038 258.307V253.757H332.876V252.693H334.038V250.327L335.256 249.739V252.693H337.02V253.757H335.256V257.901C335.256 258.219 335.307 258.461 335.41 258.629C335.513 258.797 335.709 258.881 335.998 258.881C336.315 258.881 336.67 258.755 337.062 258.503L336.922 259.693C336.511 259.908 336.054 260.015 335.55 260.015ZM339.708 262.563L340.8 259.665L338.154 252.693H339.372L341.15 257.565C341.216 257.724 341.29 257.953 341.374 258.251C341.458 257.953 341.533 257.724 341.598 257.565L343.404 252.693H344.65L340.94 262.563H339.708ZM349.643 259.847V250.313L350.861 249.739V259.847H349.643ZM355.995 260.015C355.025 260.015 354.25 259.67 353.671 258.979C353.102 258.279 352.817 257.374 352.817 256.263C352.817 255.097 353.107 254.182 353.685 253.519C354.264 252.857 355.034 252.525 355.995 252.525C356.854 252.525 357.559 252.815 358.109 253.393C358.669 253.963 358.949 254.807 358.949 255.927C358.949 256.189 358.935 256.459 358.907 256.739H354.063C354.11 257.393 354.311 257.92 354.665 258.321C355.029 258.713 355.482 258.909 356.023 258.909C356.621 258.909 357.134 258.695 357.563 258.265L358.305 259.091C357.689 259.707 356.919 260.015 355.995 260.015ZM354.049 255.703H357.717C357.708 254.966 357.531 254.434 357.185 254.107C356.849 253.771 356.453 253.603 355.995 253.603C355.445 253.603 354.992 253.781 354.637 254.135C354.283 254.481 354.087 255.003 354.049 255.703ZM362.688 259.847L360.07 252.693H361.302L362.996 257.467C363.118 257.822 363.192 258.055 363.22 258.167C363.248 258.055 363.323 257.822 363.444 257.467L365.11 252.693H366.328L363.71 259.847H362.688ZM370.692 260.015C369.722 260.015 368.947 259.67 368.368 258.979C367.799 258.279 367.514 257.374 367.514 256.263C367.514 255.097 367.804 254.182 368.382 253.519C368.961 252.857 369.731 252.525 370.692 252.525C371.551 252.525 372.256 252.815 372.806 253.393C373.366 253.963 373.646 254.807 373.646 255.927C373.646 256.189 373.632 256.459 373.604 256.739H368.76C368.807 257.393 369.008 257.92 369.362 258.321C369.726 258.713 370.179 258.909 370.72 258.909C371.318 258.909 371.831 258.695 372.26 258.265L373.002 259.091C372.386 259.707 371.616 260.015 370.692 260.015ZM368.746 255.703H372.414C372.405 254.966 372.228 254.434 371.882 254.107C371.546 253.771 371.15 253.603 370.692 253.603C370.142 253.603 369.689 253.781 369.334 254.135C368.98 254.481 368.784 255.003 368.746 255.703ZM375.538 259.847V250.313L376.756 249.739V259.847H375.538Z" fill="#4E4E4E"/>
<circle cx="272.93" cy="255.338" r="16.9777" fill="#E6E7EF" stroke="#E6E7EF"/>
<circle cx="272.93" cy="255.338" r="16.9777" fill="white" stroke="#A3CF48"/>
<circle cx="279.094" cy="248.292" r="2.07202" fill="#A3CF48"/>
<path d="M273.799 249.904L276.562 250.364C276.792 250.364 277.345 250.41 277.713 250.594C278.081 250.778 278.634 251.592 278.864 251.976C279.094 252.283 279.601 252.943 279.785 253.127C279.969 253.311 280.169 253.357 280.245 253.357L283.238 252.436C283.622 252.283 284.435 252.16 284.62 252.896C284.804 253.633 284.389 253.971 284.159 254.048C283.469 254.278 281.811 254.784 280.706 254.969C279.601 255.153 279.018 254.892 278.864 254.738L277.943 253.817C277.759 253.633 277.713 253.741 277.713 253.817C277.252 254.585 276.286 256.212 276.101 256.58C275.917 256.948 276.178 257.041 276.332 257.041C276.945 257.117 278.358 257.317 279.094 257.501C279.831 257.685 280.476 258.806 280.706 259.343L281.857 262.566C282.164 263.103 282.502 264.27 281.396 264.638C280.291 265.006 279.862 264.331 279.785 263.947C279.401 262.95 278.588 260.816 278.404 260.264C278.219 259.711 277.866 259.573 277.713 259.573L274.029 259.113C273.876 259.266 273.339 259.849 272.418 260.954C271.497 262.059 270.346 262.182 269.885 262.105L266.432 262.336C265.895 262.412 264.82 262.29 264.82 261.185C264.82 260.079 265.741 259.803 266.202 259.803H270.115C270.484 259.803 270.576 259.65 270.576 259.573C271.113 258.959 272.234 257.685 272.418 257.501C272.234 257.133 272.494 256.734 272.648 256.58L272.878 256.12L275.18 251.976C275.104 251.976 274.766 251.93 274.029 251.745C273.293 251.561 272.955 251.822 272.878 251.976L271.497 254.278C271.267 254.815 270.622 255.751 269.885 255.199C269.148 254.646 269.578 253.741 269.885 253.357C269.962 253.203 270.346 252.528 271.266 251.055C272.187 249.581 273.338 249.673 273.799 249.904Z" fill="#A3CF48"/>
<rect x="260.905" y="250.364" width="8.28809" height="1.38135" rx="0.690674" fill="#A3CF48"/>
<rect x="263.207" y="253.127" width="4.6045" height="1.38135" rx="0.690674" fill="#A3CF48"/>
<rect x="260.445" y="255.889" width="9.20899" height="1.38135" rx="0.690674" fill="#A3CF48"/>
<circle cx="272.736" cy="207.704" r="16.7834" fill="#E6E7EF" stroke="#E6E7EF"/>
<circle cx="272.736" cy="207.704" r="16.7834" fill="white" stroke="#FF3D71"/>
<circle cx="270.098" cy="206.092" r="4.1494" fill="#FF3D71"/>
<circle cx="262.553" cy="206.092" r="4.1494" fill="#FF3D71"/>
<path d="M267.122 216.738C266.722 217.265 265.929 217.265 265.529 216.738L259.378 208.64C258.877 207.982 259.347 207.035 260.174 207.035L272.477 207.035C273.304 207.035 273.773 207.982 273.273 208.64L267.122 216.738Z" fill="#FF3D71"/>
<path d="M269.856 210.688H275.903L277.853 200.503L279.803 210.688L280.779 216.346L281.754 210.688H283.704L284.679 206.161L285.655 210.688H288.58" stroke="#FF3D71" stroke-linejoin="round"/>
</svg>
