<?xml version="1.0" encoding="UTF-8" standalone="no"?>
<!DOCTYPE svg PUBLIC "-//W3C//DTD SVG 1.1//EN" "http://www.w3.org/Graphics/SVG/1.1/DTD/svg11.dtd">
<svg width="100%" height="100%" viewBox="0 0 415 94" version="1.1" xmlns="http://www.w3.org/2000/svg" xmlns:xlink="http://www.w3.org/1999/xlink" xml:space="preserve" xmlns:serif="http://www.serif.com/" style="fill-rule:evenodd;clip-rule:evenodd;stroke-linejoin:round;stroke-miterlimit:2;">
    <g transform="matrix(1,0,0,1,0,-2344.54)">
        <g id="Artboard4" transform="matrix(0.877797,0,0,0.542275,600.15,1095.19)">
            <rect x="-683.699" y="2303.9" width="472.608" height="172.831" style="fill:none;"/>
            <g transform="matrix(10.3766,0,0,16.7969,-9109.25,-48378.9)">
                <text x="824.374px" y="3027.38px" style="font-family:'Nunito-SemiBoldItalic', 'Nunito';font-weight:600;font-style:italic;font-size:12px;fill:rgb(56,56,56);">F<tspan x="831.586px 834.658px " y="3027.38px 3027.38px ">it</tspan>cor</text>
            </g>
            <g transform="matrix(1.77218,0,-0.168682,2.86868,-3880.58,-4505.51)">
                <g transform="matrix(-1.87506,2.19472,1.92782,1.64704,-1748.28,-2129.56)">
                    <path d="M342.817,2300.88C342.817,2300.88 342.817,2300.88 342.817,2300.88C340.735,2304.58 336.617,2305.8 333.299,2303.72C333.123,2303.6 332.945,2303.49 332.768,2303.38C331.083,2302.32 329.052,2302.38 327.416,2303.54C325.78,2304.7 324.779,2306.79 324.779,2309.05C324.779,2309.07 324.779,2309.1 324.779,2309.12C324.779,2312.67 327.213,2315.55 330.215,2315.55C333.27,2315.55 336.979,2315.55 339.579,2315.55C340.438,2315.55 341.262,2315.14 341.869,2314.42C342.476,2313.71 342.817,2312.73 342.817,2311.72C342.817,2307.37 342.817,2300.88 342.817,2300.88Z" style="fill:rgb(255,100,141);"/>
                </g>
                <g transform="matrix(1.62263,1.38629,-1.33549,1.56316,1958.11,-4023.41)">
                    <path d="M2005.18,2351.84C2004.56,2352.41 2003.75,2352.72 2002.91,2352.72C1999.27,2352.72 1993.37,2352.72 1988.6,2352.72C1984.38,2352.72 1980.96,2349.3 1980.96,2345.09C1980.96,2344.85 1980.96,2344.62 1980.96,2344.39C1980.96,2341.84 1982.3,2339.47 1984.49,2338.16C1986.67,2336.85 1989.39,2336.78 1991.64,2337.98C1991.64,2337.98 1991.64,2337.98 1991.64,2337.98C1991.94,2338.14 1992.24,2338.28 1992.54,2338.4C1992.57,2338.46 1992.6,2338.52 1992.63,2338.58C1992.76,2338.83 1992.9,2339.08 1993.03,2339.33C1995.51,2343.98 1994.05,2349.77 1989.65,2352.69C1989.65,2352.69 1989.65,2352.69 1989.65,2352.69C1989.65,2352.69 1997.37,2352.69 2002.54,2352.69C2003.49,2352.69 2004.41,2352.39 2005.18,2351.84Z" style="fill:rgb(255,61,113);"/>
                </g>
            </g>
            <g transform="matrix(2.04181,0,-0.194346,3.30513,-4374.63,-5567.13)">
                <g opacity="0">
                    <g transform="matrix(-1.87506,2.19472,1.92782,1.64704,-1748.28,-2129.56)">
                        <path d="M342.817,2300.88C342.817,2300.88 342.817,2300.88 342.817,2300.88C340.735,2304.58 336.617,2305.8 333.299,2303.72C333.123,2303.6 332.945,2303.49 332.768,2303.38C331.083,2302.32 329.052,2302.38 327.416,2303.54C325.78,2304.7 324.779,2306.79 324.779,2309.05C324.779,2309.07 324.779,2309.1 324.779,2309.12C324.779,2312.67 327.213,2315.55 330.215,2315.55C333.27,2315.55 336.979,2315.55 339.579,2315.55C340.438,2315.55 341.262,2315.14 341.869,2314.42C342.476,2313.71 342.817,2312.73 342.817,2311.72C342.817,2307.37 342.817,2300.88 342.817,2300.88Z" style="fill:rgb(255,100,141);"/>
                    </g>
                    <g transform="matrix(1.62263,1.38629,-1.33549,1.56316,1958.11,-4023.41)">
                        <path d="M2005.18,2351.84C2004.56,2352.41 2003.75,2352.72 2002.91,2352.72C1999.27,2352.72 1993.37,2352.72 1988.6,2352.72C1984.38,2352.72 1980.96,2349.3 1980.96,2345.09C1980.96,2344.85 1980.96,2344.62 1980.96,2344.39C1980.96,2341.84 1982.3,2339.47 1984.49,2338.16C1986.67,2336.85 1989.39,2336.78 1991.64,2337.98C1991.64,2337.98 1991.64,2337.98 1991.64,2337.98C1991.94,2338.14 1992.24,2338.28 1992.54,2338.4C1992.57,2338.46 1992.6,2338.52 1992.63,2338.58C1992.76,2338.83 1992.9,2339.08 1993.03,2339.33C1995.51,2343.98 1994.05,2349.77 1989.65,2352.69C1989.65,2352.69 1989.65,2352.69 1989.65,2352.69C1989.65,2352.69 1997.37,2352.69 2002.54,2352.69C2003.49,2352.69 2004.41,2352.39 2005.18,2351.84Z" style="fill:rgb(255,61,113);"/>
                    </g>
                </g>
            </g>
        </g>
    </g>
</svg>
