<svg width="64" height="64" viewBox="0 0 64 64" fill="none" xmlns="http://www.w3.org/2000/svg">
<g clip-path="url(#clip0)">
<circle cx="32" cy="32" r="32" fill="#EDF0FD"/>
<path d="M1 33H63V33C63 50.1208 49.1208 64 32 64V64C14.8792 64 1 50.1208 1 33V33Z" fill="#A7B4F8"/>
<path d="M1 30.3374H63C63 30.3374 63 35.1307 62.5156 37.8697C62.0312 40.6087 62.0312 39.9239 62.0312 39.9239L1.79101 39.9239C1.79101 39.9239 1 35.1307 1 31.0222C1 26.9136 1 30.3374 1 30.3374Z" fill="#EDF0FD"/>
<path d="M33.3639 19.0524C33.9053 23.8872 34.7245 28.6353 34.7245 28.6353C34.7245 28.6353 31.2994 25.2227 29.4737 20.265C27.648 15.3074 28.1131 10.6822 28.1131 10.6822C28.1131 10.6822 32.8226 14.2177 33.3639 19.0524Z" fill="#6279F3"/>
<path d="M33.2315 32.2715C31.0403 18.9398 32.5616 13.9361 33.5961 13.1007C33.8679 17.9812 33.6062 27.9415 35.4097 31.8897C37.6642 36.825 38.5669 49.4225 28.17 54.8376C29.8642 53.5559 32.4297 48.9356 33.4057 42.9422C33.007 43.7165 33.3126 44.9227 28.0161 46.0205C22.7195 47.1183 20.168 46.5294 19.5543 46.0977C23.7438 45.6951 31.885 41.9688 33.8928 38.0959C33.9878 35.7123 33.7216 35.2532 33.2315 32.2715Z" fill="#547AA7"/>
<path d="M33.4442 22.4647C34.0194 27.5849 35.2413 31.5821 35.2413 31.5821C35.2413 31.5821 38.17 29.184 39.1491 23.7758C40.1283 18.3676 37.7749 13.0643 37.7749 13.0643C37.7749 13.0643 32.8691 17.3445 33.4442 22.4647Z" fill="#6279F3"/>
<circle cx="32" cy="32" r="31.5" stroke="#6279F3"/>
</g>
<defs>
<clipPath id="clip0">
<rect width="64" height="64" fill="white"/>
</clipPath>
</defs>
</svg>
