<svg width="64" height="64" viewBox="0 0 64 64" fill="none" xmlns="http://www.w3.org/2000/svg">
<g clip-path="url(#clip0)">
<circle cx="32" cy="31" r="32" fill="white"/>
<path d="M0 32H64V32C64 49.1208 50.1208 63 33 63H31C13.8792 63 0 49.1208 0 32V32Z" fill="#F4DF6E"/>
<path d="M0 32H64C64 32 64 35.5 63.5 37.5C63 39.5 63 39 63 39L0.816529 39C0.816529 39 0 35.5 0 32.5C0 29.5 0 32 0 32Z" fill="white"/>
<path d="M38.5 42.5C37.7 39.7 34.5 37.6667 33 37C33 38.1667 33.5 40.6 35.5 41C37.5 41.4 38 44.1667 38.5 46.5C38.5 45.6667 39.3 45.3 38.5 42.5Z" fill="#295991"/>
<path d="M34.1155 49.7019C32.3575 48.1122 31.9811 45.2383 32.0127 44C32.8598 44.4435 34.5 44.5 34.0577 47.162C33.8089 48.6591 35.4967 50.0066 37.0187 51.2217L37.0199 51.2226C36.4148 50.9057 35.8736 51.2916 34.1155 49.7019Z" fill="#295991"/>
<path d="M40.9753 41.9471C40.0792 40.6143 37.9517 40.0936 37 39.9999C37.1854 40.6122 37.8541 41.8038 39.0454 41.6722C40.2366 41.5406 40.9583 42.9071 41.6111 44.0462C41.4786 43.6089 41.8714 43.2799 40.9753 41.9471Z" fill="#295991"/>
<path d="M27.3114 39.5865C28.1572 38.5221 30.5226 38.2017 31.5996 38.1745C31.4701 38.6757 30.8656 39.6345 29.4839 39.4606C28.1022 39.2868 27.4607 40.3888 26.8674 41.3047C26.9599 40.9467 26.4656 40.651 27.3114 39.5865Z" fill="#295991"/>
<path d="M29.0412 23.4917C29.4567 24.711 28.6527 25.7935 28.2124 26.5C27.902 26.0979 27.4877 25.7358 28.2049 24.9622C28.922 24.1887 28.3919 23.0762 27.977 22.113C28.1987 22.4002 28.6257 22.2723 29.0412 23.4917Z" fill="#295991"/>
<path d="M39.94 20.0436C38.6931 20.3671 37.6735 19.4848 37.0017 18.9931C37.4258 18.7135 37.8178 18.3274 38.5358 19.1001C39.2538 19.8729 40.4027 19.427 41.394 19.085C41.0911 19.2847 41.1869 19.7201 39.94 20.0436Z" fill="#295991"/>
<path d="M29.2086 13.7438C29.609 14.9682 30.9021 15.3504 31.6786 15.6507C31.6851 15.1428 31.7987 14.6044 30.7606 14.4169C29.7226 14.2294 29.4779 13.0216 29.2309 12.0024C29.2262 12.3652 28.8081 12.5195 29.2086 13.7438Z" fill="#295991"/>
<path d="M22.4088 25.0177C23.5887 25.5348 24.7352 24.8253 25.4764 24.4462C25.102 24.103 24.7762 23.6596 23.9448 24.3088C23.1134 24.9579 22.0497 24.3356 21.125 23.8408C21.3925 24.086 21.2289 24.5006 22.4088 25.0177Z" fill="#295991"/>
<path d="M36.5385 18.5019C33.5846 18.5019 31.7692 22.1984 31 24.3385C31.9231 26.6731 32.2732 23.7389 33.7692 21.8366C36 19 39.2486 19.2402 41 18.5019C42.3846 17.9183 42.8462 16.751 43 15C42.2308 15.9728 39.4923 18.5019 36.5385 18.5019Z" fill="#295991"/>
<path d="M28.3846 25.1192C30.8462 25.1192 32.359 29.4672 33 31.9845C32.2308 34.7306 31.939 31.2792 30.6923 29.0416C28.8333 25.705 26.1262 25.9876 24.6667 25.1192C23.5128 24.4327 23.1282 23.0596 23 21C23.641 22.1442 25.9231 25.1192 28.3846 25.1192Z" fill="#295991"/>
<path d="M31.2311 31.2715C29.0399 17.9398 31.2311 12.5 32 9.50001C32 12.5 32.9071 15 32.5 18C32.0929 21 32.316 28.4961 33.4094 30.8897C35.6638 35.825 36.5666 48.4226 26.1697 53.8376C27.8639 52.5559 30.4294 47.9356 31.4053 41.9422C31.0066 42.7165 31.3122 43.9228 26.0157 45.0205C20.7192 46.1183 18.1676 45.5294 17.5539 45.0977C21.7435 44.6951 29.8847 40.9688 31.8924 37.0959C31.9875 34.7123 31.7212 34.2533 31.2311 31.2715Z" fill="#295991"/>
<path d="M43.5563 13.7646C41.7047 15.6414 40.1791 16.6847 40.1791 16.6847C40.1791 16.6847 38.6406 14.996 39.3623 12.5348C40.0839 10.0736 42.766 8.69328 42.766 8.69328C42.766 8.69328 45.408 11.8877 43.5563 13.7646Z" fill="#A3CF48"/>
<path d="M36.5685 17.8232C35.5286 18.394 34.7366 18.6473 34.7366 18.6473C34.7366 18.6473 34.2907 17.7213 34.9187 16.7531C35.5466 15.7849 36.8806 15.535 36.8806 15.535C36.8806 15.535 37.6084 17.2524 36.5685 17.8232Z" fill="#A3CF48"/>
<path d="M43.3946 19.6988C42.2087 19.6701 41.3966 19.4914 41.3966 19.4914C41.3966 19.4914 41.4761 18.4666 42.5054 17.9448C43.5347 17.423 44.8137 17.877 44.8137 17.877C44.8137 17.877 44.5806 19.7275 43.3946 19.6988Z" fill="#A3CF48"/>
<path d="M21.8987 20.7408C22.1617 22.0382 22.5654 23.182 22.5654 23.182C22.5654 23.182 20.8407 23.6459 19.9285 22.8916C19.0162 22.1373 19.1393 20.0533 19.1393 20.0533C19.1393 20.0533 21.6357 19.4434 21.8987 20.7408Z" fill="#A3CF48"/>
<path d="M20.4495 24.2152C21.0832 24.6479 21.7133 24.9598 21.7133 24.9598C21.7133 24.9598 21.1844 25.8497 20.5005 25.9052C19.8166 25.9606 19.0252 25.0451 19.0252 25.0451C19.0252 25.0451 19.8157 23.7825 20.4495 24.2152Z" fill="#A3CF48"/>
<path d="M29.8249 21.4491C29.4005 22.0884 29.0966 22.7224 29.0966 22.7224C29.0966 22.7224 28.2 22.205 28.1358 21.5219C28.0715 20.8387 28.9768 20.0356 28.9768 20.0356C28.9768 20.0356 30.2494 20.8098 29.8249 21.4491Z" fill="#A3CF48"/>
<path d="M28.9911 13.905C29.3639 14.5757 29.7874 15.1369 29.7874 15.1369C29.7874 15.1369 28.9159 15.6956 28.2797 15.4388C27.6434 15.1819 27.346 14.0089 27.346 14.0089C27.346 14.0089 28.6183 13.2343 28.9911 13.905Z" fill="#A3CF48"/>
<path d="M31.4909 9.93717C31.1587 10.8828 30.9743 11.7879 30.9743 11.7879C30.9743 11.7879 29.7085 11.3711 29.4227 10.5061C29.1369 9.64105 30.0144 7.34846 30.0144 7.34846C30.0144 7.34846 31.823 8.9915 31.4909 9.93717Z" fill="#A3CF48"/>
<path d="M27.2313 17.1561C26.9873 20.2296 27.0776 23.1813 27.0776 23.1813C27.0776 23.1813 23.7593 21.7166 22.5521 18.8592C21.3448 16.0019 22.7058 11.834 22.7058 11.834C22.7058 11.834 27.4753 14.0827 27.2313 17.1561Z" fill="#A3CF48"/>
<path d="M37.1766 26.628C35.3608 28.0538 33.5001 28.8825 33.5001 28.8825C33.5001 28.8825 32.5168 27.038 33.525 24.9482C34.5332 22.8584 37.4217 22.0283 37.4217 22.0283C37.4217 22.0283 38.9924 25.2023 37.1766 26.628Z" fill="#A3CF48"/>
<path d="M24.8744 25.6722C26.4226 26.0682 27.6619 26.7407 27.6619 26.7407C27.6619 26.7407 27.0635 28.058 25.4911 28.3853C23.9188 28.7126 22.2455 27.4764 22.2455 27.4764C22.2455 27.4764 23.3262 25.2762 24.8744 25.6722Z" fill="#A3CF48"/>
<path d="M32.8358 9.32092C32.8749 12.2576 33.4231 14.648 33.4231 14.648C33.4231 14.648 35.5465 13.6772 36.5677 10.776C37.5889 7.87488 36.3713 4.61075 36.3713 4.61075C36.3713 4.61075 32.7966 6.38422 32.8358 9.32092Z" fill="#A3CF48"/>
<circle cx="32" cy="32" r="31.5" stroke="#EFCE26"/>
</g>
<defs>
<clipPath id="clip0">
<rect width="64" height="64" fill="white"/>
</clipPath>
</defs>
</svg>
