<svg width="64" height="64" viewBox="0 0 64 64" fill="none" xmlns="http://www.w3.org/2000/svg">
<g clip-path="url(#clip0)">
<circle cx="32" cy="32" r="32" fill="#EDF0FD"/>
<path d="M1 33H63V33C63 50.1208 49.1208 64 32 64V64C14.8792 64 1 50.1208 1 33V33Z" fill="#A7B4F8"/>
<path d="M1 32.0942H63C63 32.0942 63 36.016 62.5156 38.257C62.0312 40.498 62.0312 39.9378 62.0312 39.9378L1.79101 39.9378C1.79101 39.9378 1 36.016 1 32.6545C1 29.293 1 32.0942 1 32.0942Z" fill="#EDF0FD"/>
<path d="M44.1883 17.871C43.3904 18.4605 42.4084 18.1231 41.7871 17.9648C42.0098 17.6432 42.1789 17.2546 42.9139 17.6004C43.649 17.9462 44.3417 17.2975 44.9518 16.7683C44.7927 16.998 44.9862 17.2815 44.1883 17.871Z" fill="#547AA7"/>
<path d="M42.4535 46.6842C41.2239 42.2632 36.3055 39.0526 34 38C34 39.8421 34.7685 43.6842 37.8425 44.3158C40.9165 44.9474 41.685 49.3158 42.4535 53C42.4535 51.6842 43.6831 51.1053 42.4535 46.6842Z" fill="#547AA7"/>
<path d="M35.772 54.9429C32.9375 52.3797 32.3306 47.746 32.3816 45.7495C33.7474 46.4646 36.3919 46.5557 35.6787 50.8477C35.2776 53.2616 37.9989 55.4341 40.453 57.3933L40.4548 57.3947C39.4792 56.8839 38.6065 57.506 35.772 54.9429Z" fill="#547AA7"/>
<path d="M44.9693 44.0781C43.2205 42.3352 39.8568 42.1843 38.3936 42.3267C38.8557 43.1948 40.2195 44.7926 41.9768 44.2389C43.7341 43.6853 45.2299 45.531 46.554 47.0544C46.2238 46.4343 46.7181 45.821 44.9693 44.0781Z" fill="#547AA7"/>
<path d="M44.9609 48.8166C44.0206 47.359 41.7338 46.7531 40.708 46.6324C40.8957 47.2974 41.5934 48.5979 42.8825 48.4802C44.1716 48.3625 44.9229 49.853 45.6045 51.0965C45.4704 50.6215 45.9013 50.2743 44.9609 48.8166Z" fill="#547AA7"/>
<path d="M38.5674 50.7642C37.6066 49.3199 35.3116 48.7463 34.2842 48.64C34.4812 49.3023 35.1971 50.5928 36.4844 50.457C37.7718 50.3212 38.5439 51.801 39.2429 53.0348C39.1022 52.5618 39.5282 52.2085 38.5674 50.7642Z" fill="#547AA7"/>
<path d="M25.4578 52.9066C27.1978 52.0533 29.8105 52.8327 30.8994 53.3291C30.3462 53.8627 28.9346 54.7085 27.7146 53.8231C26.4946 52.9377 24.925 53.9359 23.5609 54.736C23.9561 54.3548 23.7179 53.7598 25.4578 52.9066Z" fill="#547AA7"/>
<path d="M25.0415 50.7881C27.2921 49.8758 28.7081 46.9628 29.1348 45.6203C28.1692 45.714 26.1971 46.339 26.0328 48.0897C25.8685 49.8405 23.6205 50.4923 21.7312 51.1093C22.4208 51.0424 22.791 51.7004 25.0415 50.7881Z" fill="#547AA7"/>
<path d="M46.656 49.0199C45.8094 49.316 44.6517 48.8136 44.1787 48.5254C44.4624 48.3108 45.1577 48 45.6695 48.4742C46.1813 48.9484 46.9577 48.5763 47.6287 48.2839C47.4261 48.4372 47.5027 48.7238 46.656 49.0199Z" fill="#547AA7"/>
<path d="M24.6743 41.5494C26.2874 39.7088 30.7178 39.3173 32.7314 39.3516C32.4741 40.2388 31.3153 41.9089 28.7383 41.4913C26.1613 41.0738 24.9289 42.9974 23.7921 44.5914C23.9759 43.9577 23.0613 43.3901 24.6743 41.5494Z" fill="#547AA7"/>
<path d="M21.9137 42.0444C22.7401 41.1886 24.8273 41.1091 25.7676 41.1762C25.6125 41.6018 25.0052 42.3859 23.8164 42.118C22.6277 41.8501 21.976 42.7558 21.382 43.5034C21.4928 43.1995 21.0873 42.9002 21.9137 42.0444Z" fill="#547AA7"/>
<path d="M34.0474 56.3813C33.9182 55.5074 34.8168 54.2434 35.2822 53.7206C35.4624 54.0045 35.6486 54.717 34.9526 55.2951C34.2565 55.8732 34.4942 56.6668 34.665 57.3549C34.5364 57.1521 34.1766 57.2551 34.0474 56.3813Z" fill="#547AA7"/>
<path d="M20.1929 49.4066C20.762 48.0976 22.8314 47.2257 23.7949 46.9533C23.7685 47.5088 23.3974 48.6522 22.1237 48.7826C20.8501 48.913 20.4713 50.2151 20.1024 51.311C20.1213 50.9142 19.6237 50.7156 20.1929 49.4066Z" fill="#547AA7"/>
<path d="M28.2935 49.4066C28.8626 48.0976 30.932 47.2257 31.8955 46.9533C31.8691 47.5088 31.4979 48.6522 30.2243 48.7826C28.9506 48.913 28.5719 50.2151 28.203 51.311C28.2218 50.9142 27.7243 50.7156 28.2935 49.4066Z" fill="#547AA7"/>
<path d="M40.9085 21.4566C39.3602 21.8583 38.0941 20.7627 37.2599 20.1521C37.7866 19.805 38.2733 19.3254 39.1649 20.285C40.0565 21.2446 41.4831 20.691 42.7142 20.2663C42.338 20.5143 42.4569 21.0548 40.9085 21.4566Z" fill="#547AA7"/>
<path d="M45.0081 29.1942C43.2543 29.6493 41.8203 28.4083 40.8754 27.7168C41.4719 27.3235 42.0232 26.7804 43.0331 27.8673C44.043 28.9542 45.6589 28.3271 47.0532 27.846C46.6271 28.1269 46.7618 28.7392 45.0081 29.1942Z" fill="#547AA7"/>
<path d="M30.2273 9.69473C30.1544 11.194 31.4031 12.1476 32.1236 12.7972C32.3418 12.2469 32.6893 11.7081 31.6372 11.0725C30.5851 10.437 30.8208 9.02043 30.9755 7.80825C30.8196 8.20127 30.3003 8.19543 30.2273 9.69473Z" fill="#547AA7"/>
<path d="M36.6786 12.3898C35.6941 13.8885 33.012 14.7869 30.9915 15.2782C30.9471 14.6879 30.6201 14.0818 33.3327 13.674C36.0452 13.2663 36.6218 11.8153 37.2149 10.5834C37.2466 11.005 37.6631 10.8911 36.6786 12.3898Z" fill="#547AA7"/>
<path d="M24.2769 12.8848C24.6972 13.3534 24.5429 13.9939 24.4802 14.3958C24.2637 14.2745 24.0082 14.191 24.1825 13.7059C24.3568 13.2209 23.9055 12.8222 23.5346 12.4687C23.6893 12.5553 23.8567 12.4161 24.2769 12.8848Z" fill="#547AA7"/>
<path d="M48.7219 25.133C47.8182 25.8007 46.7059 25.4185 46.0022 25.2393C46.2544 24.875 46.4459 24.4349 47.2785 24.8266C48.1111 25.2182 48.8957 24.4835 49.5867 23.884C49.4065 24.1442 49.6257 24.4654 48.7219 25.133Z" fill="#547AA7"/>
<path d="M25.8476 13.4453C26.7961 16.1498 29.8584 16.9941 31.6973 17.6574C31.7128 16.5354 31.9213 15.6125 29.5234 14.932C25.4926 13.7881 26.4856 11.8498 25.9005 9.59846C25.8895 10.3999 24.8991 10.7407 25.8476 13.4453Z" fill="#547AA7"/>
<path d="M23.3648 14.6011C24.7623 15.3795 26.3116 14.7187 27.3007 14.3848C26.8855 13.9282 26.5472 13.3618 25.4024 13.9984C24.2575 14.635 23.0223 13.7506 21.9413 13.0359C22.2379 13.3619 21.9674 13.8227 23.3648 14.6011Z" fill="#547AA7"/>
<path d="M36.5385 19.4327C33.5846 19.4327 31.7692 23.056 31 25.1538C31.9231 27.4422 32.2732 24.566 33.7692 22.7013C36 19.9209 39.2486 20.1563 41 19.4327C42.3846 18.8606 42.8462 17.7163 43 16C42.2308 16.9535 39.4923 19.4327 36.5385 19.4327Z" fill="#547AA7"/>
<path d="M40.4615 27.1192C37.0154 27.1192 34.8974 31.4672 34 33.9845C35.0769 36.7306 35.4854 33.2792 37.2308 31.0416C39.8333 27.705 43.6233 27.9876 45.6667 27.1192C47.2821 26.4327 47.8205 25.0596 48 23C47.1026 24.1442 43.9077 27.1192 40.4615 27.1192Z" fill="#547AA7"/>
<path d="M31.7173 32.0483C29.1816 16.6211 31.7173 10.3263 32.607 6.85472C32.607 10.3263 32.39 13.1132 31.9188 16.5848C31.4477 20.0563 32.9726 28.8367 34.2379 31.6065C36.8467 37.3175 37.8913 51.8952 25.8602 58.1614C27.8207 56.6782 30.7894 51.3317 31.9188 44.3962C31.4575 45.2922 31.8111 46.6881 25.682 47.9584C19.553 49.2288 16.6004 48.5473 15.8902 48.0477C20.7383 47.5818 30.1592 43.2698 32.4825 38.7882C32.5925 36.0299 32.2844 35.4987 31.7173 32.0483Z" fill="#547AA7"/>
<path d="M48.3831 21.4193C46.6569 23.1689 45.2348 24.1415 45.2348 24.1415C45.2348 24.1415 43.8006 22.5673 44.4733 20.273C45.146 17.9786 47.6463 16.6918 47.6463 16.6918C47.6463 16.6918 50.1092 19.6697 48.3831 21.4193Z" fill="#6279F3"/>
<path d="M42.8023 25.2758C41.8329 25.8079 41.0946 26.0441 41.0946 26.0441C41.0946 26.0441 40.6789 25.1809 41.2643 24.2783C41.8497 23.3757 43.0932 23.1428 43.0932 23.1428C43.0932 23.1428 43.7717 24.7437 42.8023 25.2758Z" fill="#6279F3"/>
<path d="M50.3742 26.4704C49.449 25.8647 48.8935 25.3239 48.8935 25.3239C48.8935 25.3239 49.4603 24.5514 50.532 24.644C51.6038 24.7367 52.3937 25.725 52.3937 25.725C52.3937 25.725 51.2994 27.0761 50.3742 26.4704Z" fill="#6279F3"/>
<path d="M46.8773 27.3595C46.4121 27.0549 46.1327 26.7829 46.1327 26.7829C46.1327 26.7829 46.4177 26.3944 46.9567 26.441C47.4957 26.4876 47.8929 26.9846 47.8929 26.9846C47.8929 26.9846 47.3426 27.6641 46.8773 27.3595Z" fill="#6279F3"/>
<path d="M22.9037 11.1325C22.936 12.1426 23.0938 13.055 23.0938 13.055C23.0938 13.055 21.7365 13.1839 21.1463 12.4997C20.556 11.8155 20.9147 10.2628 20.9147 10.2628C20.9147 10.2628 22.8714 10.1225 22.9037 11.1325Z" fill="#6279F3"/>
<path d="M30.13 8.46661C29.8203 9.34817 29.6484 10.1918 29.6484 10.1918C29.6484 10.1918 28.4685 9.80331 28.202 8.99694C27.9356 8.19057 28.7536 6.05341 28.7536 6.05341C28.7536 6.05341 30.4396 7.58506 30.13 8.46661Z" fill="#6279F3"/>
<path d="M34.0253 9.59904C33.2589 9.69717 32.5716 9.88303 32.5716 9.88303C32.5716 9.88303 32.4211 8.86681 32.9182 8.3708C33.4154 7.87479 35.2984 7.68671 35.2984 7.68671C35.2984 7.68671 34.7917 9.50092 34.0253 9.59904Z" fill="#6279F3"/>
<path d="M29.7853 13.3924C29.5957 14.0767 29.5086 14.7253 29.5086 14.7253C29.5086 14.7253 28.5939 14.4911 28.3506 13.8934C28.1072 13.2956 28.6179 11.633 28.6179 11.633C28.6179 11.633 29.9749 12.708 29.7853 13.3924Z" fill="#6279F3"/>
<path d="M36.4777 27.9952C34.9133 29.2235 33.3102 29.9374 33.3102 29.9374C33.3102 29.9374 32.4631 28.3483 33.3317 26.5479C34.2003 24.7475 36.6889 24.0324 36.6889 24.0324C36.6889 24.0324 38.042 26.7668 36.4777 27.9952Z" fill="#6279F3"/>
<path d="M39.9277 25.1898C39.2774 25.9472 38.5578 26.455 38.5578 26.455C38.5578 26.455 37.9857 25.7553 38.2377 24.7842C38.4898 23.8131 39.6452 23.2183 39.6452 23.2183C39.6452 23.2183 40.5781 24.4325 39.9277 25.1898Z" fill="#6279F3"/>
<path d="M42.9326 15.9923C42.0343 17.0384 41.0402 17.7399 41.0402 17.7399C41.0402 17.7399 40.2501 16.7733 40.5982 15.4319C40.9463 14.0905 42.5423 13.2689 42.5423 13.2689C42.5423 13.2689 43.831 14.9462 42.9326 15.9923Z" fill="#6279F3"/>
<path d="M47.3462 16.0026C45.6173 16.4662 44.0381 16.4904 44.0381 16.4904C44.0381 16.4904 43.8988 14.8758 45.254 13.6927C46.6093 12.5097 48.9217 12.7975 48.9217 12.7975C48.9217 12.7975 49.0751 15.5389 47.3462 16.0026Z" fill="#6279F3"/>
<path d="M37.3375 9.08801C39.1146 8.45363 40.7718 8.29376 40.7718 8.29376C40.7718 8.29376 41.0557 9.97842 39.7324 11.3369C38.4092 12.6954 35.955 12.5898 35.955 12.5898C35.955 12.5898 35.5604 9.7224 37.3375 9.08801Z" fill="#6279F3"/>
<path d="M38.5983 12.518C39.5001 12.9787 40.1724 13.5672 40.1724 13.5672C40.1724 13.5672 39.6189 14.2981 38.6013 14.2811C37.5836 14.2642 36.7217 13.2667 36.7217 13.2667C36.7217 13.2667 37.6965 12.0573 38.5983 12.518Z" fill="#6279F3"/>
<path d="M33.5646 11.649C33.6933 10.6445 34.0198 9.81283 34.0198 9.81283C34.0198 9.81283 34.8948 10.0867 35.2229 11.0501C35.551 12.0135 34.9037 13.162 34.9037 13.162C34.9037 13.162 33.4359 12.6534 33.5646 11.649Z" fill="#6279F3"/>
<path d="M30.9223 6.56932C31.0831 5.31393 31.4912 4.27448 31.4912 4.27448C31.4912 4.27448 32.5847 4.61674 32.9948 5.82085C33.4049 7.02495 32.5959 8.4603 32.5959 8.4603C32.5959 8.4603 30.7614 7.82471 30.9223 6.56932Z" fill="#6279F3"/>
<path d="M32.9393 17.6076C32.5652 19.587 32.6077 21.2687 32.6077 21.2687C32.6077 21.2687 34.1674 20.9056 35.2496 19.0947C36.3317 17.2838 35.9583 14.9235 35.9583 14.9235C35.9583 14.9235 33.3135 15.6282 32.9393 17.6076Z" fill="#6279F3"/>
<path d="M48.5743 32.4562C46.461 31.2014 45.175 30.0548 45.175 30.0548C45.175 30.0548 46.3582 28.2842 48.747 28.3855C51.1358 28.4868 52.9859 30.6043 52.9859 30.6043C52.9859 30.6043 50.6876 33.711 48.5743 32.4562Z" fill="#6279F3"/>
<path d="M39.4448 31.3722C37.9073 30.9312 36.9085 30.4216 36.9085 30.4216C36.9085 30.4216 37.361 29.1117 38.8816 28.7811C40.4021 28.4506 41.9164 29.4782 41.9164 29.4782C41.9164 29.4782 40.9824 31.8133 39.4448 31.3722Z" fill="#6279F3"/>
<path d="M50.2564 23.4071C49.2917 23.9478 48.5555 24.1905 48.5555 24.1905C48.5555 24.1905 48.1322 23.331 48.7095 22.4232C49.2869 21.5155 50.5283 21.2716 50.5283 21.2716C50.5283 21.2716 51.221 22.8664 50.2564 23.4071Z" fill="#6279F3"/>
<path d="M43.7711 31.402C42.8501 31.5583 42.1956 31.5424 42.1956 31.5424C42.1956 31.5424 42.1028 30.7384 42.8199 30.1802C43.5369 29.622 44.5938 29.7804 44.5938 29.7804C44.5938 29.7804 44.692 31.2458 43.7711 31.402Z" fill="#6279F3"/>
<path d="M42.7658 19.9319C41.7564 20.4525 40.7806 20.6804 40.7806 20.6804C40.7806 20.6804 40.4764 19.6981 41.1572 18.7818C41.838 17.8656 43.3105 17.7323 43.3105 17.7323C43.3105 17.7323 43.7752 19.4113 42.7658 19.9319Z" fill="#6279F3"/>
<path d="M37.9917 21.8345C37.4466 21.1365 37.1306 20.4219 37.1306 20.4219C37.1306 20.4219 37.8392 20.0466 38.6398 20.4354C39.4404 20.8243 39.7559 21.9332 39.7559 21.9332C39.7559 21.9332 38.5368 22.5325 37.9917 21.8345Z" fill="#6279F3"/>
<path d="M39.5572 18.1131C39.3101 18.6328 38.9868 19.0241 38.9868 19.0241C38.9868 19.0241 38.5627 18.7215 38.5559 18.1433C38.549 17.565 39.1016 17.0594 39.1016 17.0594C39.1016 17.0594 39.8043 17.5935 39.5572 18.1131Z" fill="#6279F3"/>
<path d="M45.4186 17.5313C44.8477 17.5874 44.3471 17.5124 44.3471 17.5124C44.3471 17.5124 44.3875 16.9945 44.878 16.6914C45.3685 16.3882 46.0847 16.6003 46.0847 16.6003C46.0847 16.6003 45.9896 17.4752 45.4186 17.5313Z" fill="#6279F3"/>
<path d="M30.281 12.1662C29.8528 11.5809 29.6126 10.9879 29.6126 10.9879C29.6126 10.9879 30.2022 10.699 30.8474 11.0379C31.4926 11.3767 31.7223 12.2924 31.7223 12.2924C31.7223 12.2924 30.7091 12.7515 30.281 12.1662Z" fill="#6279F3"/>
<path d="M35.8112 13.393C36.3053 13.6223 36.6788 13.925 36.6788 13.925C36.6788 13.925 36.3961 14.3292 35.8487 14.3408C35.3012 14.3524 34.8175 13.8338 34.8175 13.8338C34.8175 13.8338 35.317 13.1637 35.8112 13.393Z" fill="#6279F3"/>
<path d="M27.1304 18.0379C26.1812 17.6596 25.4506 17.1315 25.4506 17.1315C25.4506 17.1315 25.9381 16.3453 26.962 16.2669C27.986 16.1884 28.9455 17.1096 28.9455 17.1096C28.9455 17.1096 28.0796 18.4161 27.1304 18.0379Z" fill="#6279F3"/>
<path d="M24.2066 10.1904C24.1823 9.43163 24.325 8.77722 24.325 8.77722C24.325 8.77722 25.0052 8.8758 25.3627 9.54984C25.7202 10.2239 25.3777 11.1509 25.3777 11.1509C25.3777 11.1509 24.2309 10.9492 24.2066 10.1904Z" fill="#6279F3"/>
<path d="M26.6665 10.8827C27.2901 10.2288 27.9646 9.80363 27.9646 9.80363C27.9646 9.80363 28.4488 10.4632 28.1751 11.3292C27.9015 12.1952 26.8289 12.6784 26.8289 12.6784C26.8289 12.6784 26.0428 11.5367 26.6665 10.8827Z" fill="#6279F3"/>
<path d="M19.7049 15.9909C18.2321 15.2983 17.1211 14.3885 17.1211 14.3885C17.1211 14.3885 17.9718 13.1853 19.6074 13.1589C21.2429 13.1326 22.68 14.6894 22.68 14.6894C22.68 14.6894 21.1778 16.6834 19.7049 15.9909Z" fill="#6279F3"/>
<path d="M24.4385 16.6031C23.5881 16.6423 22.8521 16.4927 22.8521 16.4927C22.8521 16.4927 22.9519 15.7284 23.702 15.3169C24.4521 14.9054 25.497 15.2747 25.497 15.2747C25.497 15.2747 25.2889 16.5639 24.4385 16.6031Z" fill="#6279F3"/>
<path d="M28.187 24.0975C28.7906 25.7149 27.6227 27.1506 26.983 28.0878C26.5321 27.5544 25.9303 27.0741 26.9721 26.0481C28.014 25.022 27.2438 23.5463 26.641 22.2688C26.9631 22.6498 27.5834 22.4801 28.187 24.0975Z" fill="#547AA7"/>
<path d="M21.4781 29.7694C23.3584 29.5754 24.599 27.6057 25.4396 26.4494C24.7562 26.2477 24.0915 25.8596 23.257 27.4858C22.4226 29.1119 20.6518 29.0575 19.1348 29.0779C19.623 29.222 19.5978 29.9635 21.4781 29.7694Z" fill="#547AA7"/>
<path d="M16.2271 26.5185C18.8348 27.562 21.3688 26.1301 23.0071 25.3653C22.1795 24.6726 21.4595 23.7778 19.6219 25.0878C17.7843 26.3979 15.4334 25.1421 13.3898 24.1435C13.9809 24.6383 13.6194 25.475 16.2271 26.5185Z" fill="#547AA7"/>
<path d="M27.4286 26.3922C30.9333 26.3922 33.0873 32.1896 34 35.546C32.9048 39.2075 32.4894 34.6056 30.7143 31.6221C28.0675 27.1734 24.213 27.5501 22.1349 26.3922C20.4921 25.4768 19.9444 23.6461 19.7619 20.9C20.6746 22.4256 23.9238 26.3922 27.4286 26.3922Z" fill="#547AA7"/>
<path d="M17.8113 21.2166C18.1933 22.9376 18.7798 24.4547 18.7798 24.4547C18.7798 24.4547 16.2743 25.07 14.9491 24.0695C13.6238 23.0689 13.8025 20.3047 13.8025 20.3047C13.8025 20.3047 17.4292 19.4957 17.8113 21.2166Z" fill="#6279F3"/>
<path d="M15.2966 26.4465C16.2592 26.9599 17.2042 27.3139 17.2042 27.3139C17.2042 27.3139 16.5286 28.5407 15.5432 28.6778C14.5577 28.8149 13.3174 27.6774 13.3174 27.6774C13.3174 27.6774 14.3341 25.9331 15.2966 26.4465Z" fill="#6279F3"/>
<path d="M29.326 21.3882C28.7093 22.2361 28.268 23.0771 28.268 23.0771C28.268 23.0771 26.9654 22.3908 26.8721 21.4847C26.7787 20.5786 28.0938 19.5133 28.0938 19.5133C28.0938 19.5133 29.9426 20.5402 29.326 21.3882Z" fill="#6279F3"/>
<path d="M24.3118 21.4053C23.7118 22.9174 23.3144 24.4146 23.3144 24.4146C23.3144 24.4146 21.7083 23.2189 21.4762 21.6147C21.244 20.0106 22.6251 18.1025 22.6251 18.1025C22.6251 18.1025 24.9118 19.8933 24.3118 21.4053Z" fill="#6279F3"/>
<path d="M22.1377 30.6743C23.4431 28.9214 24.9737 27.6785 24.9737 27.6785C24.9737 27.6785 26.4781 29.0187 26.1491 31.1278C25.82 33.2368 23.305 34.767 23.305 34.767C23.305 34.767 20.8323 32.4271 22.1377 30.6743Z" fill="#6279F3"/>
<path d="M20.5457 25.6818C21.9599 26.0618 23.0802 26.6652 23.0802 26.6652C23.0802 26.6652 22.4851 27.756 21.0247 27.984C19.5643 28.2121 18.0626 27.1211 18.0626 27.1211C18.0626 27.1211 19.1316 25.3017 20.5457 25.6818Z" fill="#6279F3"/>
<path d="M26.2561 24.7595C25.8828 25.7186 25.6778 26.6322 25.6778 26.6322C25.6778 26.6322 24.2319 26.2545 23.9009 25.396C23.5699 24.5376 24.5631 23.2131 24.5631 23.2131C24.5631 23.2131 26.6293 23.8004 26.2561 24.7595Z" fill="#6279F3"/>
<path d="M20.9517 20.5114C20.3993 21.1238 19.9834 21.7436 19.9834 21.7436C19.9834 21.7436 19.0337 21.1164 19.0408 20.407C19.0478 19.6977 20.1607 18.9679 20.1607 18.9679C20.1607 18.9679 21.504 19.8991 20.9517 20.5114Z" fill="#6279F3"/>
<path d="M13.3244 24.8076C13.7492 25.4996 14.2312 26.0781 14.2312 26.0781C14.2312 26.0781 13.2467 26.659 12.5252 26.3959C11.8037 26.1328 11.4621 24.9213 11.4621 24.9213C11.4621 24.9213 12.8995 24.1156 13.3244 24.8076Z" fill="#6279F3"/>
<path d="M29.9138 25.7354C28.9757 26.2852 28.2011 26.8931 28.2011 26.8931C28.2011 26.8931 27.3109 25.7863 27.6247 24.9225C27.9385 24.0586 29.6118 23.5664 29.6118 23.5664C29.6118 23.5664 30.852 25.1856 29.9138 25.7354Z" fill="#6279F3"/>
<circle cx="32" cy="32" r="31.5" stroke="#6279F3"/>
</g>
<defs>
<clipPath id="clip0">
<rect width="64" height="64" fill="white"/>
</clipPath>
</defs>
</svg>
