<svg width="64" height="64" viewBox="0 0 64 64" fill="none" xmlns="http://www.w3.org/2000/svg">
<g clip-path="url(#clip0)">
<circle cx="32" cy="32" r="32" fill="#EDF0FD"/>
<path d="M1 33H63V33C63 50.1208 49.1208 64 32 64V64C14.8792 64 1 50.1208 1 33V33Z" fill="#A7B4F8"/>
<path d="M43.5563 14.7646C41.7047 16.6414 40.1791 17.6847 40.1791 17.6847C40.1791 17.6847 38.6406 15.996 39.3623 13.5348C40.0839 11.0736 42.766 9.69328 42.766 9.69328C42.766 9.69328 45.408 12.8877 43.5563 14.7646Z" fill="#6279F3"/>
<path d="M36.5685 18.8232C35.5286 19.394 34.7366 19.6473 34.7366 19.6473C34.7366 19.6473 34.2907 18.7213 34.9187 17.7531C35.5466 16.7849 36.8806 16.535 36.8806 16.535C36.8806 16.535 37.6084 18.2524 36.5685 18.8232Z" fill="#6279F3"/>
<path d="M43.3946 20.6988C42.2087 20.6701 41.3966 20.4914 41.3966 20.4914C41.3966 20.4914 41.4761 19.4666 42.5054 18.9448C43.5347 18.423 44.8137 18.877 44.8137 18.877C44.8137 18.877 44.5806 20.7275 43.3946 20.6988Z" fill="#6279F3"/>
<path d="M1 30.3374H63C63 30.3374 63 35.1307 62.5156 37.8697C62.0312 40.6087 62.0312 39.9239 62.0312 39.9239L1.79101 39.9239C1.79101 39.9239 1 35.1307 1 31.0222C1 26.9136 1 30.3374 1 30.3374Z" fill="#EDF0FD"/>
<path d="M21.8987 21.7408C22.1617 23.0382 22.5654 24.182 22.5654 24.182C22.5654 24.182 20.8407 24.6459 19.9285 23.8916C19.0162 23.1373 19.1393 21.0533 19.1393 21.0533C19.1393 21.0533 21.6357 20.4434 21.8987 21.7408Z" fill="#6279F3"/>
<path d="M20.4495 25.2152C21.0832 25.6479 21.7133 25.9598 21.7133 25.9598C21.7133 25.9598 21.1844 26.8497 20.5005 26.9052C19.8166 26.9606 19.0252 26.0451 19.0252 26.0451C19.0252 26.0451 19.8157 24.7825 20.4495 25.2152Z" fill="#6279F3"/>
<path d="M29.8249 22.4491C29.4005 23.0884 29.0966 23.7224 29.0966 23.7224C29.0966 23.7224 28.2 23.205 28.1358 22.5219C28.0715 21.8387 28.9768 21.0356 28.9768 21.0356C28.9768 21.0356 30.2494 21.8098 29.8249 22.4491Z" fill="#6279F3"/>
<path d="M28.9911 14.905C29.3639 15.5757 29.7874 16.1369 29.7874 16.1369C29.7874 16.1369 28.9159 16.6956 28.2797 16.4388C27.6434 16.1819 27.346 15.0089 27.346 15.0089C27.346 15.0089 28.6183 14.2343 28.9911 14.905Z" fill="#6279F3"/>
<path d="M31.4909 10.9372C31.1587 11.8828 30.9743 12.7879 30.9743 12.7879C30.9743 12.7879 29.7085 12.3711 29.4227 11.5061C29.1369 10.641 30.0144 8.34846 30.0144 8.34846C30.0144 8.34846 31.823 9.9915 31.4909 10.9372Z" fill="#6279F3"/>
<path d="M27.2313 18.1561C26.9873 21.2296 27.0776 24.1813 27.0776 24.1813C27.0776 24.1813 23.7593 22.7166 22.5521 19.8592C21.3448 17.0019 22.7058 12.834 22.7058 12.834C22.7058 12.834 27.4753 15.0827 27.2313 18.1561Z" fill="#6279F3"/>
<path d="M37.1766 27.628C35.3608 29.0538 33.5001 29.8825 33.5001 29.8825C33.5001 29.8825 32.5168 28.038 33.525 25.9482C34.5332 23.8584 37.4217 23.0283 37.4217 23.0283C37.4217 23.0283 38.9924 26.2023 37.1766 27.628Z" fill="#6279F3"/>
<path d="M24.8744 26.6722C26.4226 27.0682 27.6619 27.7407 27.6619 27.7407C27.6619 27.7407 27.0635 29.058 25.4911 29.3853C23.9188 29.7126 22.2455 28.4764 22.2455 28.4764C22.2455 28.4764 23.3262 26.2762 24.8744 26.6722Z" fill="#6279F3"/>
<path d="M38.5 43.5C37.7 40.7 34.5 38.6667 33 38C33 39.1667 33.5 41.6 35.5 42C37.5 42.4 38 45.1667 38.5 47.5C38.5 46.6667 39.3 46.3 38.5 43.5Z" fill="#547AA7"/>
<path d="M34.1155 50.7019C32.3575 49.1122 31.9811 46.2383 32.0127 45C32.8598 45.4435 34.5 45.5 34.0577 48.162C33.8089 49.6591 35.4967 51.0066 37.0187 52.2217L37.0199 52.2226C36.4148 51.9057 35.8736 52.2916 34.1155 50.7019Z" fill="#547AA7"/>
<path d="M40.9753 42.9471C40.0792 41.6143 37.9517 41.0936 37 40.9999C37.1854 41.6122 37.8541 42.8038 39.0454 42.6722C40.2366 42.5406 40.9583 43.9071 41.6111 45.0462C41.4786 44.6089 41.8714 44.2799 40.9753 42.9471Z" fill="#547AA7"/>
<path d="M27.3114 40.5865C28.1572 39.5221 30.5226 39.2017 31.5996 39.1745C31.4701 39.6757 30.8656 40.6345 29.4839 40.4606C28.1022 40.2868 27.4607 41.3888 26.8674 42.3047C26.9599 41.9467 26.4656 41.651 27.3114 40.5865Z" fill="#547AA7"/>
<path d="M29.0412 24.4917C29.4567 25.711 28.6527 26.7935 28.2124 27.5C27.902 27.0979 27.4877 26.7358 28.2049 25.9622C28.922 25.1887 28.3919 24.0762 27.977 23.113C28.1987 23.4002 28.6257 23.2723 29.0412 24.4917Z" fill="#547AA7"/>
<path d="M39.94 21.0436C38.6931 21.3671 37.6735 20.4848 37.0017 19.9931C37.4258 19.7135 37.8178 19.3274 38.5358 20.1001C39.2538 20.8729 40.4027 20.427 41.394 20.085C41.0911 20.2847 41.1869 20.7201 39.94 21.0436Z" fill="#547AA7"/>
<path d="M29.2086 14.7438C29.609 15.9682 30.9021 16.3504 31.6786 16.6507C31.6851 16.1428 31.7987 15.6044 30.7606 15.4169C29.7226 15.2294 29.4779 14.0216 29.2309 13.0024C29.2262 13.3652 28.8081 13.5195 29.2086 14.7438Z" fill="#547AA7"/>
<path d="M22.4088 26.0177C23.5887 26.5348 24.7352 25.8253 25.4764 25.4462C25.102 25.103 24.7762 24.6596 23.9448 25.3088C23.1134 25.9579 22.0497 25.3356 21.125 24.8408C21.3925 25.086 21.2289 25.5006 22.4088 26.0177Z" fill="#547AA7"/>
<path d="M36.5385 19.5019C33.5846 19.5019 31.7692 23.1984 31 25.3385C31.9231 27.6731 32.2732 24.7389 33.7692 22.8366C36 20 39.2486 20.2402 41 19.5019C42.3846 18.9183 42.8462 17.751 43 16C42.2308 16.9728 39.4923 19.5019 36.5385 19.5019Z" fill="#547AA7"/>
<path d="M28.3846 26.1192C30.8462 26.1192 32.359 30.4672 33 32.9845C32.2308 35.7306 31.939 32.2792 30.6923 30.0416C28.8333 26.705 26.1262 26.9876 24.6667 26.1192C23.5128 25.4327 23.1282 24.0596 23 22C23.641 23.1442 25.9231 26.1192 28.3846 26.1192Z" fill="#547AA7"/>
<path d="M31.2311 32.2715C29.0399 18.9398 31.2311 13.5 32 10.5C32 13.5 32.9071 16 32.5 19C32.0929 22 32.316 29.4961 33.4094 31.8897C35.6638 36.825 36.5666 49.4226 26.1697 54.8376C27.8639 53.5559 30.4294 48.9356 31.4053 42.9422C31.0066 43.7165 31.3122 44.9228 26.0157 46.0205C20.7192 47.1183 18.1676 46.5294 17.5539 46.0977C21.7435 45.6951 29.8847 41.9688 31.8924 38.0959C31.9875 35.7123 31.7212 35.2533 31.2311 32.2715Z" fill="#547AA7"/>
<path d="M32.8358 10.3209C32.8749 13.2576 33.4231 15.648 33.4231 15.648C33.4231 15.648 35.5465 14.6772 36.5677 11.776C37.5889 8.87488 36.3713 5.61075 36.3713 5.61075C36.3713 5.61075 32.7966 7.38422 32.8358 10.3209Z" fill="#6279F3"/>
<circle cx="32" cy="32" r="31.5" stroke="#6279F3"/>
</g>
<defs>
<clipPath id="clip0">
<rect width="64" height="64" fill="white"/>
</clipPath>
</defs>
</svg>
