<svg width="64" height="64" viewBox="0 0 64 64" fill="none" xmlns="http://www.w3.org/2000/svg">
<g clip-path="url(#clip0)">
<circle cx="32" cy="31" r="32" fill="white"/>
<path d="M0 32H64V32C64 49.1208 50.1208 63 33 63H31C13.8792 63 0 49.1208 0 32V32Z" fill="#F4DF6E"/>
<path d="M0 32H64C64 32 64 35.5 63.5 37.5C63 39.5 63 39 63 39L0.816529 39C0.816529 39 0 35.5 0 32.5C0 29.5 0 32 0 32Z" fill="white"/>
<path d="M33.3639 18.0524C33.9053 22.8872 34.7245 27.6353 34.7245 27.6353C34.7245 27.6353 31.2994 24.2227 29.4737 19.265C27.648 14.3074 28.1131 9.68217 28.1131 9.68217C28.1131 9.68217 32.8226 13.2177 33.3639 18.0524Z" fill="#A3CF48"/>
<path d="M33.2315 31.2715C31.0403 17.9398 32.5616 12.9361 33.5961 12.1007C33.8679 16.9812 33.6062 26.9415 35.4097 30.8897C37.6642 35.825 38.5669 48.4225 28.17 53.8376C29.8642 52.5559 32.4297 47.9356 33.4057 41.9422C33.007 42.7165 33.3126 43.9227 28.0161 45.0205C22.7195 46.1183 20.168 45.5294 19.5543 45.0977C23.7438 44.6951 31.885 40.9688 33.8928 37.0959C33.9878 34.7123 33.7216 34.2532 33.2315 31.2715Z" fill="#295991"/>
<path d="M33.4442 21.4647C34.0194 26.5849 35.2413 30.5821 35.2413 30.5821C35.2413 30.5821 38.17 28.184 39.1491 22.7758C40.1283 17.3676 37.7749 12.0643 37.7749 12.0643C37.7749 12.0643 32.8691 16.3445 33.4442 21.4647Z" fill="#A3CF48"/>
<circle cx="32" cy="32" r="31.5" stroke="#EFCE26"/>
</g>
<defs>
<clipPath id="clip0">
<rect width="64" height="64" fill="white"/>
</clipPath>
</defs>
</svg>
