<svg width="64" height="64" viewBox="0 0 64 64" fill="none" xmlns="http://www.w3.org/2000/svg">
<circle cx="32" cy="32" r="32" fill="#EDF0FD"/>
<path d="M1 33H63V33C63 50.1208 49.1208 64 32 64V64C14.8792 64 1 50.1208 1 33V33Z" fill="#A7B4F8"/>
<path d="M43.5563 14.7646C41.7047 16.6414 40.1791 17.6847 40.1791 17.6847C40.1791 17.6847 38.6406 15.996 39.3623 13.5348C40.0839 11.0736 42.766 9.69328 42.766 9.69328C42.766 9.69328 45.408 12.8877 43.5563 14.7646Z" fill="#6279F3"/>
<path d="M36.3616 18.5584C35.5285 19.4029 34.8421 19.8723 34.8421 19.8723C34.8421 19.8723 34.1499 19.1125 34.4746 18.0051C34.7993 16.8977 36.006 16.2767 36.006 16.2767C36.006 16.2767 37.1948 17.7139 36.3616 18.5584Z" fill="#6279F3"/>
<path d="M43.3946 20.6988C42.2087 20.6701 41.3966 20.4914 41.3966 20.4914C41.3966 20.4914 41.4761 19.4666 42.5054 18.9448C43.5347 18.423 44.8137 18.877 44.8137 18.877C44.8137 18.877 44.5806 20.7275 43.3946 20.6988Z" fill="#6279F3"/>
<path d="M1 30.3374H63C63 30.3374 63 35.1307 62.5156 37.8697C62.0312 40.6087 62.0312 39.9239 62.0312 39.9239L1.79101 39.9239C1.79101 39.9239 1 35.1307 1 31.0222C1 26.9136 1 30.3374 1 30.3374Z" fill="#EDF0FD"/>
<path d="M29.8651 17.2802C29.6211 20.3536 29.7113 23.3054 29.7113 23.3054C29.7113 23.3054 26.3931 21.8406 25.1858 18.9833C23.9786 16.126 25.3396 11.9581 25.3396 11.9581C25.3396 11.9581 30.1091 14.2067 29.8651 17.2802Z" fill="#6279F3"/>
<path d="M39.0992 28.7193C36.6087 30.6749 34.0565 31.8114 34.0565 31.8114C34.0565 31.8114 32.7079 29.2815 34.0907 26.4152C35.4735 23.5489 39.4354 22.4104 39.4354 22.4104C39.4354 22.4104 41.5897 26.7637 39.0992 28.7193Z" fill="#6279F3"/>
<path d="M30.1985 27.8256C30.8079 29.773 30.9097 31.5704 30.9097 31.5704C30.9097 31.5704 29.0772 31.805 27.6661 30.3171C26.2549 28.8291 26.474 26.1818 26.474 26.1818C26.474 26.1818 29.5891 25.8783 30.1985 27.8256Z" fill="#6279F3"/>
<path d="M38.5 43.5C37.7 40.7 34.5 38.6667 33 38C33 39.1667 33.5 41.6 35.5 42C37.5 42.4 38 45.1667 38.5 47.5C38.5 46.6667 39.3 46.3 38.5 43.5Z" fill="#547AA7"/>
<path d="M36.5385 19.5019C33.5846 19.5019 31.7692 23.1984 31 25.3385C31.9231 27.6731 32.2732 24.7389 33.7692 22.8366C36 20 39.2486 20.2402 41 19.5019C42.3846 18.9183 42.8462 17.751 43 16C42.2308 16.9728 39.4923 19.5019 36.5385 19.5019Z" fill="#547AA7"/>
<path d="M31.2311 32.2715C29.0399 18.9398 31.2311 13.5 32 10.5C32 13.5 32.9071 16 32.5 19C32.0929 22 32.316 29.4961 33.4094 31.8897C35.6638 36.825 36.5666 49.4226 26.1697 54.8376C27.8639 53.5559 30.4294 48.9356 31.4053 42.9422C31.0066 43.7165 31.3122 44.9228 26.0157 46.0205C20.7192 47.1183 18.1676 46.5294 17.5539 46.0977C21.7435 45.6951 29.8847 41.9688 31.8924 38.0959C31.9875 35.7123 31.7212 35.2533 31.2311 32.2715Z" fill="#547AA7"/>
<path d="M32.8358 10.3209C32.8749 13.2576 33.4231 15.648 33.4231 15.648C33.4231 15.648 35.5465 14.6772 36.5677 11.776C37.5889 8.87488 36.3713 5.61075 36.3713 5.61075C36.3713 5.61075 32.7966 7.38422 32.8358 10.3209Z" fill="#6279F3"/>
<circle cx="32" cy="32" r="31.5" stroke="#6279F3"/>
</svg>
