<svg width="500" height="250" viewBox="0 0 500 250" fill="none" xmlns="http://www.w3.org/2000/svg">
<g clip-path="url(#clip0)">
<path d="M121.53 171.965H101.646C99.9891 171.965 98.646 170.622 98.646 168.965V37.1068C98.646 35.45 99.9891 34.1068 101.646 34.1068H240.121C241.778 34.1068 243.121 35.45 243.121 37.1068V168.965C243.121 170.622 241.778 171.965 240.121 171.965H214.447" stroke="#E9ECF5" stroke-width="3"/>
<path d="M131.731 164.245H109.365C107.708 164.245 106.365 162.902 106.365 161.245V44.8269C106.365 43.17 107.708 41.8269 109.365 41.8269H232.4C234.057 41.8269 235.4 43.17 235.4 44.8269V161.245C235.4 162.902 234.057 164.245 232.4 164.245H204.52" stroke="#E9ECF5" stroke-width="3"/>
<path d="M161.509 44.0326V141.085" stroke="#E9ECF5" stroke-width="3"/>
<path d="M161.509 102.484H108.571" stroke="#E9ECF5" stroke-width="3"/>
<rect x="81" y="24.1811" width="178.664" height="12.1315" rx="3" fill="#E9ECF5"/>
<rect x="243.121" y="24.1811" width="12.1315" height="172.047" rx="3" fill="#E9ECF5"/>
<rect x="89.8228" y="24.1811" width="12.1315" height="172.047" rx="3" fill="#E9ECF5"/>
<ellipse cx="220.295" cy="90.3175" rx="17.3116" ry="19.2824" fill="#E9ECF5"/>
<ellipse cx="224.004" cy="66.9031" rx="13.602" ry="15.1505" fill="#E9ECF5"/>
<ellipse cx="217.204" cy="119.93" rx="20.403" ry="22.7257" fill="#E9ECF5"/>
<rect x="217.822" y="65.5258" width="19.7847" height="77.1297" fill="#E9ECF5"/>
<rect x="225.949" y="61.9792" width="9.32709" height="102.266" fill="#E9ECF5"/>
<path d="M157.657 133.365C158.776 140.189 159.613 152.718 144.648 158.265C134.791 161.919 119.6 167.002 109.04 194.488C103.923 207.808 121.164 224.921 130.116 231.177C139.068 237.432 137.922 240.276 137.922 245.962C137.922 250.512 143.167 252.562 146.897 250.667" stroke="#BFCDDE" stroke-width="3"/>
<path d="M139.451 177.479C130.717 183.494 121.417 191.817 120.854 195.871C119.275 207.257 130.441 216.631 138.349 229.314" stroke="#BFCDDE" stroke-width="3"/>
<path d="M138.9 178.031C138.9 178.031 138.477 175.334 140.618 191.02C142.76 206.705 143.029 215.528 140.618 225.431C138.208 235.334 139.82 258.636 139.82 258.636C139.82 258.636 154.301 262.256 167.877 262.256C181.453 262.256 195.33 258.032 195.33 258.032C195.33 258.032 196.324 235.334 193.529 225.431C190.735 215.528 189.081 205.051 191.286 191.02C193.492 176.988 194.826 174.662 194.826 174.662" stroke="#BFCDDE" stroke-width="3"/>
<path d="M141.658 177.479C141.658 178.698 140.844 179.685 139.84 179.685C138.836 179.685 137.246 179.423 137.246 178.205C137.246 176.987 138.836 175.274 139.84 175.274C140.844 175.274 141.658 176.261 141.658 177.479Z" fill="#BFCDDE"/>
<path d="M200.153 108.998C200.153 156.061 185.565 142.787 167.57 142.787C149.575 142.787 134.988 159.682 134.988 108.998C134.988 91.0031 149.575 77.6222 167.57 77.6222C185.565 77.6222 200.153 91.0031 200.153 108.998Z" fill="#94ACC8"/>
<path d="M269.589 12C269.589 7.58172 273.171 4 277.589 4H406.97C411.389 4 414.97 7.58172 414.97 12V249.404H269.589V12Z" fill="#E9ECF5"/>
<path d="M277.976 20.0902C277.976 15.6719 281.557 12.0902 285.976 12.0902H398.582C403.001 12.0902 406.582 15.6719 406.582 20.0902V249.404H277.976V20.0902Z" fill="#DDE0E9"/>
<rect x="275.18" y="67.3736" width="135.596" height="6.74187" fill="#E9ECF5"/>
<rect x="275.18" y="119.96" width="135.596" height="6.74187" fill="#E9ECF5"/>
<rect x="275.18" y="172.547" width="135.596" height="6.74187" fill="#E9ECF5"/>
<rect x="275.18" y="225.133" width="135.596" height="6.74187" fill="#E9ECF5"/>
<rect x="284.964" y="20.1805" width="9.7853" height="47.1931" rx="2" fill="#E9ECF5"/>
<rect x="284.964" y="82.2057" width="9.7853" height="36.4061" rx="2" fill="#E9ECF5"/>
<rect x="284.964" y="133.444" width="9.7853" height="36.4061" rx="2" fill="#E9ECF5"/>
<rect x="346.473" y="148.276" width="9.43862" height="37.7433" rx="2" transform="rotate(90 346.473 148.276)" fill="#E9ECF5"/>
<rect x="296.148" y="20.1805" width="9.7853" height="47.1931" rx="2" fill="#E9ECF5"/>
<rect x="296.148" y="82.2057" width="9.7853" height="36.4061" rx="2" fill="#E9ECF5"/>
<rect x="296.148" y="133.444" width="9.7853" height="36.4061" rx="2" fill="#E9ECF5"/>
<rect x="346.473" y="159.063" width="9.43862" height="37.7433" rx="2" transform="rotate(90 346.473 159.063)" fill="#E9ECF5"/>
<rect x="307.331" y="20.1805" width="9.7853" height="47.1931" rx="2" fill="#E9ECF5"/>
<rect x="307.331" y="82.2057" width="9.7853" height="36.4061" rx="2" fill="#E9ECF5"/>
<rect x="359.054" y="82.2057" width="9.7853" height="36.4061" rx="2" fill="#E9ECF5"/>
<rect x="346.581" y="186.049" width="9.7853" height="36.4061" rx="2" fill="#E9ECF5"/>
<rect width="9.70575" height="36.7216" rx="2" transform="matrix(0.883155 -0.469081 0.495777 0.86845 318.407 86.7398)" fill="#E9ECF5"/>
<rect width="9.70575" height="36.7216" rx="2" transform="matrix(0.883155 -0.469081 0.495777 0.86845 279.376 190.583)" fill="#E9ECF5"/>
<rect width="9.70575" height="36.7216" rx="2" transform="matrix(0.883155 -0.469081 0.495777 0.86845 305.935 190.583)" fill="#E9ECF5"/>
<rect width="9.70575" height="36.7216" rx="2" transform="matrix(0.883155 -0.469081 0.495777 0.86845 331.098 86.7398)" fill="#E9ECF5"/>
<rect width="9.70575" height="36.7216" rx="2" transform="matrix(0.883155 -0.469081 0.495777 0.86845 292.064 190.583)" fill="#E9ECF5"/>
<rect width="9.70575" height="36.7216" rx="2" transform="matrix(0.883155 -0.469081 0.495777 0.86845 318.624 190.583)" fill="#E9ECF5"/>
<rect x="318.515" y="20.1805" width="9.7853" height="47.1931" rx="2" fill="#E9ECF5"/>
<rect x="391.205" y="79.509" width="9.7853" height="39.1029" rx="2" fill="#E9ECF5"/>
<rect width="9.70153" height="47.6235" rx="2" transform="matrix(0.876444 -0.481505 0.508458 0.861087 329.698 25.6088)" fill="#E9ECF5"/>
<rect width="9.70153" height="44.4453" rx="2" transform="matrix(-0.876444 -0.481505 -0.508458 0.861087 404.135 134.07)" fill="#E9ECF5"/>
<path d="M370.736 46.8573C370.479 45.6159 371.427 44.4513 372.695 44.4513H390.146C391.414 44.4513 392.362 45.6159 392.105 46.8573L388.741 63.0829C388.548 64.0113 387.73 64.6769 386.782 64.6769H376.059C375.111 64.6769 374.293 64.0113 374.101 63.0829L370.736 46.8573Z" fill="#E9ECF5"/>
<path d="M391.205 63.3285C391.205 64.8178 389.998 66.0252 388.508 66.0252L374.331 66.0252C372.842 66.0252 371.634 64.8178 371.634 63.3285V63.3285L391.205 63.3285V63.3285Z" fill="#E9ECF5"/>
<path d="M373.298 40.9146C375.671 43.232 380.373 42.8339 380.373 42.8339C380.373 42.8339 381.229 38.6786 378.856 36.3613C376.484 34.0439 371.781 34.442 371.781 34.442C371.781 34.442 370.926 38.5972 373.298 40.9146Z" fill="#E9ECF5"/>
<path d="M388.309 40.9146C385.937 43.232 381.234 42.8339 381.234 42.8339C381.234 42.8339 380.378 38.6786 382.751 36.3613C385.124 34.0439 389.826 34.442 389.826 34.442C389.826 34.442 390.682 38.5972 388.309 40.9146Z" fill="#E9ECF5"/>
<path d="M383.985 35.6868C383.985 37.5868 383.107 39.3391 382.192 40.6434C381.737 41.2907 381.282 41.8152 380.941 42.1773C380.859 42.2647 380.784 42.3425 380.717 42.41C380.65 42.3425 380.574 42.2647 380.492 42.1773C380.151 41.8152 379.696 41.2907 379.242 40.6434C378.326 39.3391 377.448 37.5868 377.448 35.6868C377.448 33.7868 378.326 32.0345 379.242 30.7301C379.696 30.0828 380.151 29.5583 380.492 29.1962C380.574 29.1089 380.65 29.0311 380.717 28.9635C380.784 29.0311 380.859 29.1089 380.941 29.1962C381.282 29.5583 381.737 30.0828 382.192 30.7301C383.107 32.0345 383.985 33.7868 383.985 35.6868Z" fill="#E9ECF5" stroke="#DDE0E9"/>
<ellipse cx="138.349" cy="237.585" rx="3.30859" ry="10.4772" fill="#BFCDDE"/>
<ellipse cx="138.349" cy="237.585" rx="3.30859" ry="10.4772" fill="#BFCDDE"/>
<path d="M177.493 132.262C176.374 139.086 175.536 151.615 190.502 157.162C200.358 160.816 215.549 165.899 226.109 193.385C231.227 206.705 213.985 223.818 205.033 230.074C196.081 236.329 197.228 239.173 197.228 244.859C197.228 249.409 191.982 251.46 188.252 249.564" stroke="#BFCDDE" stroke-width="3"/>
<path d="M192.391 174.171C201.125 180.185 213.734 190.714 214.297 194.768C215.875 206.154 204.709 215.528 196.801 228.211" stroke="#BFCDDE" stroke-width="3"/>
<ellipse rx="3.30859" ry="10.4772" transform="matrix(-1 0 0 1 196.8 236.483)" fill="#BFCDDE"/>
<ellipse cx="167.575" cy="120.682" rx="20.403" ry="27.0202" fill="#BFCDDE"/>
<ellipse cx="167.575" cy="119.579" rx="20.403" ry="25.9173" fill="white"/>
<rect x="150.773" y="90.5497" width="33.5699" height="23.8523" fill="#94ACC8"/>
<path d="M84.0869 234.015L143.104 224.553C167.402 220.657 192.31 223.946 214.765 234.015V234.015V269H84.0869V234.015Z" fill="#F2F5F8"/>
<path d="M138.349 168.656C138.349 168.656 162.06 170.11 167.575 170.11C173.089 170.11 194.595 168.656 194.595 168.656L190.735 209.462L183.447 211.73C172.032 215.281 159.808 215.281 148.393 211.73L141.106 209.462L138.349 168.656Z" fill="#BFCDDE"/>
<path d="M136.143 161.488L154.892 152.113V176.376H138.349L136.143 161.488Z" fill="#BFCDDE"/>
<path d="M197.353 159.834L180.258 152.113V176.376H195.698L197.353 159.834Z" fill="#BFCDDE"/>
<path d="M160.406 177.479C156.287 176.112 154.906 169.031 154.349 166.839C152.402 166.839 145.026 165.896 145.026 166.948C145.026 170.63 140.574 174.619 138.349 176.154C145.304 181.003 163.854 178.624 160.406 177.479Z" fill="#BFCDDE"/>
<path d="M174.192 177.479C178.31 176.112 180.666 169.031 181.223 166.839C183.17 166.839 190.547 165.896 190.547 166.948C190.547 170.63 194.998 174.619 197.224 176.154C190.268 181.003 170.743 178.624 174.192 177.479Z" fill="#BFCDDE"/>
<path d="M186.937 182.289C186.937 184.336 185.278 185.996 183.23 185.996C181.183 185.996 179.523 184.336 179.523 182.289C179.523 180.242 181.183 178.582 183.23 178.582C185.278 178.582 186.937 180.242 186.937 182.289Z" fill="#FF3D71"/>
<path d="M180.197 182.289C180.197 184.336 178.537 185.996 176.49 185.996C174.443 185.996 172.783 184.336 172.783 182.289C172.783 180.242 174.443 178.582 176.49 178.582C178.537 178.582 180.197 180.242 180.197 182.289Z" fill="#FF3D71"/>
<path d="M180.738 191.58C180.296 192.161 179.423 192.161 178.981 191.58L173.908 184.902C173.357 184.175 173.874 183.132 174.786 183.132L184.933 183.132C185.845 183.132 186.363 184.175 185.811 184.902L180.738 191.58Z" fill="#FF3D71"/>
<path d="M164.817 169.98C156.436 169.98 154.708 166.892 154.891 165.348H151.583V173.068H164.817V169.98Z" fill="#BFCDDE"/>
<path d="M170.332 169.98C178.714 169.98 180.442 166.892 180.258 165.348H183.566V173.068H170.332V169.98Z" fill="#BFCDDE"/>
<path d="M138.349 187.405C138.349 187.405 156.161 190.247 166.097 190.247C176.034 190.247 193.492 187.939 193.492 187.939L193.032 192.017L192.572 196.095C192.572 196.095 176.034 198.434 166.097 198.434C156.161 198.434 139.623 196.095 139.623 196.095C139.623 196.095 139.038 193.423 138.786 191.68C138.547 190.023 138.349 187.405 138.349 187.405Z" fill="#94A9C2"/>
<path d="M154.34 120.682C154.34 118.55 156.068 116.822 158.2 116.822" stroke="#94ACC8" stroke-width="2"/>
<circle cx="159.303" cy="121.233" r="2.20573" fill="#94ACC8"/>
<path d="M180.809 120.682C180.809 118.55 179.081 116.822 176.949 116.822" stroke="#94ACC8" stroke-width="2"/>
<circle r="2.20573" transform="matrix(-1 0 0 1 175.846 121.233)" fill="#94ACC8"/>
<path d="M162.336 135.57V135.57C166.162 136.299 170.09 136.299 173.916 135.57V135.57" stroke="#94ACC8" stroke-width="2" stroke-linejoin="round"/>
<ellipse cx="162.336" cy="135.57" rx="0.827149" ry="1.10286" fill="#94ACC8"/>
<ellipse cx="173.917" cy="135.57" rx="0.827149" ry="1.10286" fill="#94ACC8"/>
<path opacity="0.2" d="M312.134 71.7316L174.978 190.058C174.978 190.058 175.625 190.609 175.625 193.916C175.625 197.223 174.978 198.326 174.978 198.326L312.134 241.907V71.7316Z" fill="#96A6F7"/>
<path d="M159.521 190.446C159.616 189.366 160.568 188.577 161.649 188.649C166.037 188.941 169.076 188.932 173.437 188.638C174.453 188.569 175.366 189.264 175.512 190.271C175.676 191.39 175.847 192.844 175.847 194.022C175.847 195.203 175.675 196.661 175.511 197.781C175.365 198.785 174.458 199.481 173.446 199.411C171.465 199.274 168.413 199.074 167.464 199.074C166.539 199.074 163.619 199.264 161.637 199.4C160.56 199.474 159.616 198.684 159.522 197.608C159.416 196.403 159.304 194.916 159.304 194.022C159.304 193.131 159.415 191.649 159.521 190.446Z" fill="#677FFF"/>
<rect x="308.842" y="72.9864" width="187.693" height="167.841" rx="4" fill="#7388F5" stroke="#667FFE" stroke-width="2"/>
<rect x="318.195" y="80.5852" width="164.663" height="29.8688" rx="14.9344" fill="white" stroke="#4A66FB"/>
<rect x="318.195" y="161.873" width="164.663" height="29.8688" rx="14.9344" fill="white" stroke="#FF3D71"/>
<rect x="318.387" y="121.196" width="164.199" height="30.803" rx="15.4015" fill="white" stroke="#F3DC62"/>
<rect x="318.195" y="204.06" width="164.663" height="29.8688" rx="14.9344" fill="white" stroke="#A3CF48"/>
<path d="M357.453 100.485C356.622 100.485 355.899 100.284 355.283 99.8829C354.676 99.4722 354.261 98.9449 354.037 98.3009L355.185 97.8809C355.39 98.3289 355.693 98.6835 356.095 98.9449C356.496 99.2062 356.958 99.3369 357.481 99.3369C358.078 99.3369 358.549 99.1969 358.895 98.9169C359.24 98.6275 359.413 98.2169 359.413 97.6849C359.413 97.1715 359.217 96.7609 358.825 96.4529C358.442 96.1449 357.901 95.8649 357.201 95.6129C356.865 95.4915 356.585 95.3842 356.361 95.2909C356.146 95.1975 355.894 95.0669 355.605 94.8989C355.325 94.7215 355.101 94.5442 354.933 94.3669C354.765 94.1802 354.62 93.9515 354.499 93.6809C354.387 93.4009 354.331 93.0975 354.331 92.7709C354.331 92.0895 354.601 91.5155 355.143 91.0489C355.684 90.5822 356.417 90.3489 357.341 90.3489C358.097 90.3489 358.727 90.5122 359.231 90.8389C359.735 91.1562 360.061 91.5762 360.211 92.0989L359.091 92.4769C358.96 92.1875 358.736 91.9495 358.419 91.7629C358.101 91.5762 357.714 91.4829 357.257 91.4829C356.743 91.4829 356.337 91.5995 356.039 91.8329C355.74 92.0569 355.591 92.3695 355.591 92.7709C355.591 92.9855 355.642 93.1815 355.745 93.3589C355.857 93.5362 356.025 93.6949 356.249 93.8349C356.482 93.9749 356.697 94.0869 356.893 94.1709C357.089 94.2549 357.359 94.3622 357.705 94.4929C358.134 94.6515 358.489 94.8055 358.769 94.9549C359.049 95.0949 359.352 95.2862 359.679 95.5289C360.005 95.7715 360.253 96.0749 360.421 96.4389C360.589 96.7935 360.673 97.1995 360.673 97.6569C360.673 98.5342 360.374 99.2249 359.777 99.7289C359.179 100.233 358.405 100.485 357.453 100.485ZM362.837 100.317V90.7829L364.055 90.2089V100.317H362.837ZM369.19 100.485C368.219 100.485 367.444 100.14 366.866 99.4489C366.296 98.7489 366.012 97.8435 366.012 96.7329C366.012 95.5662 366.301 94.6515 366.88 93.9889C367.458 93.3262 368.228 92.9949 369.19 92.9949C370.048 92.9949 370.753 93.2842 371.304 93.8629C371.864 94.4322 372.144 95.2769 372.144 96.3969C372.144 96.6582 372.13 96.9289 372.102 97.2089H367.258C367.304 97.8622 367.505 98.3895 367.86 98.7909C368.224 99.1829 368.676 99.3789 369.218 99.3789C369.815 99.3789 370.328 99.1642 370.758 98.7349L371.5 99.5609C370.884 100.177 370.114 100.485 369.19 100.485ZM367.244 96.1729H370.912C370.902 95.4355 370.725 94.9035 370.38 94.5769C370.044 94.2409 369.647 94.0729 369.19 94.0729C368.639 94.0729 368.186 94.2502 367.832 94.6049C367.477 94.9502 367.281 95.4729 367.244 96.1729ZM376.723 100.485C375.752 100.485 374.977 100.14 374.399 99.4489C373.829 98.7489 373.545 97.8435 373.545 96.7329C373.545 95.5662 373.834 94.6515 374.413 93.9889C374.991 93.3262 375.761 92.9949 376.723 92.9949C377.581 92.9949 378.286 93.2842 378.837 93.8629C379.397 94.4322 379.677 95.2769 379.677 96.3969C379.677 96.6582 379.663 96.9289 379.635 97.2089H374.791C374.837 97.8622 375.038 98.3895 375.393 98.7909C375.757 99.1829 376.209 99.3789 376.751 99.3789C377.348 99.3789 377.861 99.1642 378.291 98.7349L379.033 99.5609C378.417 100.177 377.647 100.485 376.723 100.485ZM374.777 96.1729H378.445C378.435 95.4355 378.258 94.9035 377.913 94.5769C377.577 94.2409 377.18 94.0729 376.723 94.0729C376.172 94.0729 375.719 94.2502 375.365 94.6049C375.01 94.9502 374.814 95.4729 374.777 96.1729ZM384.55 100.485C383.803 100.485 383.192 100.205 382.716 99.6449V102.571L381.498 103.145V93.1629H382.716V93.7649C383.229 93.2515 383.841 92.9949 384.55 92.9949C385.455 92.9949 386.174 93.3309 386.706 94.0029C387.238 94.6749 387.504 95.5849 387.504 96.7329C387.504 97.8995 387.233 98.8189 386.692 99.4909C386.151 100.154 385.437 100.485 384.55 100.485ZM384.396 99.3509C384.993 99.3509 385.451 99.1269 385.768 98.6789C386.095 98.2215 386.258 97.5729 386.258 96.7329C386.258 95.9395 386.09 95.3049 385.754 94.8289C385.427 94.3529 384.975 94.1149 384.396 94.1149C383.64 94.1149 383.08 94.4369 382.716 95.0809V98.3849C383.211 99.0289 383.771 99.3509 384.396 99.3509ZM401.081 100.317V95.9769C401.081 94.7355 400.601 94.1149 399.639 94.1149C399.182 94.1149 398.809 94.2922 398.519 94.6469C398.239 94.9922 398.099 95.4495 398.099 96.0189V100.317H396.881V95.9769C396.881 94.7355 396.405 94.1149 395.453 94.1149C394.977 94.1149 394.599 94.2829 394.319 94.6189C394.049 94.9455 393.913 95.3935 393.913 95.9629V100.317H392.695V93.1629H393.913V93.8349C394.333 93.2749 394.959 92.9949 395.789 92.9949C396.191 92.9949 396.559 93.0882 396.895 93.2749C397.241 93.4522 397.511 93.7089 397.707 94.0449C398.165 93.3449 398.855 92.9949 399.779 92.9949C400.526 92.9949 401.133 93.2235 401.599 93.6809C402.066 94.1382 402.299 94.7869 402.299 95.6269V100.317H401.081ZM409.589 99.4909C409.02 100.154 408.25 100.485 407.279 100.485C406.308 100.485 405.538 100.154 404.969 99.4909C404.4 98.8282 404.115 97.9135 404.115 96.7469C404.115 95.5802 404.4 94.6655 404.969 94.0029C405.538 93.3309 406.308 92.9949 407.279 92.9949C408.25 92.9949 409.02 93.3262 409.589 93.9889C410.158 94.6515 410.443 95.5662 410.443 96.7329C410.443 97.8995 410.158 98.8189 409.589 99.4909ZM405.851 98.6649C406.196 99.1222 406.672 99.3509 407.279 99.3509C407.886 99.3509 408.357 99.1222 408.693 98.6649C409.038 98.1982 409.211 97.5542 409.211 96.7329C409.211 95.9209 409.038 95.2815 408.693 94.8149C408.357 94.3482 407.886 94.1149 407.279 94.1149C406.672 94.1149 406.196 94.3482 405.851 94.8149C405.515 95.2722 405.347 95.9162 405.347 96.7469C405.347 97.5589 405.515 98.1982 405.851 98.6649ZM416.752 100.317V95.9909C416.752 95.3469 416.612 94.8755 416.332 94.5769C416.061 94.2689 415.688 94.1149 415.212 94.1149C414.11 94.1149 413.56 94.7309 413.56 95.9629V100.317H412.342V93.1629H413.56V93.8909C413.998 93.2935 414.614 92.9949 415.408 92.9949C416.248 92.9949 416.882 93.2515 417.312 93.7649C417.75 94.2689 417.97 95.0809 417.97 96.2009V100.317H416.752ZM421.392 91.6509C421.243 91.7909 421.061 91.8609 420.846 91.8609C420.632 91.8609 420.45 91.7862 420.3 91.6369C420.16 91.4875 420.09 91.3102 420.09 91.1049C420.09 90.8902 420.165 90.7082 420.314 90.5589C420.464 90.4002 420.641 90.3209 420.846 90.3209C421.061 90.3209 421.243 90.4002 421.392 90.5589C421.542 90.7082 421.616 90.8902 421.616 91.1049C421.616 91.3195 421.542 91.5015 421.392 91.6509ZM420.244 100.317V93.1629H421.462V100.317H420.244ZM425.717 100.485C424.709 100.485 424.205 99.9155 424.205 98.7769V94.2269H423.043V93.1629H424.205V90.7969L425.423 90.2089V93.1629H427.187V94.2269H425.423V98.3709C425.423 98.6882 425.474 98.9309 425.577 99.0989C425.68 99.2669 425.876 99.3509 426.165 99.3509C426.482 99.3509 426.837 99.2249 427.229 98.9729L427.089 100.163C426.678 100.378 426.221 100.485 425.717 100.485ZM433.939 99.4909C433.369 100.154 432.599 100.485 431.629 100.485C430.658 100.485 429.888 100.154 429.319 99.4909C428.749 98.8282 428.465 97.9135 428.465 96.7469C428.465 95.5802 428.749 94.6655 429.319 94.0029C429.888 93.3309 430.658 92.9949 431.629 92.9949C432.599 92.9949 433.369 93.3262 433.939 93.9889C434.508 94.6515 434.793 95.5662 434.793 96.7329C434.793 97.8995 434.508 98.8189 433.939 99.4909ZM430.201 98.6649C430.546 99.1222 431.022 99.3509 431.629 99.3509C432.235 99.3509 432.707 99.1222 433.043 98.6649C433.388 98.1982 433.561 97.5542 433.561 96.7329C433.561 95.9209 433.388 95.2815 433.043 94.8149C432.707 94.3482 432.235 94.1149 431.629 94.1149C431.022 94.1149 430.546 94.3482 430.201 94.8149C429.865 95.2722 429.697 95.9162 429.697 96.7469C429.697 97.5589 429.865 98.1982 430.201 98.6649ZM436.691 100.317V93.1629H437.909V94.1009C438.245 93.3635 438.81 92.9949 439.603 92.9949C440.051 92.9949 440.42 93.1162 440.709 93.3589L440.527 94.5069C440.229 94.3015 439.888 94.1989 439.505 94.1989C439.085 94.1989 438.712 94.3622 438.385 94.6889C438.068 95.0155 437.909 95.5475 437.909 96.2849V100.317H436.691ZM443.226 91.6509C443.077 91.7909 442.895 91.8609 442.68 91.8609C442.466 91.8609 442.284 91.7862 442.134 91.6369C441.994 91.4875 441.924 91.3102 441.924 91.1049C441.924 90.8902 441.999 90.7082 442.148 90.5589C442.298 90.4002 442.475 90.3209 442.68 90.3209C442.895 90.3209 443.077 90.4002 443.226 90.5589C443.376 90.7082 443.45 90.8902 443.45 91.1049C443.45 91.3195 443.376 91.5015 443.226 91.6509ZM442.078 100.317V93.1629H443.296V100.317H442.078ZM450.029 100.317V95.9909C450.029 95.3469 449.889 94.8755 449.609 94.5769C449.338 94.2689 448.965 94.1149 448.489 94.1149C447.388 94.1149 446.837 94.7309 446.837 95.9629V100.317H445.619V93.1629H446.837V93.8909C447.276 93.2935 447.892 92.9949 448.685 92.9949C449.525 92.9949 450.16 93.2515 450.589 93.7649C451.028 94.2689 451.247 95.0809 451.247 96.2009V100.317H450.029ZM455.706 103.215L455.118 102.263C456.154 102.207 456.868 102.025 457.26 101.717C457.661 101.418 457.862 101.008 457.862 100.485V99.6169C457.442 100.196 456.826 100.485 456.014 100.485C455.174 100.485 454.474 100.158 453.914 99.5049C453.363 98.8515 453.088 97.9275 453.088 96.7329C453.088 95.5755 453.358 94.6655 453.9 94.0029C454.45 93.3309 455.169 92.9949 456.056 92.9949C456.802 92.9949 457.404 93.2469 457.862 93.7509V93.1629H459.08V100.023C459.08 101.115 458.786 101.904 458.198 102.389C457.619 102.874 456.788 103.15 455.706 103.215ZM456.266 99.3509C456.564 99.3509 456.858 99.2622 457.148 99.0849C457.446 98.8982 457.684 98.6509 457.862 98.3429V95.0669C457.694 94.7869 457.456 94.5582 457.148 94.3809C456.84 94.2035 456.546 94.1149 456.266 94.1149C455.631 94.1149 455.146 94.3435 454.81 94.8009C454.483 95.2489 454.32 95.8929 454.32 96.7329C454.32 97.5449 454.497 98.1842 454.852 98.6509C455.216 99.1175 455.687 99.3509 456.266 99.3509Z" fill="#4E4E4E"/>
<circle cx="331.561" cy="95.5331" r="14.9401" fill="white" stroke="#4A66FB"/>
<path d="M326.001 99.0662C328.738 103.245 335.302 102.669 335.302 102.669C335.302 102.669 327.272 107.256 323.136 100.942C319.001 94.6283 326.415 89.0997 326.415 89.0997C326.415 89.0997 322.863 94.2749 326.001 99.0662Z" fill="#677FFF"/>
<circle cx="330.74" cy="94.9475" r="3.04072" fill="#677FFF"/>
<circle cx="340.622" cy="95.7077" r="2.28054" fill="#677FFF"/>
<circle cx="336.062" cy="94.1873" r="3.8009" fill="#677FFF"/>
<path d="M330.741 96.4678H341.384V96.4678C341.384 97.3075 340.703 97.9882 339.863 97.9882H330.741V96.4678Z" fill="#677FFF"/>
<path d="M340.564 87.813L340.853 88.7021L341.788 88.7021L341.031 89.2516L341.32 90.1407L340.564 89.5912L339.808 90.1407L340.097 89.2516L339.34 88.7021L340.275 88.7021L340.564 87.813Z" fill="#677FFF"/>
<path d="M335.42 85.2397L335.709 86.1288L336.644 86.1288L335.888 86.6783L336.177 87.5673L335.42 87.0179L334.664 87.5673L334.953 86.6783L334.197 86.1288L335.132 86.1288L335.42 85.2397Z" fill="#677FFF"/>
<circle cx="331.561" cy="136.339" r="14.9401" fill="white" stroke="#F3DC62"/>
<path d="M331.049 142.243L337.022 133.292L334.889 139.856L338.363 139.344L332.024 147.919L334.462 141.845L331.049 142.243Z" fill="#F4DF6E" stroke="#EDC90E" stroke-linejoin="round"/>
<path d="M324.955 133.71L330.928 124.759L328.795 131.323L332.269 130.812L325.93 139.387L328.368 133.312L324.955 133.71Z" fill="#F4DF6E" stroke="#EDC90E" stroke-linejoin="round"/>
<path d="M357.142 140.787C356.311 140.787 355.588 140.586 354.972 140.185C354.365 139.774 353.95 139.247 353.726 138.603L354.874 138.183C355.079 138.631 355.383 138.986 355.784 139.247C356.185 139.508 356.647 139.639 357.17 139.639C357.767 139.639 358.239 139.499 358.584 139.219C358.929 138.93 359.102 138.519 359.102 137.987C359.102 137.474 358.906 137.063 358.514 136.755C358.131 136.447 357.59 136.167 356.89 135.915C356.554 135.794 356.274 135.686 356.05 135.593C355.835 135.5 355.583 135.369 355.294 135.201C355.014 135.024 354.79 134.846 354.622 134.669C354.454 134.482 354.309 134.254 354.188 133.983C354.076 133.703 354.02 133.4 354.02 133.073C354.02 132.392 354.291 131.818 354.832 131.351C355.373 130.884 356.106 130.651 357.03 130.651C357.786 130.651 358.416 130.814 358.92 131.141C359.424 131.458 359.751 131.878 359.9 132.401L358.78 132.779C358.649 132.49 358.425 132.252 358.108 132.065C357.791 131.878 357.403 131.785 356.946 131.785C356.433 131.785 356.027 131.902 355.728 132.135C355.429 132.359 355.28 132.672 355.28 133.073C355.28 133.288 355.331 133.484 355.434 133.661C355.546 133.838 355.714 133.997 355.938 134.137C356.171 134.277 356.386 134.389 356.582 134.473C356.778 134.557 357.049 134.664 357.394 134.795C357.823 134.954 358.178 135.108 358.458 135.257C358.738 135.397 359.041 135.588 359.368 135.831C359.695 136.074 359.942 136.377 360.11 136.741C360.278 137.096 360.362 137.502 360.362 137.959C360.362 138.836 360.063 139.527 359.466 140.031C358.869 140.535 358.094 140.787 357.142 140.787ZM364.389 140.787C363.381 140.787 362.877 140.218 362.877 139.079V134.529H361.715V133.465H362.877V131.099L364.095 130.511V133.465H365.859V134.529H364.095V138.673C364.095 138.99 364.146 139.233 364.249 139.401C364.352 139.569 364.548 139.653 364.837 139.653C365.154 139.653 365.509 139.527 365.901 139.275L365.761 140.465C365.35 140.68 364.893 140.787 364.389 140.787ZM367.693 140.619V133.465H368.911V134.403C369.247 133.666 369.812 133.297 370.605 133.297C371.053 133.297 371.422 133.418 371.711 133.661L371.529 134.809C371.231 134.604 370.89 134.501 370.507 134.501C370.087 134.501 369.714 134.664 369.387 134.991C369.07 135.318 368.911 135.85 368.911 136.587V140.619H367.693ZM375.893 140.787C374.922 140.787 374.147 140.442 373.569 139.751C372.999 139.051 372.715 138.146 372.715 137.035C372.715 135.868 373.004 134.954 373.583 134.291C374.161 133.628 374.931 133.297 375.893 133.297C376.751 133.297 377.456 133.586 378.007 134.165C378.567 134.734 378.847 135.579 378.847 136.699C378.847 136.96 378.833 137.231 378.805 137.511H373.961C374.007 138.164 374.208 138.692 374.563 139.093C374.927 139.485 375.379 139.681 375.921 139.681C376.518 139.681 377.031 139.466 377.461 139.037L378.203 139.863C377.587 140.479 376.817 140.787 375.893 140.787ZM373.947 136.475H377.615C377.605 135.738 377.428 135.206 377.083 134.879C376.747 134.543 376.35 134.375 375.893 134.375C375.342 134.375 374.889 134.552 374.535 134.907C374.18 135.252 373.984 135.775 373.947 136.475ZM382.782 140.787C382.269 140.787 381.779 140.68 381.312 140.465C380.855 140.241 380.481 139.947 380.192 139.583L381.06 138.841C381.592 139.41 382.175 139.695 382.81 139.695C383.211 139.695 383.533 139.62 383.776 139.471C384.019 139.312 384.14 139.084 384.14 138.785C384.14 138.561 384.051 138.36 383.874 138.183C383.697 137.996 383.515 137.861 383.328 137.777C383.141 137.684 382.866 137.567 382.502 137.427C381.774 137.156 381.223 136.853 380.85 136.517C380.477 136.181 380.29 135.738 380.29 135.187C380.29 134.608 380.514 134.151 380.962 133.815C381.419 133.47 381.998 133.297 382.698 133.297C383.697 133.297 384.499 133.656 385.106 134.375L384.266 135.075C383.827 134.618 383.3 134.389 382.684 134.389C382.32 134.389 382.031 134.459 381.816 134.599C381.601 134.739 381.494 134.935 381.494 135.187C381.494 135.327 381.527 135.458 381.592 135.579C381.667 135.691 381.793 135.798 381.97 135.901C382.157 136.004 382.301 136.083 382.404 136.139C382.516 136.186 382.717 136.265 383.006 136.377C383.762 136.648 384.336 136.956 384.728 137.301C385.129 137.646 385.33 138.132 385.33 138.757C385.33 139.392 385.101 139.891 384.644 140.255C384.187 140.61 383.566 140.787 382.782 140.787ZM389.344 140.787C388.831 140.787 388.341 140.68 387.874 140.465C387.417 140.241 387.044 139.947 386.754 139.583L387.622 138.841C388.154 139.41 388.738 139.695 389.372 139.695C389.774 139.695 390.096 139.62 390.338 139.471C390.581 139.312 390.702 139.084 390.702 138.785C390.702 138.561 390.614 138.36 390.436 138.183C390.259 137.996 390.077 137.861 389.89 137.777C389.704 137.684 389.428 137.567 389.064 137.427C388.336 137.156 387.786 136.853 387.412 136.517C387.039 136.181 386.852 135.738 386.852 135.187C386.852 134.608 387.076 134.151 387.524 133.815C387.982 133.47 388.56 133.297 389.26 133.297C390.259 133.297 391.062 133.656 391.668 134.375L390.828 135.075C390.39 134.618 389.862 134.389 389.246 134.389C388.882 134.389 388.593 134.459 388.378 134.599C388.164 134.739 388.056 134.935 388.056 135.187C388.056 135.327 388.089 135.458 388.154 135.579C388.229 135.691 388.355 135.798 388.532 135.901C388.719 136.004 388.864 136.083 388.966 136.139C389.078 136.186 389.279 136.265 389.568 136.377C390.324 136.648 390.898 136.956 391.29 137.301C391.692 137.646 391.892 138.132 391.892 138.757C391.892 139.392 391.664 139.891 391.206 140.255C390.749 140.61 390.128 140.787 389.344 140.787ZM397.158 140.619V131.085L398.376 130.511V140.619H397.158ZM403.51 140.787C402.539 140.787 401.765 140.442 401.186 139.751C400.617 139.051 400.332 138.146 400.332 137.035C400.332 135.868 400.621 134.954 401.2 134.291C401.779 133.628 402.549 133.297 403.51 133.297C404.369 133.297 405.073 133.586 405.624 134.165C406.184 134.734 406.464 135.579 406.464 136.699C406.464 136.96 406.45 137.231 406.422 137.511H401.578C401.625 138.164 401.825 138.692 402.18 139.093C402.544 139.485 402.997 139.681 403.538 139.681C404.135 139.681 404.649 139.466 405.078 139.037L405.82 139.863C405.204 140.479 404.434 140.787 403.51 140.787ZM401.564 136.475H405.232C405.223 135.738 405.045 135.206 404.7 134.879C404.364 134.543 403.967 134.375 403.51 134.375C402.959 134.375 402.507 134.552 402.152 134.907C401.797 135.252 401.601 135.775 401.564 136.475ZM410.203 140.619L407.585 133.465H408.817L410.511 138.239C410.632 138.594 410.707 138.827 410.735 138.939C410.763 138.827 410.838 138.594 410.959 138.239L412.625 133.465H413.843L411.225 140.619H410.203ZM418.207 140.787C417.236 140.787 416.462 140.442 415.883 139.751C415.314 139.051 415.029 138.146 415.029 137.035C415.029 135.868 415.318 134.954 415.897 134.291C416.476 133.628 417.246 133.297 418.207 133.297C419.066 133.297 419.77 133.586 420.321 134.165C420.881 134.734 421.161 135.579 421.161 136.699C421.161 136.96 421.147 137.231 421.119 137.511H416.275C416.322 138.164 416.522 138.692 416.877 139.093C417.241 139.485 417.694 139.681 418.235 139.681C418.832 139.681 419.346 139.466 419.775 139.037L420.517 139.863C419.901 140.479 419.131 140.787 418.207 140.787ZM416.261 136.475H419.929C419.92 135.738 419.742 135.206 419.397 134.879C419.061 134.543 418.664 134.375 418.207 134.375C417.656 134.375 417.204 134.552 416.849 134.907C416.494 135.252 416.298 135.775 416.261 136.475ZM423.052 140.619V131.085L424.27 130.511V140.619H423.052Z" fill="#4E4E4E"/>
<path d="M354.286 182.528V172.728H360.11V173.876H355.504V176.886H358.542V178.034H355.504V181.366H360.418V182.528H354.286ZM365.883 182.696C365.174 182.696 364.548 182.551 364.007 182.262C363.466 181.973 363.041 181.581 362.733 181.086C362.425 180.591 362.196 180.055 362.047 179.476C361.898 178.897 361.823 178.281 361.823 177.628C361.823 176.984 361.898 176.373 362.047 175.794C362.206 175.206 362.439 174.669 362.747 174.184C363.064 173.689 363.489 173.297 364.021 173.008C364.562 172.709 365.183 172.56 365.883 172.56C367.414 172.56 368.468 173.148 369.047 174.324L367.955 174.884C367.694 174.492 367.404 174.198 367.087 174.002C366.779 173.797 366.378 173.694 365.883 173.694C365.22 173.694 364.67 173.904 364.231 174.324C363.792 174.744 363.489 175.239 363.321 175.808C363.162 176.368 363.083 176.975 363.083 177.628C363.083 178.701 363.321 179.625 363.797 180.4C364.273 181.165 364.968 181.548 365.883 181.548C366.798 181.548 367.507 181.133 368.011 180.302L369.131 180.722C368.86 181.319 368.454 181.8 367.913 182.164C367.372 182.519 366.695 182.696 365.883 182.696ZM374.909 182.696C374.19 182.696 373.555 182.556 373.005 182.276C372.463 181.987 372.029 181.599 371.703 181.114C371.385 180.629 371.147 180.092 370.989 179.504C370.83 178.916 370.751 178.291 370.751 177.628C370.751 176.975 370.835 176.354 371.003 175.766C371.171 175.169 371.418 174.632 371.745 174.156C372.071 173.671 372.505 173.283 373.047 172.994C373.597 172.705 374.218 172.56 374.909 172.56C375.739 172.56 376.393 172.714 376.869 173.022C377.354 173.33 377.76 173.75 378.087 174.282L376.995 174.912C376.733 174.529 376.444 174.235 376.127 174.03C375.809 173.815 375.403 173.708 374.909 173.708C374.489 173.708 374.111 173.787 373.775 173.946C373.439 174.105 373.163 174.315 372.949 174.576C372.734 174.828 372.552 175.127 372.403 175.472C372.263 175.817 372.16 176.172 372.095 176.536C372.039 176.891 372.011 177.255 372.011 177.628C372.011 178.729 372.253 179.658 372.739 180.414C373.224 181.161 373.947 181.534 374.909 181.534C375.571 181.534 376.103 181.329 376.505 180.918C376.906 180.498 377.107 179.952 377.107 179.28V178.888H375.329V177.768H378.381V178.944C378.381 180.129 378.054 181.053 377.401 181.716C376.757 182.369 375.926 182.696 374.909 182.696Z" fill="#4E4E4E"/>
<path d="M360.46 224.437L359.62 222.043H355.728L354.902 224.437H353.628L357.1 214.637H358.234L361.706 224.437H360.46ZM359.242 220.965L357.982 217.339C357.823 216.881 357.721 216.55 357.674 216.345C357.571 216.709 357.469 217.04 357.366 217.339L356.092 220.965H359.242ZM366.058 224.605C365.143 224.605 364.42 224.278 363.888 223.625C363.356 222.962 363.09 222.043 363.09 220.867C363.09 219.691 363.356 218.771 363.888 218.109C364.429 217.446 365.171 217.115 366.114 217.115C367.383 217.115 368.218 217.67 368.62 218.781L367.472 219.201C367.229 218.566 366.781 218.249 366.128 218.249C365.53 218.249 365.082 218.477 364.784 218.935C364.485 219.392 364.336 220.036 364.336 220.867C364.336 221.688 364.485 222.327 364.784 222.785C365.082 223.233 365.516 223.457 366.086 223.457C366.832 223.457 367.318 223.102 367.542 222.393L368.676 222.771C368.498 223.359 368.181 223.811 367.724 224.129C367.276 224.446 366.72 224.605 366.058 224.605ZM372.305 224.605C371.297 224.605 370.793 224.035 370.793 222.897V218.347H369.631V217.283H370.793V214.917L372.011 214.329V217.283H373.775V218.347H372.011V222.491C372.011 222.808 372.062 223.051 372.165 223.219C372.268 223.387 372.464 223.471 372.753 223.471C373.07 223.471 373.425 223.345 373.817 223.093L373.677 224.283C373.266 224.497 372.809 224.605 372.305 224.605ZM376.771 215.771C376.622 215.911 376.44 215.981 376.225 215.981C376.011 215.981 375.829 215.906 375.679 215.757C375.539 215.607 375.469 215.43 375.469 215.225C375.469 215.01 375.544 214.828 375.693 214.679C375.843 214.52 376.02 214.441 376.225 214.441C376.44 214.441 376.622 214.52 376.771 214.679C376.921 214.828 376.995 215.01 376.995 215.225C376.995 215.439 376.921 215.621 376.771 215.771ZM375.623 224.437V217.283H376.841V224.437H375.623ZM381.082 224.437L378.464 217.283H379.696L381.39 222.057C381.511 222.411 381.586 222.645 381.614 222.757C381.642 222.645 381.717 222.411 381.838 222.057L383.504 217.283H384.722L382.104 224.437H381.082ZM387.49 215.771C387.341 215.911 387.159 215.981 386.944 215.981C386.729 215.981 386.547 215.906 386.398 215.757C386.258 215.607 386.188 215.43 386.188 215.225C386.188 215.01 386.263 214.828 386.412 214.679C386.561 214.52 386.739 214.441 386.944 214.441C387.159 214.441 387.341 214.52 387.49 214.679C387.639 214.828 387.714 215.01 387.714 215.225C387.714 215.439 387.639 215.621 387.49 215.771ZM386.342 224.437V217.283H387.56V224.437H386.342ZM391.815 224.605C390.807 224.605 390.303 224.035 390.303 222.897V218.347H389.141V217.283H390.303V214.917L391.521 214.329V217.283H393.285V218.347H391.521V222.491C391.521 222.808 391.572 223.051 391.675 223.219C391.777 223.387 391.973 223.471 392.263 223.471C392.58 223.471 392.935 223.345 393.327 223.093L393.187 224.283C392.776 224.497 392.319 224.605 391.815 224.605ZM395.973 227.153L397.065 224.255L394.419 217.283H395.637L397.415 222.155C397.48 222.313 397.555 222.542 397.639 222.841C397.723 222.542 397.798 222.313 397.863 222.155L399.669 217.283H400.915L397.205 227.153H395.973ZM405.908 224.437V214.903L407.126 214.329V224.437H405.908ZM412.26 224.605C411.289 224.605 410.515 224.259 409.936 223.569C409.367 222.869 409.082 221.963 409.082 220.853C409.082 219.686 409.371 218.771 409.95 218.109C410.529 217.446 411.299 217.115 412.26 217.115C413.119 217.115 413.823 217.404 414.374 217.983C414.934 218.552 415.214 219.397 415.214 220.517C415.214 220.778 415.2 221.049 415.172 221.329H410.328C410.375 221.982 410.575 222.509 410.93 222.911C411.294 223.303 411.747 223.499 412.288 223.499C412.885 223.499 413.399 223.284 413.828 222.855L414.57 223.681C413.954 224.297 413.184 224.605 412.26 224.605ZM410.314 220.293H413.982C413.973 219.555 413.795 219.023 413.45 218.697C413.114 218.361 412.717 218.193 412.26 218.193C411.709 218.193 411.257 218.37 410.902 218.725C410.547 219.07 410.351 219.593 410.314 220.293ZM418.953 224.437L416.335 217.283H417.567L419.261 222.057C419.382 222.411 419.457 222.645 419.485 222.757C419.513 222.645 419.588 222.411 419.709 222.057L421.375 217.283H422.593L419.975 224.437H418.953ZM426.957 224.605C425.986 224.605 425.212 224.259 424.633 223.569C424.064 222.869 423.779 221.963 423.779 220.853C423.779 219.686 424.068 218.771 424.647 218.109C425.226 217.446 425.996 217.115 426.957 217.115C427.816 217.115 428.52 217.404 429.071 217.983C429.631 218.552 429.911 219.397 429.911 220.517C429.911 220.778 429.897 221.049 429.869 221.329H425.025C425.072 221.982 425.272 222.509 425.627 222.911C425.991 223.303 426.444 223.499 426.985 223.499C427.582 223.499 428.096 223.284 428.525 222.855L429.267 223.681C428.651 224.297 427.881 224.605 426.957 224.605ZM425.011 220.293H428.679C428.67 219.555 428.492 219.023 428.147 218.697C427.811 218.361 427.414 218.193 426.957 218.193C426.406 218.193 425.954 218.37 425.599 218.725C425.244 219.07 425.048 219.593 425.011 220.293ZM431.802 224.437V214.903L433.02 214.329V224.437H431.802Z" fill="#4E4E4E"/>
<circle cx="331.561" cy="219.054" r="14.9401" fill="#E6E7EF" stroke="#E6E7EF"/>
<circle cx="331.561" cy="219.054" r="14.9401" fill="white" stroke="#A3CF48"/>
<circle cx="337.005" cy="212.83" r="1.83046" fill="#A3CF48"/>
<path d="M332.328 214.253L334.769 214.66C334.972 214.66 335.461 214.701 335.786 214.863C336.111 215.026 336.6 215.745 336.803 216.084C337.006 216.355 337.454 216.938 337.616 217.101C337.779 217.263 337.955 217.304 338.023 217.304L340.667 216.49C341.006 216.355 341.725 216.246 341.888 216.897C342.05 217.548 341.684 217.846 341.481 217.914C340.871 218.118 339.406 218.565 338.43 218.728C337.454 218.89 336.939 218.66 336.803 218.524L335.989 217.711C335.827 217.548 335.786 217.643 335.786 217.711C335.379 218.389 334.525 219.826 334.362 220.151C334.2 220.477 334.43 220.558 334.566 220.558C335.108 220.626 336.356 220.802 337.006 220.965C337.657 221.128 338.227 222.117 338.43 222.592L339.447 225.439C339.718 225.914 340.016 226.944 339.04 227.27C338.064 227.595 337.684 226.999 337.616 226.66C337.278 225.778 336.559 223.894 336.396 223.406C336.233 222.917 335.922 222.795 335.786 222.795L332.532 222.389C332.396 222.524 331.922 223.039 331.108 224.016C330.295 224.992 329.278 225.1 328.871 225.033L325.82 225.236C325.346 225.304 324.396 225.195 324.396 224.219C324.396 223.243 325.21 222.999 325.617 222.999H329.074C329.4 222.999 329.481 222.863 329.481 222.795C329.956 222.253 330.945 221.128 331.108 220.965C330.945 220.64 331.176 220.287 331.312 220.151L331.515 219.745L333.549 216.084C333.481 216.084 333.183 216.043 332.532 215.88C331.881 215.718 331.583 215.948 331.515 216.084L330.295 218.118C330.091 218.592 329.522 219.419 328.871 218.931C328.22 218.443 328.6 217.643 328.871 217.304C328.939 217.168 329.278 216.572 330.091 215.27C330.905 213.969 331.922 214.05 332.328 214.253Z" fill="#A3CF48"/>
<rect x="320.938" y="214.66" width="7.32185" height="1.22031" rx="0.610154" fill="#A3CF48"/>
<rect x="322.971" y="217.101" width="4.06769" height="1.22031" rx="0.610154" fill="#A3CF48"/>
<rect x="320.531" y="219.541" width="8.13539" height="1.22031" rx="0.610154" fill="#A3CF48"/>
<circle cx="331.39" cy="176.974" r="14.7685" fill="#E6E7EF" stroke="#E6E7EF"/>
<circle cx="331.39" cy="176.974" r="14.7685" fill="white" stroke="#FF3D71"/>
<circle cx="329.057" cy="175.55" r="3.66565" fill="#FF3D71"/>
<circle cx="322.393" cy="175.55" r="3.66565" fill="#FF3D71"/>
<path d="M326.522 184.832C326.122 185.359 325.33 185.359 324.929 184.832L319.73 177.988C319.23 177.329 319.699 176.383 320.526 176.383L330.925 176.383C331.752 176.383 332.221 177.329 331.721 177.988L326.522 184.832Z" fill="#FF3D71"/>
<path d="M328.846 179.609H334.187L335.91 170.612L337.633 179.609L338.495 184.608L339.356 179.609H341.079L341.941 175.61L342.802 179.609H345.387" stroke="#FF3D71" stroke-linejoin="round"/>
</g>
<defs>
<clipPath id="clip0">
<rect width="500" height="250" fill="white"/>
</clipPath>
</defs>
</svg>
