<svg width="144" height="90" viewBox="0 0 144 90" fill="none" xmlns="http://www.w3.org/2000/svg">
<path d="M49.5 48.4667L108.036 5L126.5 43.5333L61.5 62L61.3674 57.7558C61.1761 51.6351 55.4876 47.1824 49.5 48.4667Z" fill="#B9C3FA"/>
<path d="M0.287334 57.0029C0.398852 53.1351 3.63747 50.105 7.50464 50.2345L30.3667 51L51.2514 50.2577C55.2123 50.1169 58.5 53.2898 58.5 57.2532V70V82.7159C58.5 86.6911 55.1983 89.8689 51.2261 89.7158C43.5554 89.4202 32.3113 89 30.3667 89C28.3623 89 15.7042 89.4464 7.52306 89.7427C3.64605 89.8831 0.398343 86.8489 0.28658 82.971C0.150662 78.2549 0 72.4702 0 70C0 67.5252 0.15122 61.7237 0.287334 57.0029Z" fill="#506AF2"/>
<path d="M3.61512 56.7881C3.875 53.0071 7.14211 50.1721 10.9279 50.3485C25.7208 51.0376 36.5232 51.0344 51.6628 50.3421C55.462 50.1683 58.7318 53.0264 58.9662 56.8223C59.2269 61.0459 59.5 66.3421 59.5 70C59.5 73.6827 59.2232 79.026 58.9609 83.2634C58.728 87.0247 55.5177 89.8778 51.7522 89.7278C44.3171 89.4317 33.1604 89 31.3125 89C29.4609 89 18.264 89.4334 10.829 89.7296C7.08064 89.8789 3.87976 87.0516 3.62182 83.3092C3.32226 78.9629 3 73.4789 3 70C3 66.547 3.31747 61.1187 3.61512 56.7881Z" fill="#677FFF"/>
<rect x="15" y="65" width="32.625" height="8" rx="4" fill="#F6E486"/>
<circle cx="121.5" cy="22" r="21.5" fill="white" stroke="#8497FF"/>
<circle cx="132.5" cy="31.6" r="3" fill="#FF507F"/>
<path d="M135.492 18C134.757 22.964 134 27 132.5 27C131 27 130.021 23.1623 129.508 18C129.508 13.0294 129.195 9 132.5 9C135.805 9 135.492 13.0294 135.492 18Z" fill="#FF507F"/>
<path d="M109.422 27.9869C112.388 32.5163 119.504 31.8922 119.504 31.8922C119.504 31.8922 110.799 36.8646 106.317 30.0206C101.834 23.1766 109.871 17.184 109.871 17.184C109.871 17.184 106.02 22.7935 109.422 27.9869Z" fill="#677FFF"/>
<circle cx="114.558" cy="23.5225" r="3.29593" fill="#677FFF"/>
<circle cx="125.27" cy="24.3465" r="2.47194" fill="#677FFF"/>
<circle cx="120.325" cy="22.6985" r="4.11991" fill="#677FFF"/>
<path d="M114.559 25.1704H126.094V25.1704C126.094 26.0806 125.357 26.8184 124.446 26.8184H114.559V25.1704Z" fill="#677FFF"/>
<path d="M125.209 15.7893L125.522 16.753L126.536 16.753L125.716 17.3486L126.029 18.3123L125.209 17.7167L124.389 18.3123L124.702 17.3486L123.883 16.753L124.896 16.753L125.209 15.7893Z" fill="#677FFF"/>
<path d="M119.631 13L119.944 13.9637L120.957 13.9637L120.137 14.5593L120.45 15.523L119.631 14.9274L118.811 15.523L119.124 14.5593L118.304 13.9637L119.317 13.9637L119.631 13Z" fill="#677FFF"/>
</svg>
