<?xml version="1.0" standalone="no"?>
<!DOCTYPE svg PUBLIC "-//W3C//DTD SVG 20010904//EN"
 "http://www.w3.org/TR/2001/REC-SVG-20010904/DTD/svg10.dtd">
<svg version="1.0" xmlns="http://www.w3.org/2000/svg"
 width="94.000000pt" height="94.000000pt" viewBox="0 0 94.000000 94.000000"
 preserveAspectRatio="xMidYMid meet">
<metadata>
Created by potrace 1.11, written by Peter Selinger 2001-2013
</metadata>
<g transform="translate(0.000000,94.000000) scale(0.100000,-0.100000)"
fill="#000000" stroke="none">
<path d="M481 835 c-26 -32 -31 -55 -20 -77 17 -32 40 -47 68 -45 42 3 76 69
53 103 -19 30 -84 42 -101 19z"/>
<path d="M568 695 c-3 -3 -60 -7 -128 -10 -68 -3 -126 -8 -129 -11 -3 -3 -5
-28 -6 -57 l0 -52 148 -1 147 -2 1 32 c0 17 3 42 5 56 3 17 -2 29 -15 37 -10
7 -21 10 -23 8z"/>
<path d="M240 526 c-14 -14 -12 -63 3 -73 6 -4 32 -8 57 -9 25 -1 45 -3 45 -4
0 -1 61 -7 150 -14 28 -3 50 -5 50 -6 0 -1 33 -4 73 -6 76 -5 75 -6 86 46 11
52 8 53 -229 65 -198 11 -225 11 -235 1z"/>
<path d="M313 398 c-8 -14 -10 -22 -18 -93 -3 -27 -8 -66 -10 -85 -10 -60 -11
-101 -3 -112 7 -12 136 -19 143 -7 3 3 7 65 9 137 5 144 6 141 -60 160 -51 15
-51 15 -61 0z"/>
<path d="M478 379 c-6 -4 -13 -39 -14 -81 -2 -40 -5 -93 -7 -119 -7 -78 1 -87
80 -86 72 0 96 10 89 36 -3 9 -8 52 -11 96 -8 103 -14 138 -25 149 -11 11 -96
15 -112 5z"/>
</g>
</svg>
